# Created by Open3D 
# object name: construction_cone_scaled
# number of vertices: 498
# number of triangles: 166
v 0.99 0.67 5.05836e-08
v 0.99 -0.67 -5.05836e-08
v 0.67 -0.99 -7.47429e-08
v 0.67 -0.99 -7.47429e-08
v -0.67 -0.99 -7.47429e-08
v -0.99 -0.67 -5.05836e-08
v 0.99 0.67 5.05836e-08
v 0.67 -0.99 -7.47429e-08
v -0.99 -0.67 -5.05836e-08
v -0.99 -0.67 -5.05836e-08
v -0.99 0.67 5.05836e-08
v -0.67 0.99 7.47429e-08
v 0.99 0.67 5.05836e-08
v -0.99 -0.67 -5.05836e-08
v -0.67 0.99 7.47429e-08
v 0.67 0.99 7.47429e-08
v 0.99 0.67 5.05836e-08
v -0.67 0.99 7.47429e-08
v 0.67 0.99 7.47429e-08
v -0.67 0.99 7.47429e-08
v -0.67 0.99 0.2591
v -0.67 0.99 0.2591
v 0.67 0.99 0.2591
v 0.67 0.99 7.47429e-08
v -0.99 0.67 5.05836e-08
v -0.99 -0.67 -5.05836e-08
v -0.99 -0.67 0.2591
v -0.99 -0.67 0.2591
v -0.99 0.67 0.2591
v -0.99 0.67 5.05836e-08
v -0.67 -0.99 -7.47429e-08
v 0.67 -0.99 -7.47429e-08
v 0.67 -0.99 0.2591
v 0.67 -0.99 0.2591
v -0.67 -0.99 0.2591
v -0.67 -0.99 -7.47429e-08
v 0.99 -0.67 -5.05836e-08
v 0.99 0.67 5.05836e-08
v 0.99 0.67 0.2591
v 0.99 0.67 0.2591
v 0.99 -0.67 0.2591
v 0.99 -0.67 -5.05836e-08
v -0.67 0.99 7.47429e-08
v -0.99 0.67 5.05836e-08
v -0.99 0.67 0.2591
v -0.99 0.67 0.2591
v -0.67 0.99 0.2591
v -0.67 0.99 7.47429e-08
v 0.67 0.99 0.2591
v 0.99 0.67 0.2591
v 0.99 0.67 5.05836e-08
v 0.99 0.67 5.05836e-08
v 0.67 0.99 7.47429e-08
v 0.67 0.99 0.2591
v -0.99 -0.67 -5.05836e-08
v -0.67 -0.99 -7.47429e-08
v -0.67 -0.99 0.2591
v -0.67 -0.99 0.2591
v -0.99 -0.67 0.2591
v -0.99 -0.67 -5.05836e-08
v 0.67 -0.99 -7.47429e-08
v 0.99 -0.67 -5.05836e-08
v 0.99 -0.67 0.2591
v 0.99 -0.67 0.2591
v 0.67 -0.99 0.2591
v 0.67 -0.99 -7.47429e-08
v 0.653431 0.95 0.2991
v 0.67 0.99 0.2591
v -0.67 0.99 0.2591
v -0.67 0.99 0.2591
v -0.653431 0.95 0.2991
v 0.653431 0.95 0.2991
v -0.95 0.653431 0.2991
v -0.99 0.67 0.2591
v -0.99 -0.67 0.2591
v -0.99 -0.67 0.2591
v -0.95 -0.653431 0.2991
v -0.95 0.653431 0.2991
v -0.653431 -0.95 0.2991
v -0.67 -0.99 0.2591
v 0.67 -0.99 0.2591
v 0.67 -0.99 0.2591
v 0.653431 -0.95 0.2991
v -0.653431 -0.95 0.2991
v 0.95 -0.653431 0.2991
v 0.99 -0.67 0.2591
v 0.99 0.67 0.2591
v 0.99 0.67 0.2591
v 0.95 0.653431 0.2991
v 0.95 -0.653431 0.2991
v 0.67 0.99 0.2591
v 0.653431 0.95 0.2991
v 0.95 0.653431 0.2991
v 0.95 0.653431 0.2991
v 0.99 0.67 0.2591
v 0.67 0.99 0.2591
v -0.99 0.67 0.2591
v -0.95 0.653431 0.2991
v -0.653431 0.95 0.2991
v -0.653431 0.95 0.2991
v -0.67 0.99 0.2591
v -0.99 0.67 0.2591
v 0.99 -0.67 0.2591
v 0.95 -0.653431 0.2991
v 0.653431 -0.95 0.2991
v 0.653431 -0.95 0.2991
v 0.67 -0.99 0.2591
v 0.99 -0.67 0.2591
v -0.67 -0.99 0.2591
v -0.653431 -0.95 0.2991
v -0.95 -0.653431 0.2991
v -0.95 -0.653431 0.2991
v -0.99 -0.67 0.2591
v -0.67 -0.99 0.2591
v 3.30479e-07 0.76498 0.2991
v 0.653431 0.95 0.2991
v -0.653431 0.95 0.2991
v -0.175928 -0.101572 4.26
v -0.203144 -3.18067e-07 4.26
v -0.705991 1.46199e-09 0.356659
v -0.705991 1.46199e-09 0.356659
v -0.611406 -0.352996 0.356659
v -0.175928 -0.101572 4.26
v -0.101572 -0.175928 4.26
v -0.175928 -0.101572 4.26
v -0.611406 -0.352996 0.356659
v -0.611406 -0.352996 0.356659
v -0.352996 -0.611406 0.356659
v -0.101572 -0.175928 4.26
v 7.64086e-08 -0.203144 4.26
v -0.101572 -0.175928 4.26
v -0.352996 -0.611406 0.356659
v -0.352996 -0.611406 0.356659
v 5.3236e-08 -0.705991 0.356659
v 7.64086e-08 -0.203144 4.26
v 0.101572 -0.175928 4.26
v 7.64086e-08 -0.203144 4.26
v 5.3236e-08 -0.705991 0.356659
v 5.3236e-08 -0.705991 0.356659
v 0.352996 -0.611406 0.356659
v 0.101572 -0.175928 4.26
v 0.175928 -0.101572 4.26
v 0.101572 -0.175928 4.26
v 0.352996 -0.611406 0.356659
v 0.352996 -0.611406 0.356659
v 0.611406 -0.352996 0.356659
v 0.175928 -0.101572 4.26
v 0.203144 -3.48741e-07 4.26
v 0.175928 -0.101572 4.26
v 0.611406 -0.352996 0.356659
v 0.611406 -0.352996 0.356659
v 0.705991 -1.108e-07 0.356659
v 0.203144 -3.48741e-07 4.26
v 0.175928 0.101572 4.26
v 0.203144 -3.48741e-07 4.26
v 0.705991 -1.108e-07 0.356659
v 0.705991 -1.108e-07 0.356659
v 0.611406 0.352996 0.356659
v 0.175928 0.101572 4.26
v 0.101572 0.175928 4.26
v 0.175928 0.101572 4.26
v 0.611406 0.352996 0.356659
v 0.611406 0.352996 0.356659
v 0.352996 0.611406 0.356659
v 0.101572 0.175928 4.26
v 1.61973e-07 0.203144 4.26
v 0.101572 0.175928 4.26
v 0.352996 0.611406 0.356659
v 0.352996 0.611406 0.356659
v 3.20017e-07 0.705991 0.356659
v 1.61973e-07 0.203144 4.26
v -0.101572 0.175928 4.26
v 1.61973e-07 0.203144 4.26
v 3.20017e-07 0.705991 0.356659
v 3.20017e-07 0.705991 0.356659
v -0.352995 0.611406 0.356659
v -0.101572 0.175928 4.26
v -0.175928 0.101572 4.26
v -0.101572 0.175928 4.26
v -0.352995 0.611406 0.356659
v -0.352995 0.611406 0.356659
v -0.611406 0.352996 0.356659
v -0.175928 0.101572 4.26
v -0.175928 -0.101572 4.26
v -0.144628 -0.0835013 4.28696
v -0.167002 -3.18636e-07 4.28696
v -0.167002 -3.18636e-07 4.28696
v -0.203144 -3.18067e-07 4.26
v -0.175928 -0.101572 4.26
v -0.101572 -0.175928 4.26
v -0.0835009 -0.144628 4.28696
v -0.144628 -0.0835013 4.28696
v -0.144628 -0.0835013 4.28696
v -0.175928 -0.101572 4.26
v -0.101572 -0.175928 4.26
v 7.64086e-08 -0.203144 4.26
v 7.91631e-08 -0.167002 4.28696
v -0.0835009 -0.144628 4.28696
v -0.0835009 -0.144628 4.28696
v -0.101572 -0.175928 4.26
v 7.64086e-08 -0.203144 4.26
v 0.101572 -0.175928 4.26
v 0.0835011 -0.144628 4.28696
v 7.91631e-08 -0.167002 4.28696
v 7.91631e-08 -0.167002 4.28696
v 7.64086e-08 -0.203144 4.26
v 0.101572 -0.175928 4.26
v 0.175928 -0.101572 4.26
v 0.144628 -0.0835013 4.28696
v 0.0835011 -0.144628 4.28696
v 0.0835011 -0.144628 4.28696
v 0.101572 -0.175928 4.26
v 0.175928 -0.101572 4.26
v 0.203144 -3.48741e-07 4.26
v 0.167002 -3.43852e-07 4.28696
v 0.144628 -0.0835013 4.28696
v 0.144628 -0.0835013 4.28696
v 0.175928 -0.101572 4.26
v 0.203144 -3.48741e-07 4.26
v 0.175928 0.101572 4.26
v 0.144628 0.0835007 4.28696
v 0.167002 -3.43852e-07 4.28696
v 0.167002 -3.43852e-07 4.28696
v 0.203144 -3.48741e-07 4.26
v 0.175928 0.101572 4.26
v 0.101572 0.175928 4.26
v 0.0835011 0.144628 4.28696
v 0.144628 0.0835007 4.28696
v 0.144628 0.0835007 4.28696
v 0.175928 0.101572 4.26
v 0.101572 0.175928 4.26
v 1.61973e-07 0.203144 4.26
v 1.49504e-07 0.167002 4.28696
v 0.0835011 0.144628 4.28696
v 0.0835011 0.144628 4.28696
v 0.101572 0.175928 4.26
v 1.61973e-07 0.203144 4.26
v -0.101572 0.175928 4.26
v -0.0835009 0.144628 4.28696
v 1.49504e-07 0.167002 4.28696
v 1.49504e-07 0.167002 4.28696
v 1.61973e-07 0.203144 4.26
v -0.101572 0.175928 4.26
v -0.175928 0.101572 4.26
v -0.144628 0.0835008 4.28696
v -0.0835009 0.144628 4.28696
v -0.0835009 0.144628 4.28696
v -0.101572 0.175928 4.26
v -0.175928 0.101572 4.26
v -0.203144 -3.18067e-07 4.26
v -0.167002 -3.18636e-07 4.28696
v -0.144628 0.0835008 4.28696
v -0.144628 0.0835008 4.28696
v -0.175928 0.101572 4.26
v -0.203144 -3.18067e-07 4.26
v -0.13086 -3.15134e-07 4.26
v -0.113328 -0.0654302 4.26
v 8.75443e-08 -3.02466e-07 4.03918
v -0.113328 -0.0654302 4.26
v -0.0654299 -0.113328 4.26
v 8.75443e-08 -3.02466e-07 4.03918
v -0.0654299 -0.113328 4.26
v 8.19175e-08 -0.13086 4.26
v 8.75443e-08 -3.02466e-07 4.03918
v 8.19175e-08 -0.13086 4.26
v 0.06543 -0.113328 4.26
v 8.75443e-08 -3.02466e-07 4.03918
v 0.06543 -0.113328 4.26
v 0.113328 -0.0654302 4.26
v 8.75443e-08 -3.02466e-07 4.03918
v 0.113328 -0.0654302 4.26
v 0.13086 -3.34893e-07 4.26
v 8.75443e-08 -3.02466e-07 4.03918
v 0.13086 -3.34893e-07 4.26
v 0.113328 0.0654296 4.26
v 8.75443e-08 -3.02466e-07 4.03918
v 0.113328 0.0654296 4.26
v 0.06543 0.113328 4.26
v 8.75443e-08 -3.02466e-07 4.03918
v 0.06543 0.113328 4.26
v 1.37036e-07 0.13086 4.26
v 8.75443e-08 -3.02466e-07 4.03918
v 1.37036e-07 0.13086 4.26
v -0.0654298 0.113328 4.26
v 8.75443e-08 -3.02466e-07 4.03918
v -0.0654298 0.113328 4.26
v -0.113328 0.0654297 4.26
v 8.75443e-08 -3.02466e-07 4.03918
v -0.113328 0.0654297 4.26
v -0.13086 -3.15134e-07 4.26
v 8.75443e-08 -3.02466e-07 4.03918
v -0.203144 -3.18067e-07 4.26
v -0.175928 0.101572 4.26
v -0.611406 0.352996 0.356659
v -0.611406 0.352996 0.356659
v -0.705991 1.46199e-09 0.356659
v -0.203144 -3.18067e-07 4.26
v -0.76498 9.16088e-09 0.2991
v -0.661109 0.395366 0.2991
v -0.95 0.653431 0.2991
v -0.95 -0.653431 0.2991
v -0.661109 -0.395366 0.2991
v -0.76498 9.16088e-09 0.2991
v -0.76498 9.16088e-09 0.2991
v -0.95 0.653431 0.2991
v -0.95 -0.653431 0.2991
v -0.653431 0.95 0.2991
v -0.395366 0.661109 0.2991
v 3.30479e-07 0.76498 0.2991
v 0.76498 -1.11335e-07 0.2991
v 0.95 -0.653431 0.2991
v 0.95 0.653431 0.2991
v -0.653431 0.95 0.2991
v -0.95 0.653431 0.2991
v -0.661109 0.395366 0.2991
v -0.661109 0.395366 0.2991
v -0.395366 0.661109 0.2991
v -0.653431 0.95 0.2991
v 0.653431 0.95 0.2991
v 3.30479e-07 0.76498 0.2991
v 0.395366 0.661109 0.2991
v 0.395366 0.661109 0.2991
v 0.661109 0.395366 0.2991
v 0.95 0.653431 0.2991
v 0.95 0.653431 0.2991
v 0.653431 0.95 0.2991
v 0.395366 0.661109 0.2991
v 0.95 0.653431 0.2991
v 0.661109 0.395366 0.2991
v 0.76498 -1.11335e-07 0.2991
v 5.06183e-08 -0.76498 0.2991
v -0.653431 -0.95 0.2991
v 0.653431 -0.95 0.2991
v 0.95 -0.653431 0.2991
v 0.76498 -1.11335e-07 0.2991
v 0.661109 -0.395366 0.2991
v 0.661109 -0.395366 0.2991
v 0.395366 -0.661109 0.2991
v 0.653431 -0.95 0.2991
v 0.653431 -0.95 0.2991
v 0.95 -0.653431 0.2991
v 0.661109 -0.395366 0.2991
v 0.653431 -0.95 0.2991
v 0.395366 -0.661109 0.2991
v 5.06183e-08 -0.76498 0.2991
v -0.661109 -0.395366 0.2991
v -0.95 -0.653431 0.2991
v -0.653431 -0.95 0.2991
v -0.653431 -0.95 0.2991
v -0.395366 -0.661109 0.2991
v -0.661109 -0.395366 0.2991
v -0.653431 -0.95 0.2991
v 5.06183e-08 -0.76498 0.2991
v -0.395366 -0.661109 0.2991
v 0.661109 -0.395366 0.2991
v 0.611406 -0.352996 0.356659
v 0.352996 -0.611406 0.356659
v 0.352996 -0.611406 0.356659
v 0.395366 -0.661109 0.2991
v 0.661109 -0.395366 0.2991
v 0.76498 -1.11335e-07 0.2991
v 0.705991 -1.108e-07 0.356659
v 0.611406 -0.352996 0.356659
v 0.611406 -0.352996 0.356659
v 0.661109 -0.395366 0.2991
v 0.76498 -1.11335e-07 0.2991
v 0.661109 0.395366 0.2991
v 0.611406 0.352996 0.356659
v 0.705991 -1.108e-07 0.356659
v 0.705991 -1.108e-07 0.356659
v 0.76498 -1.11335e-07 0.2991
v 0.661109 0.395366 0.2991
v 0.395366 0.661109 0.2991
v 0.352996 0.611406 0.356659
v 0.611406 0.352996 0.356659
v 0.611406 0.352996 0.356659
v 0.661109 0.395366 0.2991
v 0.395366 0.661109 0.2991
v -0.705991 1.46199e-09 0.356659
v -0.76498 9.16088e-09 0.2991
v -0.661109 -0.395366 0.2991
v -0.661109 -0.395366 0.2991
v -0.611406 -0.352996 0.356659
v -0.705991 1.46199e-09 0.356659
v -0.611406 -0.352996 0.356659
v -0.661109 -0.395366 0.2991
v -0.395366 -0.661109 0.2991
v -0.395366 -0.661109 0.2991
v -0.352996 -0.611406 0.356659
v -0.611406 -0.352996 0.356659
v -0.352996 -0.611406 0.356659
v -0.395366 -0.661109 0.2991
v 5.06183e-08 -0.76498 0.2991
v 5.06183e-08 -0.76498 0.2991
v 5.3236e-08 -0.705991 0.356659
v -0.352996 -0.611406 0.356659
v 5.3236e-08 -0.705991 0.356659
v 5.06183e-08 -0.76498 0.2991
v 0.395366 -0.661109 0.2991
v 0.395366 -0.661109 0.2991
v 0.352996 -0.611406 0.356659
v 5.3236e-08 -0.705991 0.356659
v 0.352996 0.611406 0.356659
v 0.395366 0.661109 0.2991
v 3.30479e-07 0.76498 0.2991
v 3.30479e-07 0.76498 0.2991
v 3.20017e-07 0.705991 0.356659
v 0.352996 0.611406 0.356659
v 3.20017e-07 0.705991 0.356659
v 3.30479e-07 0.76498 0.2991
v -0.395366 0.661109 0.2991
v -0.395366 0.661109 0.2991
v -0.352995 0.611406 0.356659
v 3.20017e-07 0.705991 0.356659
v -0.611406 0.352996 0.356659
v -0.661109 0.395366 0.2991
v -0.76498 9.16088e-09 0.2991
v -0.76498 9.16088e-09 0.2991
v -0.705991 1.46199e-09 0.356659
v -0.611406 0.352996 0.356659
v -0.352995 0.611406 0.356659
v -0.395366 0.661109 0.2991
v -0.661109 0.395366 0.2991
v -0.661109 0.395366 0.2991
v -0.611406 0.352996 0.356659
v -0.352995 0.611406 0.356659
v -0.113328 -0.0654302 4.26
v -0.13086 -3.15134e-07 4.26
v -0.167002 -3.18636e-07 4.28696
v -0.167002 -3.18636e-07 4.28696
v -0.144628 -0.0835013 4.28696
v -0.113328 -0.0654302 4.26
v -0.0654299 -0.113328 4.26
v -0.113328 -0.0654302 4.26
v -0.144628 -0.0835013 4.28696
v -0.144628 -0.0835013 4.28696
v -0.0835009 -0.144628 4.28696
v -0.0654299 -0.113328 4.26
v 8.19175e-08 -0.13086 4.26
v -0.0654299 -0.113328 4.26
v -0.0835009 -0.144628 4.28696
v -0.0835009 -0.144628 4.28696
v 7.91631e-08 -0.167002 4.28696
v 8.19175e-08 -0.13086 4.26
v 0.06543 -0.113328 4.26
v 8.19175e-08 -0.13086 4.26
v 7.91631e-08 -0.167002 4.28696
v 7.91631e-08 -0.167002 4.28696
v 0.0835011 -0.144628 4.28696
v 0.06543 -0.113328 4.26
v 0.113328 -0.0654302 4.26
v 0.06543 -0.113328 4.26
v 0.0835011 -0.144628 4.28696
v 0.0835011 -0.144628 4.28696
v 0.144628 -0.0835013 4.28696
v 0.113328 -0.0654302 4.26
v 0.13086 -3.34893e-07 4.26
v 0.113328 -0.0654302 4.26
v 0.144628 -0.0835013 4.28696
v 0.144628 -0.0835013 4.28696
v 0.167002 -3.43852e-07 4.28696
v 0.13086 -3.34893e-07 4.26
v 0.113328 0.0654296 4.26
v 0.13086 -3.34893e-07 4.26
v 0.167002 -3.43852e-07 4.28696
v 0.167002 -3.43852e-07 4.28696
v 0.144628 0.0835007 4.28696
v 0.113328 0.0654296 4.26
v 0.06543 0.113328 4.26
v 0.113328 0.0654296 4.26
v 0.144628 0.0835007 4.28696
v 0.144628 0.0835007 4.28696
v 0.0835011 0.144628 4.28696
v 0.06543 0.113328 4.26
v 1.37036e-07 0.13086 4.26
v 0.06543 0.113328 4.26
v 0.0835011 0.144628 4.28696
v 0.0835011 0.144628 4.28696
v 1.49504e-07 0.167002 4.28696
v 1.37036e-07 0.13086 4.26
v -0.0654298 0.113328 4.26
v 1.37036e-07 0.13086 4.26
v 1.49504e-07 0.167002 4.28696
v 1.49504e-07 0.167002 4.28696
v -0.0835009 0.144628 4.28696
v -0.0654298 0.113328 4.26
v -0.113328 0.0654297 4.26
v -0.0654298 0.113328 4.26
v -0.0835009 0.144628 4.28696
v -0.0835009 0.144628 4.28696
v -0.144628 0.0835008 4.28696
v -0.113328 0.0654297 4.26
v -0.13086 -3.15134e-07 4.26
v -0.113328 0.0654297 4.26
v -0.144628 0.0835008 4.28696
v -0.144628 0.0835008 4.28696
v -0.167002 -3.18636e-07 4.28696
v -0.13086 -3.15134e-07 4.26
f 1 2 3
f 4 5 6
f 7 8 9
f 10 11 12
f 13 14 15
f 16 17 18
f 19 20 21
f 22 23 24
f 25 26 27
f 28 29 30
f 31 32 33
f 34 35 36
f 37 38 39
f 40 41 42
f 43 44 45
f 46 47 48
f 49 50 51
f 52 53 54
f 55 56 57
f 58 59 60
f 61 62 63
f 64 65 66
f 67 68 69
f 70 71 72
f 73 74 75
f 76 77 78
f 79 80 81
f 82 83 84
f 85 86 87
f 88 89 90
f 91 92 93
f 94 95 96
f 97 98 99
f 100 101 102
f 103 104 105
f 106 107 108
f 109 110 111
f 112 113 114
f 115 116 117
f 118 119 120
f 121 122 123
f 124 125 126
f 127 128 129
f 130 131 132
f 133 134 135
f 136 137 138
f 139 140 141
f 142 143 144
f 145 146 147
f 148 149 150
f 151 152 153
f 154 155 156
f 157 158 159
f 160 161 162
f 163 164 165
f 166 167 168
f 169 170 171
f 172 173 174
f 175 176 177
f 178 179 180
f 181 182 183
f 184 185 186
f 187 188 189
f 190 191 192
f 193 194 195
f 196 197 198
f 199 200 201
f 202 203 204
f 205 206 207
f 208 209 210
f 211 212 213
f 214 215 216
f 217 218 219
f 220 221 222
f 223 224 225
f 226 227 228
f 229 230 231
f 232 233 234
f 235 236 237
f 238 239 240
f 241 242 243
f 244 245 246
f 247 248 249
f 250 251 252
f 253 254 255
f 256 257 258
f 259 260 261
f 262 263 264
f 265 266 267
f 268 269 270
f 271 272 273
f 274 275 276
f 277 278 279
f 280 281 282
f 283 284 285
f 286 287 288
f 289 290 291
f 292 293 294
f 295 296 297
f 298 299 300
f 301 302 303
f 304 305 306
f 307 308 309
f 310 311 312
f 313 314 315
f 316 317 318
f 319 320 321
f 322 323 324
f 325 326 327
f 328 329 330
f 331 332 333
f 334 335 336
f 337 338 339
f 340 341 342
f 343 344 345
f 346 347 348
f 349 350 351
f 352 353 354
f 355 356 357
f 358 359 360
f 361 362 363
f 364 365 366
f 367 368 369
f 370 371 372
f 373 374 375
f 376 377 378
f 379 380 381
f 382 383 384
f 385 386 387
f 388 389 390
f 391 392 393
f 394 395 396
f 397 398 399
f 400 401 402
f 403 404 405
f 406 407 408
f 409 410 411
f 412 413 414
f 415 416 417
f 418 419 420
f 421 422 423
f 424 425 426
f 427 428 429
f 430 431 432
f 433 434 435
f 436 437 438
f 439 440 441
f 442 443 444
f 445 446 447
f 448 449 450
f 451 452 453
f 454 455 456
f 457 458 459
f 460 461 462
f 463 464 465
f 466 467 468
f 469 470 471
f 472 473 474
f 475 476 477
f 478 479 480
f 481 482 483
f 484 485 486
f 487 488 489
f 490 491 492
f 493 494 495
f 496 497 498
