ply
format ascii 1.0
comment Map frame coordinates
element vertex 3403
property float x
property float y
property float z
end_header
0.217637 19.503537 0.049990
0.208818 19.503818 0.049990
0.199998 19.504094 0.049990
0.188238 19.504463 0.049990
0.147079 19.505756 0.049990
0.129440 19.506311 0.049990
0.117680 19.506680 0.049990
0.100040 19.507235 0.049990
0.088281 19.507604 0.049990
0.079461 19.507880 0.049990
0.073581 19.508064 0.049990
0.038302 19.509176 0.049990
0.000083 19.510376 0.049990
-0.011677 19.510745 0.049990
-0.052836 19.512044 0.049990
-0.061656 19.512320 0.049990
-0.082235 19.512968 0.049990
-0.111634 19.513891 0.049990
-0.120454 19.514168 0.049990
-0.129274 19.514445 0.049990
-0.161613 19.515461 0.049990
-0.170433 19.515738 0.049990
-0.182193 19.516108 0.049990
-0.229231 19.517586 0.049990
0.189466 19.631377 0.049989
0.168047 19.632050 0.049989
0.149687 19.632627 0.049989
0.140507 19.632917 0.049989
0.128267 19.633300 0.049989
0.109908 19.633877 0.049989
0.097668 19.634263 0.049989
0.088488 19.634550 0.049989
0.079309 19.634840 0.049989
0.070129 19.635126 0.049990
0.048709 19.635799 0.049990
0.030350 19.636377 0.049989
0.018110 19.636767 0.049989
0.008930 19.637055 0.049989
-0.021669 19.638018 0.049989
-0.030849 19.638305 0.049989
-0.040029 19.638595 0.049989
-0.079808 19.639846 0.049989
-0.101227 19.640520 0.049989
-0.238051 19.517862 0.049990
-0.110407 19.640807 0.049989
-0.131827 19.641480 0.049989
-0.159366 19.642347 0.049989
-0.171606 19.642730 0.049989
-0.202205 19.643693 0.049989
-0.220564 19.644269 0.049989
-0.232804 19.644656 0.049989
-0.241984 19.644945 0.049989
-0.248104 19.645135 0.049989
0.229081 19.767894 0.049989
0.180703 19.759157 0.050445
0.138883 19.748326 0.050985
0.129365 19.748325 0.050998
0.100823 19.748322 0.051038
0.018451 19.748315 0.051153
-0.010033 19.748312 0.051193
-0.019524 19.748311 0.051207
-0.032176 19.748310 0.051224
-0.051149 19.748309 0.051251
-0.089074 19.748305 0.051304
-0.139598 19.748301 0.051375
-0.171261 19.750317 0.051330
-0.181219 19.759028 0.050956
-0.187938 19.765745 0.050667
-0.194683 19.772488 0.050377
-0.211160 19.781736 0.049989
-0.230301 19.782338 0.049989
-0.239871 19.782638 0.049989
-0.259012 19.783242 0.049989
-0.249603 19.827391 0.054481
-0.264227 19.933412 0.049988
0.242289 19.820765 0.060589
0.221504 19.799972 0.058239
0.214633 19.793099 0.058534
0.200976 19.779438 0.059120
0.180703 19.759157 0.059991
0.148403 19.748326 0.060484
0.138883 19.748326 0.060496
0.129365 19.748325 0.060509
0.119850 19.748324 0.060521
0.100823 19.748322 0.060546
0.069126 19.748319 0.060588
0.050117 19.748318 0.060613
0.018451 19.748315 0.060654
-0.010033 19.748312 0.060692
-0.019524 19.748311 0.060704
-0.041663 19.748309 0.060733
-0.051149 19.748309 0.060746
-0.060633 19.748308 0.060758
-0.070475 19.512596 0.049990
-0.089074 19.748305 0.060795
-0.111184 19.748303 0.060824
-0.130128 19.748302 0.060849
-0.139598 19.748301 0.060862
-0.171261 19.750317 0.060819
-0.194683 19.772488 0.059927
-0.201455 19.779257 0.059654
-0.208252 19.786053 0.059381
0.027949 19.748316 0.051140
-0.221928 19.799724 0.058830
-0.228806 19.806600 0.058552
-0.235711 19.813503 0.058274
-0.242643 19.820434 0.061222
-0.249603 19.827391 0.060948
0.200976 19.779438 0.068726
0.194190 19.772650 0.068997
0.180703 19.759157 0.069537
0.170723 19.750390 0.069889
-0.152222 19.748300 0.060878
0.157924 19.748327 0.069985
0.129365 19.748325 0.070020
0.110335 19.748323 0.070043
0.100823 19.748322 0.070054
0.088142 19.748321 0.070070
0.078633 19.748320 0.070082
0.069126 19.748319 0.070093
0.050117 19.748318 0.070116
0.018451 19.748315 0.070155
0.008954 19.748314 0.070167
-0.032176 19.748310 0.070217
-0.041663 19.748309 0.070229
-0.051149 19.748309 0.070240
-0.060633 19.748308 0.070252
-0.089074 19.748305 0.070287
-0.111184 19.748303 0.070314
-0.139598 19.748301 0.070348
-0.161687 19.748299 0.070375
-0.171261 19.750317 0.070309
-0.194683 19.772488 0.069478
-0.208252 19.786053 0.068968
-0.215077 19.792875 0.068712
0.249276 19.827754 0.070042
0.242289 19.820765 0.070315
0.221504 19.799972 0.071126
0.214633 19.793099 0.071395
0.207790 19.786254 0.071662
0.179418 19.504739 0.049990
0.027949 19.748316 0.060642
-0.221928 19.799724 0.071663
-0.228806 19.806600 0.071411
-0.242643 19.820434 0.070904
0.242289 19.820765 0.080042
0.235332 19.813805 0.080293
0.221504 19.799972 0.080792
0.207790 19.786254 0.081287
0.180703 19.759157 0.079083
0.170723 19.750390 0.079409
-0.152222 19.748299 0.051393
0.157924 19.748327 0.079498
0.138883 19.748326 0.079520
0.129365 19.748325 0.079530
0.119850 19.748324 0.079541
0.110335 19.748323 0.079552
0.100823 19.748322 0.079563
0.088142 19.748321 0.079577
0.078633 19.748320 0.079588
-0.032176 19.748310 0.060721
0.069126 19.748319 0.079599
0.008954 19.748314 0.079667
-0.010033 19.748312 0.079688
-0.051149 19.748309 0.079735
-0.060633 19.748308 0.079746
-0.079595 19.748306 0.079767
-0.089074 19.748305 0.079778
-0.130128 19.748302 0.079824
-0.139598 19.748301 0.079835
-0.161687 19.748299 0.079860
-0.171261 19.750317 0.079798
-0.181219 19.759028 0.079497
-0.187938 19.765745 0.079263
-0.194683 19.772488 0.079028
-0.249603 19.827391 0.070650
-0.201455 19.779257 0.078792
-0.208252 19.786053 0.078556
0.027949 19.748316 0.070144
-0.221928 19.799724 0.081288
-0.228806 19.806600 0.081055
-0.235711 19.813503 0.080822
-0.242643 19.820434 0.080587
-0.201455 19.779257 0.069223
-0.249603 19.827391 0.080351
0.180703 19.759157 0.088629
0.170723 19.750390 0.088930
0.148403 19.748326 0.089021
0.129365 19.748325 0.089041
0.119850 19.748324 0.089051
0.158867 19.632339 0.049989
0.110335 19.748323 0.089061
0.100823 19.748322 0.089071
0.088142 19.748321 0.089084
0.078633 19.748320 0.089094
0.069126 19.748319 0.089104
0.059621 19.748318 0.089114
0.018451 19.748315 0.089157
0.008954 19.748314 0.089167
-0.010033 19.748312 0.089187
-0.019524 19.748311 0.089196
-0.051149 19.748309 0.089229
-0.070115 19.748307 0.089249
-0.111184 19.748303 0.089292
-0.120657 19.748302 0.089302
-0.130128 19.748302 0.089312
-0.139598 19.748301 0.089322
-0.161687 19.748299 0.089345
-0.171261 19.750317 0.089288
-0.187938 19.765745 0.088795
0.249276 19.827755 0.089536
0.242289 19.820765 0.089768
0.235332 19.813805 0.089999
0.214633 19.793099 0.090685
0.194190 19.772650 0.091364
0.187433 19.765890 0.091588
-0.194683 19.772488 0.091762
-0.201455 19.779257 0.091551
-0.208252 19.786053 0.091340
-0.221928 19.799724 0.090914
-0.228806 19.806600 0.090700
-0.235711 19.813503 0.090485
-0.019524 19.748311 0.070202
-0.242643 19.820434 0.090269
0.242289 19.820765 0.099494
0.235332 19.813805 0.099705
0.110335 19.748323 0.051025
0.214633 19.793099 0.100331
0.207790 19.786254 0.100538
0.194190 19.772650 0.100949
0.180703 19.759157 0.098175
0.170723 19.750390 0.098450
0.138883 19.748326 0.098543
0.110335 19.748323 0.098570
0.100823 19.748322 0.098579
0.193989 19.768998 0.049989
0.088142 19.748321 0.098591
0.078633 19.748320 0.098600
0.069126 19.748319 0.098609
0.018451 19.748315 0.098658
0.008954 19.748314 0.098667
-0.000540 19.748313 0.098676
-0.019524 19.748311 0.098694
-0.041663 19.748309 0.098715
-0.051149 19.748309 0.098724
-0.079595 19.748306 0.098751
-0.111184 19.748303 0.098781
-0.130128 19.748301 0.098799
-0.139598 19.748301 0.098809
-0.161687 19.748299 0.098830
-0.171261 19.750317 0.098778
-0.181219 19.759028 0.098523
-0.187938 19.765745 0.098327
-0.194683 19.772488 0.101312
-0.201455 19.779257 0.101120
-0.208252 19.786053 0.100927
-0.215077 19.792875 0.100734
-0.221928 19.799724 0.100539
-0.228806 19.806600 0.100344
-0.019524 19.748311 0.079699
-0.242643 19.820434 0.099951
0.242289 19.820765 0.109221
0.262221 19.916859 0.049988
0.235332 19.813805 0.109411
0.110335 19.748323 0.060534
0.214633 19.793099 0.109976
0.194190 19.772650 0.110535
0.180703 19.759157 0.110903
-0.152222 19.748299 0.098821
0.157924 19.748327 0.111209
0.138883 19.748326 0.111225
-0.032176 19.748310 0.089210
0.129365 19.748325 0.111233
0.110335 19.748323 0.111249
0.069126 19.748319 0.111283
0.059621 19.748318 0.111291
0.008954 19.748314 0.111333
-0.000540 19.748313 0.111341
-0.010033 19.748312 0.111349
-0.019524 19.748311 0.111357
-0.201455 19.779257 0.050085
-0.041663 19.748309 0.111376
-0.051149 19.748309 0.111384
-0.079595 19.748306 0.111407
-0.089074 19.748305 0.111415
-0.111184 19.748303 0.111434
-0.130128 19.748302 0.111450
-0.139598 19.748301 0.111457
-0.161687 19.748299 0.111476
-0.171261 19.750317 0.111430
-0.181219 19.759028 0.111208
-0.187938 19.765745 0.111036
-0.194683 19.772488 0.110863
-0.208252 19.786053 0.110515
-0.215077 19.792875 0.110340
-0.221928 19.799724 0.110164
-0.228806 19.806600 0.109988
-0.235711 19.813503 0.109811
-0.242643 19.820434 0.109633
0.239129 19.822007 0.118920
0.218403 19.801963 0.119409
-0.141034 19.514814 0.049990
0.187776 19.772350 0.120132
0.177694 19.762601 0.120370
0.167675 19.753122 0.120602
-0.152222 19.748300 0.089335
0.158139 19.753128 0.120609
0.139071 19.753140 0.120623
-0.032176 19.748310 0.098706
0.129540 19.753145 0.120630
0.120010 19.753151 0.120636
0.107307 19.753159 0.120646
0.097781 19.753165 0.120653
0.088257 19.753171 0.120660
-0.152222 19.748300 0.111468
0.078735 19.753177 0.120667
0.069214 19.753183 0.120673
0.059695 19.753189 0.120680
0.018466 19.753214 0.120710
0.008956 19.753220 0.120717
-0.019565 19.753238 0.120738
-0.032236 19.753246 0.120747
-0.051236 19.753259 0.120761
-0.070231 19.753271 0.120775
-0.079725 19.753277 0.120782
-0.089218 19.753283 0.120789
-0.111362 19.753298 0.120805
-0.130335 19.753310 0.120819
-0.139819 19.753316 0.120826
0.078633 19.748320 0.111275
-0.152462 19.753324 0.120835
-0.161943 19.753330 0.120842
-0.168262 19.753334 0.120846
-0.174925 19.759653 0.120702
-0.181620 19.766138 0.120554
-0.188340 19.772648 0.120405
-0.195086 19.779182 0.120255
-0.041663 19.748309 0.079724
-0.201857 19.785741 0.120105
-0.208653 19.792320 0.119955
-0.000250 19.637344 0.049989
-0.215475 19.798924 0.119804
-0.222323 19.805553 0.119652
-0.229196 19.812207 0.119500
-0.239559 19.822239 0.119270
0.236287 19.828167 0.125274
0.229344 19.821434 0.125426
0.222429 19.814728 0.125576
0.215542 19.808050 0.125726
0.208683 19.801398 0.125875
0.198787 19.797561 0.125966
0.189132 19.797807 0.125967
0.182695 19.797972 0.125968
0.176259 19.798136 0.125969
0.140867 19.799166 0.125970
0.127998 19.799554 0.125971
0.108694 19.800098 0.125972
0.079739 19.800909 0.125974
0.070087 19.801180 0.125975
0.037917 19.802082 0.125977
-0.010334 19.803478 0.125980
-0.019984 19.803782 0.125980
-0.029634 19.804085 0.125980
-0.052150 19.804793 0.125980
-0.061800 19.805096 0.125980
-0.071450 19.805400 0.125980
-0.081100 19.805703 0.125980
-0.100400 19.806309 0.125980
-0.119700 19.806916 0.125980
-0.151877 19.808139 0.125975
-0.161531 19.808513 0.125974
-0.171186 19.808887 0.125972
-0.209808 19.810383 0.125966
-0.219604 19.812813 0.125920
-0.229856 19.821689 0.125734
0.234577 20.120968 0.125958
0.227526 20.121134 0.125959
0.220473 20.121266 0.125961
0.185140 19.977725 0.128834
0.168968 19.920703 0.129976
0.161397 19.900227 0.130388
0.140732 19.880215 0.130798
0.133898 19.873597 0.130934
0.127090 19.867005 0.131069
0.106826 19.847383 0.131471
0.100124 19.840893 0.131604
0.080408 19.832743 0.131779
0.038090 19.821763 0.132023
0.028367 19.819264 0.132079
0.018661 19.816769 0.132134
-0.010394 19.814542 0.132197
-0.020095 19.817093 0.132152
-0.029807 19.819647 0.132108
-0.039533 19.822191 0.132063
-0.062273 19.828059 0.131961
-0.072040 19.830578 0.131917
-0.081819 19.833099 0.131873
-0.111615 19.851583 0.131524
-0.121747 19.861413 0.131335
-0.135348 19.874611 0.131082
-0.142186 19.881247 0.130954
-0.149049 19.887907 0.130826
-0.162853 19.901301 0.130569
-0.170636 19.924633 0.130110
-0.178790 19.953379 0.129545
-0.202366 20.133993 0.125972
-0.237585 20.134879 0.125977
0.178392 19.978502 0.135601
0.170321 19.950333 0.136112
0.154931 19.904268 0.136949
0.148021 19.897556 0.137073
0.127453 19.877577 0.137444
0.034898 19.827566 0.138395
-0.000726 19.819234 0.138565
-0.029879 19.826176 0.138456
-0.036374 19.827887 0.138429
-0.249442 19.782940 0.049989
-0.156443 19.905336 0.137105
-0.172149 19.954460 0.136232
-0.180371 19.983418 0.135716
0.139004 19.892724 0.141576
0.127652 19.883394 0.143935
0.114040 19.869818 0.144160
0.008954 19.748314 0.060667
0.100470 19.853827 0.141157
0.093826 19.849659 0.144494
0.080584 19.841107 0.141384
-0.187082 19.982667 0.128968
0.057703 19.835045 0.141499
0.028422 19.828708 0.144864
0.008971 19.822145 0.141744
-0.010437 19.822389 0.141751
0.099042 19.800368 0.125973
-0.029910 19.828930 0.144890
-0.059180 19.835325 0.141557
-0.082036 19.841374 0.141466
-0.095298 19.850476 0.144577
-0.110910 19.862684 0.140028
0.017722 19.509821 0.049990
-0.149672 19.901721 0.140476
-0.040734 19.830891 0.142703
-0.165059 19.946450 0.143069
-0.173289 19.976915 0.142584
0.134543 19.891426 0.150414
0.127693 19.884593 0.150514
0.120871 19.877787 0.150613
0.114076 19.871008 0.150713
0.008954 19.748314 0.051167
0.100569 19.857532 0.150910
0.093855 19.850834 0.151008
-0.079595 19.748306 0.060783
0.080634 19.843508 0.151118
0.061001 19.838256 0.151201
0.054471 19.836510 0.151229
0.028427 19.829543 0.151339
0.008971 19.824339 0.151422
0.050785 19.801721 0.125976
-0.000734 19.822302 0.148219
-0.020178 19.827161 0.151395
-0.029919 19.829766 0.151362
-0.039675 19.832375 0.151329
-0.055962 19.836730 0.151275
-0.082097 19.843718 0.151187
-0.088646 19.845469 0.151165
-0.095334 19.851656 0.151081
-0.102060 19.858365 0.150988
-0.108813 19.865100 0.150896
-0.122394 19.878646 0.150710
-0.181219 19.759028 0.089010
-0.136078 19.892295 0.150522
-0.142960 19.899159 0.150428
0.054483 19.837349 0.157721
0.148403 19.748326 0.069996
-0.165441 19.954266 0.156369
-0.173692 19.984866 0.155996
0.171758 19.981824 0.159294
0.155678 19.922104 0.159977
0.148398 19.906998 0.160150
0.037448 19.748316 0.079634
0.147593 19.886859 0.130662
0.141489 19.900102 0.160231
0.209940 19.768495 0.049989
0.134608 19.893234 0.160311
0.127755 19.886393 0.160391
0.008969 19.814279 0.132190
0.114131 19.872794 0.160550
0.100616 19.859304 0.160708
0.093899 19.852599 0.160787
-0.079595 19.748306 0.089259
0.078479 19.844328 0.161972
0.058845 19.839074 0.162037
0.028434 19.830797 0.161057
0.021939 19.829059 0.161079
0.015452 19.827323 0.161101
0.008971 19.825589 0.161123
-0.000738 19.823967 0.161145
-0.010455 19.825811 0.161128
-0.016942 19.827546 0.161110
-0.173490 19.980886 0.149282
-0.023435 19.829283 0.161093
-0.029933 19.831021 0.161076
-0.039693 19.833632 0.161050
-0.049463 19.836245 0.161023
-0.082131 19.844983 0.160936
-0.088684 19.846819 0.160917
-0.095387 19.853427 0.160845
-0.102117 19.860143 0.160771
-0.122461 19.880445 0.160548
-0.181219 19.759028 0.060470
-0.136153 19.894108 0.160398
-0.143038 19.900978 0.160322
-0.157419 19.926108 0.160043
-0.165632 19.958187 0.163040
-0.173894 19.988854 0.162724
0.172026 19.987695 0.169419
0.163903 19.957484 0.169678
0.155915 19.927780 0.169933
0.148471 19.908822 0.170097
0.134674 19.895043 0.170217
-0.012489 19.637728 0.049989
-0.115654 19.873652 0.160623
0.120987 19.881374 0.170337
0.114185 19.874581 0.170397
0.107411 19.867816 0.170457
0.093943 19.854366 0.170575
0.077409 19.845161 0.170657
0.057773 19.839904 0.170707
0.028442 19.832052 0.170782
0.018699 19.829444 0.170807
-0.000741 19.825217 0.170848
-0.020199 19.829669 0.170815
-0.029947 19.832277 0.170796
-0.039710 19.834889 0.170776
-0.049485 19.837505 0.170757
-0.072345 19.843622 0.170711
-0.082164 19.846249 0.170691
-0.092086 19.851851 0.170646
-0.181219 19.759028 0.069983
-0.136228 19.895922 0.170283
-0.143117 19.902799 0.170226
-0.157691 19.931899 0.169982
-0.165824 19.962116 0.169727
-0.174097 19.992852 0.169468
0.164072 19.961343 0.176391
-0.136278 19.897132 0.176878
-0.157873 19.935771 0.176627
-0.166017 19.966055 0.176428
-0.174301 19.996858 0.176226
0.172296 19.993588 0.179581
0.148544 19.910647 0.180055
-0.112326 19.872058 0.170479
0.121045 19.883171 0.180215
0.114240 19.876371 0.180255
0.107462 19.869598 0.180295
-0.101709 19.748304 0.111426
0.070795 19.840039 0.144661
0.100711 19.862853 0.180334
0.090638 19.852788 0.180393
-0.079595 19.748306 0.070275
0.077435 19.846427 0.180431
0.067603 19.843794 0.180448
0.047993 19.838542 0.180481
0.158839 19.505387 0.049990
0.038214 19.835923 0.180498
0.018703 19.830698 0.180531
0.008972 19.828509 0.183787
-0.000745 19.826469 0.180559
-0.020209 19.830924 0.180537
-0.029961 19.833534 0.180524
-0.059298 19.841386 0.180484
-0.082197 19.847515 0.180454
-0.092137 19.853623 0.180421
-0.140907 19.902530 0.181253
-0.158055 19.939651 0.183287
-0.166210 19.970002 0.183144
0.148617 19.912475 0.190022
0.127940 19.891804 0.190082
-0.115548 19.870667 0.144263
0.117699 19.881566 0.190112
-0.101873 19.753291 0.120798
0.070810 19.840880 0.151159
0.100758 19.864630 0.190162
0.067625 19.845058 0.190220
0.038225 19.837181 0.190245
0.018707 19.831952 0.190262
0.170723 19.750390 0.111144
0.008972 19.829344 0.190270
-0.000748 19.827721 0.190276
-0.010476 19.829571 0.190271
-0.020220 19.832180 0.190265
-0.029975 19.834792 0.190258
-0.059323 19.842650 0.190238
-0.082230 19.848783 0.190223
-0.209410 20.134169 0.125973
-0.088831 19.852040 0.190214
-0.095547 19.858751 0.190196
-0.073332 19.839564 0.142575
-0.102288 19.865488 0.190177
0.120929 19.879580 0.160471
-0.109054 19.872250 0.190159
-0.115846 19.879038 0.190140
-0.129508 19.892691 0.190103
-0.139826 19.903002 0.190074
-0.166403 19.973957 0.189875
0.108860 19.506956 0.049990
-0.079595 19.748306 0.051291
0.074195 19.847659 0.196737
-0.036498 19.837375 0.196750
-0.115889 19.880237 0.196712
-0.166597 19.977922 0.196621
0.148738 19.915504 0.200002
-0.115590 19.871860 0.150803
0.117756 19.883362 0.200001
0.107564 19.873169 0.200001
0.094075 19.859676 0.200001
0.078582 19.849395 0.201088
0.067647 19.846324 0.200000
0.048022 19.841064 0.200000
0.041495 19.839315 0.200000
0.034976 19.837567 0.200000
0.018711 19.833208 0.200000
-0.020230 19.833437 0.200000
-0.029989 19.836050 0.200000
-0.059348 19.843914 0.200000
-0.082264 19.850051 0.200000
-0.088881 19.853812 0.200001
-0.095600 19.860530 0.200001
0.069126 19.748319 0.051082
-0.072286 19.841095 0.151220
-0.102345 19.867273 0.200001
-0.122755 19.888260 0.203295
-0.129580 19.894504 0.200001
-0.138745 19.903473 0.198896
-0.242643 19.820434 0.054768
-0.143380 19.908884 0.203314
-0.150555 19.921306 0.203326
-0.158604 19.951344 0.203354
-0.166791 19.981895 0.203382
0.164922 19.980767 0.210173
0.156874 19.950674 0.210087
0.121220 19.888572 0.209908
0.114404 19.881750 0.209888
0.107615 19.874956 0.209868
0.100853 19.868189 0.209848
0.087411 19.854737 0.209809
0.077511 19.850230 0.209795
0.067669 19.847591 0.209787
0.048037 19.842327 0.209770
0.038247 19.839702 0.209762
0.018715 19.834464 0.209745
0.156154 19.933477 0.179925
0.008973 19.831852 0.209737
-0.000754 19.830228 0.209732
-0.010490 19.832082 0.209736
-0.030003 19.837310 0.209749
-0.059373 19.845179 0.209769
-0.069188 19.847809 0.209775
-0.082297 19.851320 0.209784
-0.088931 19.855585 0.209796
-0.095653 19.862310 0.209814
-0.102402 19.869060 0.209833
0.008966 19.802893 0.125980
-0.136529 19.903198 0.209926
-0.143433 19.910104 0.209945
0.074179 19.846814 0.190215
-0.166985 19.985877 0.210158
0.165093 19.984677 0.216974
0.194190 19.772650 0.059412
-0.049442 19.834986 0.151297
0.149112 19.924866 0.216689
0.165264 19.988596 0.223790
0.157196 19.958371 0.223588
0.141905 19.911028 0.219948
-0.020497 19.511021 0.049990
0.207790 19.786254 0.090912
0.135002 19.904116 0.219907
0.128126 19.897232 0.219867
0.114459 19.883547 0.219787
0.107666 19.876746 0.219747
0.100901 19.869972 0.219707
-0.083837 19.910050 0.548271
-0.097503 19.923948 0.549608
-0.104375 19.930939 0.550281
-0.030219 19.856741 0.360134
-0.111432 19.942654 0.551422
0.018685 19.824707 0.141696
-0.101002 19.894006 0.359556
-0.020721 19.892701 0.659024
0.109519 19.941531 0.558705
-0.057797 19.935027 0.838180
0.119850 19.748324 0.051011
0.115968 19.933034 0.490975
-0.030059 19.842358 0.248817
0.068500 19.895807 0.550640
0.048545 19.886244 0.549619
-0.064540 19.938336 0.818675
0.038629 19.883548 0.549317
-0.059781 19.865974 0.370347
0.028729 19.880856 0.549016
0.018774 19.853846 0.360071
0.134739 19.896854 0.180135
0.094695 19.884676 0.338524
0.015557 19.877274 0.548615
0.038857 19.909609 0.751136
-0.141006 19.641770 0.049989
0.038203 19.834665 0.170757
-0.010728 19.875771 0.548382
-0.050307 19.886494 0.549332
-0.111564 19.946551 0.558510
0.018692 19.826939 0.151380
-0.098796 19.893735 0.370550
0.117258 19.975341 0.568920
0.109628 19.945353 0.565804
0.018852 19.879458 0.558717
-0.010735 19.877060 0.558374
-0.030505 19.882418 0.558863
-0.090709 19.918825 0.559096
-0.097558 19.925795 0.559786
0.048590 19.890135 0.579726
-0.084579 19.938351 0.704884
0.200976 19.779438 0.091138
-0.089600 19.879407 0.341372
-0.104434 19.932793 0.560479
0.100823 19.748322 0.111257
0.109738 19.949183 0.572919
-0.010740 19.877921 0.565040
-0.097613 19.927643 0.569973
0.048605 19.891434 0.589777
-0.030134 19.849111 0.301086
-0.010609 19.854001 0.379632
-0.112388 19.873850 0.180310
-0.010848 19.897818 0.719272
-0.000709 19.812732 0.132227
-0.123689 19.913139 0.339382
0.109848 19.953023 0.580049
0.127878 19.889998 0.180175
0.068563 19.899430 0.570872
0.088869 19.918347 0.562953
0.050117 19.748318 0.051109
-0.122246 19.874704 0.140921
0.008988 19.902725 0.759846
0.018856 19.880749 0.568727
-0.030519 19.883712 0.568877
-0.103148 19.892462 0.338586
-0.123620 19.911307 0.329358
0.109958 19.956870 0.587194
-0.029316 19.511299 0.049990
0.088939 19.921405 0.579933
0.008989 19.905341 0.780155
0.079868 19.912350 0.580032
-0.040520 19.892892 0.619344
0.058540 19.893159 0.580089
0.090219 19.835312 0.131721
0.035357 19.886532 0.579289
0.088897 19.919569 0.569741
0.008988 19.904032 0.769997
0.018860 19.882040 0.578744
-0.010749 19.879642 0.578382
0.075248 19.902681 0.551351
-0.109723 19.892066 0.298973
0.150564 19.961190 0.280935
-0.050372 19.890387 0.579415
-0.049811 19.856934 0.320903
-0.070412 19.902324 0.580645
0.083255 19.968155 0.817951
-0.032176 19.748310 0.111368
0.110068 19.960727 0.594355
0.088981 19.923243 0.590134
-0.057070 19.896088 0.609753
-0.037152 19.887663 0.585758
-0.030163 19.851651 0.320739
-0.104612 19.938366 0.591134
-0.120850 19.753304 0.120812
0.038641 19.884842 0.559336
-0.032176 19.748310 0.079713
0.129365 19.748325 0.098552
0.110179 19.964592 0.601531
0.058563 19.894713 0.590178
0.028596 19.858192 0.373372
-0.070115 19.748307 0.070263
0.039778 19.889174 0.590594
-0.020614 19.879738 0.558618
-0.049506 19.838765 0.180498
0.149264 19.928655 0.223390
0.059410 19.953406 0.929581
0.148604 19.753133 0.120616
0.028760 19.886028 0.589105
0.018864 19.883333 0.588769
-0.120053 19.996984 0.597566
-0.010756 19.880934 0.588397
-0.070115 19.748307 0.098742
0.069912 19.977714 0.941408
-0.060359 19.895372 0.589835
-0.070453 19.904148 0.590779
-0.072316 19.842358 0.160962
0.083378 19.973978 0.829108
-0.079501 19.913171 0.590646
-0.104656 19.939749 0.597975
-0.000805 19.849571 0.359845
0.060436 19.801451 0.125976
0.095871 19.932076 0.601165
-0.111762 19.952414 0.569173
0.089023 19.925082 0.600347
0.198646 19.631088 0.049989
-0.057095 19.897392 0.619822
0.058585 19.896269 0.600276
0.048620 19.892734 0.599835
-0.137357 19.923252 0.309816
-0.070115 19.748307 0.079756
0.038686 19.890027 0.599490
0.088285 19.892865 0.421484
-0.010763 19.882227 0.598419
-0.070115 19.748307 0.111399
0.069812 19.971882 0.930062
-0.020657 19.884912 0.598691
-0.070494 19.905974 0.600922
-0.060633 19.748308 0.089239
-0.077281 19.912895 0.601689
0.069025 19.926230 0.720527
-0.081718 19.913445 0.579601
-0.041228 19.943502 0.980496
-0.040141 19.865781 0.409683
0.089065 19.926924 0.610569
-0.077311 19.914118 0.608471
0.048247 19.860526 0.350602
0.101188 19.880707 0.279071
0.059621 19.748319 0.098618
0.069057 19.928073 0.730814
-0.010616 19.855274 0.389500
-0.020732 19.894003 0.669106
-0.112627 19.978040 0.615778
0.067691 19.848859 0.219581
-0.000803 19.848725 0.353283
0.061946 19.899810 0.610628
-0.017084 19.846869 0.310810
0.028608 19.860318 0.389844
0.048635 19.894035 0.609902
0.088395 19.897690 0.448272
0.062104 19.910117 0.668298
-0.137210 19.919682 0.299732
-0.010770 19.883521 0.608450
0.049020 19.927382 0.840744
0.061974 19.901624 0.620780
0.048650 19.895336 0.619975
-0.143792 19.918436 0.249845
-0.070115 19.748307 0.060771
0.057583 19.826777 0.131911
0.038709 19.892625 0.619611
0.062085 19.908902 0.661496
0.088368 19.896482 0.441568
0.022176 19.888116 0.619007
0.083501 19.979819 0.840298
-0.143512 19.911935 0.219902
0.015576 19.886316 0.618766
0.048262 19.861803 0.360483
-0.010777 19.884816 0.618487
-0.023981 19.888401 0.618867
-0.091020 19.929899 0.620264
0.047964 19.836023 0.160991
0.028806 19.893816 0.649461
-0.020743 19.895305 0.679195
-0.030125 19.848266 0.294541
-0.220412 19.517310 0.049990
0.101766 19.902376 0.398908
-0.105154 19.955365 0.626604
-0.112896 19.986000 0.630254
0.095994 19.937010 0.628507
0.089150 19.930612 0.631047
0.075516 19.916667 0.629294
-0.139948 19.985939 0.420153
0.048999 19.925540 0.830402
0.119088 19.633590 0.049989
-0.017382 19.887472 0.625376
0.035739 19.935579 0.959216
-0.091072 19.931752 0.630495
0.028829 19.897723 0.679741
0.057955 19.852564 0.268601
-0.097947 19.938775 0.631326
0.048665 19.896639 0.630056
-0.089567 19.878208 0.334750
0.015579 19.887612 0.628818
0.048277 19.863081 0.370372
-0.017309 19.877554 0.548540
0.128002 19.893611 0.200001
0.068625 19.903060 0.591145
-0.041737 19.753253 0.120754
0.103348 19.961615 0.648369
0.068531 19.897618 0.560750
0.074578 19.867628 0.350947
0.089192 19.932459 0.641303
0.077613 19.855314 0.249048
0.068772 19.911561 0.638614
0.058676 19.902508 0.640758
-0.020293 19.840998 0.258562
0.048680 19.897943 0.640144
0.135398 19.915066 0.279876
0.008985 19.887107 0.638624
0.008982 19.875485 0.548415
-0.101343 19.904923 0.419662
-0.101111 19.933000 0.580539
-0.069685 19.869917 0.380363
-0.060513 19.903188 0.640372
-0.152793 19.515185 0.049990
-0.091124 19.933606 0.640739
0.057937 19.851294 0.258780
0.138047 19.988276 0.434423
0.074697 19.873851 0.390666
0.089235 19.934309 0.651568
0.008985 19.887971 0.645330
-0.096842 19.901945 0.428308
0.048575 19.888837 0.569683
-0.070549 19.908411 0.614464
-0.077490 19.921474 0.649260
0.108267 19.897763 0.335749
0.100949 19.871757 0.229575
-0.091176 19.935463 0.650992
0.047949 19.834765 0.151256
0.028813 19.895117 0.659547
0.111184 19.999755 0.666827
-0.039728 19.836148 0.180511
-0.133147 19.984958 0.470901
-0.020412 19.855371 0.369886
0.095948 19.935158 0.618244
-0.050460 19.895591 0.619631
0.148961 19.921085 0.210003
-0.049718 19.851421 0.278299
0.028981 19.923554 0.879930
0.110623 19.980135 0.630394
0.088841 19.917125 0.556170
-0.059655 19.859582 0.320985
-0.099067 19.976085 0.716966
0.089263 19.935542 0.658418
0.058699 19.904071 0.650901
0.048695 19.899247 0.650240
0.082216 19.918728 0.602931
-0.097724 19.931345 0.590381
-0.069713 19.871201 0.390272
-0.059416 19.903457 0.649239
0.122520 19.928695 0.430504
0.095917 19.933924 0.611409
-0.050482 19.896894 0.629704
-0.049747 19.853116 0.291393
-0.063933 19.908812 0.654331
0.099261 19.933736 0.591331
-0.050438 19.894289 0.609566
-0.131978 19.955312 0.418285
0.041970 19.888333 0.579508
0.082435 19.929150 0.660903
-0.109418 19.883031 0.249358
0.055358 19.902369 0.660610
0.048710 19.900553 0.660343
-0.101532 19.841801 0.131712
0.148277 19.903963 0.143594
-0.060328 19.893813 0.579754
-0.004203 19.888210 0.658502
0.187433 19.765890 0.050136
-0.000899 19.885462 0.638378
0.089327 19.843495 0.140251
-0.057202 19.903122 0.660243
-0.063958 19.910032 0.661124
0.118381 19.903249 0.309443
-0.077535 19.923318 0.659485
-0.091229 19.937322 0.661257
0.062900 19.961954 0.958321
0.028775 19.888620 0.609194
0.103763 19.977131 0.677409
0.028965 19.920909 0.859437
0.089305 19.937395 0.668703
-0.140443 19.997940 0.441279
0.068866 19.917048 0.669251
0.035445 19.897796 0.666544
0.028737 19.882148 0.559027
-0.079038 19.985079 0.891146
-0.249603 19.827391 0.109455
-0.070769 19.918195 0.668819
-0.000785 19.841976 0.300904
-0.077580 19.925164 0.669719
-0.010869 19.901738 0.749655
0.089348 19.939249 0.678997
0.055377 19.903834 0.670748
-0.020328 19.845213 0.291209
0.048725 19.901860 0.670455
0.090526 19.990659 0.808292
0.082280 19.921787 0.619946
0.047923 19.832453 0.141548
0.028821 19.896420 0.669640
0.062852 19.958826 0.940818
-0.043909 19.899006 0.659757
-0.000909 19.889352 0.668565
0.075330 19.906926 0.575006
0.008978 19.855014 0.389520
-0.063996 19.911864 0.671323
-0.050504 19.898199 0.639784
-0.049654 19.847615 0.248882
-0.076310 19.873006 0.380513
-0.070522 19.907192 0.607690
0.103971 19.984940 0.692025
-0.105719 19.973099 0.659116
0.027949 19.748316 0.111318
0.062132 19.911942 0.678512
-0.097447 19.922104 0.539442
0.055402 19.905640 0.680941
0.200976 19.779438 0.078331
-0.089651 19.881207 0.351314
0.062689 19.948230 0.881538
-0.105909 19.979048 0.670023
0.048740 19.903167 0.680573
0.090616 19.994588 0.815762
-0.000913 19.890650 0.678642
-0.060735 19.753265 0.120768
0.128751 19.915448 0.319819
0.038280 19.843489 0.239091
-0.010820 19.892606 0.678868
-0.030678 19.898009 0.679523
0.000205 19.883110 0.620520
0.087223 19.846528 0.160858
-0.057270 19.906774 0.680610
-0.165250 19.950354 0.149712
0.028745 19.883440 0.569045
-0.078893 19.979107 0.879846
-0.020635 19.882323 0.578640
-0.049548 19.841289 0.200000
0.062766 19.953209 0.909390
-0.095707 19.864092 0.219639
-0.249603 19.827391 0.099753
-0.070810 19.920036 0.679045
0.008992 19.922004 0.909488
-0.000782 19.840714 0.291106
-0.077625 19.927011 0.679965
0.035749 19.936928 0.969543
-0.106290 19.991007 0.691950
-0.080858 19.923119 0.639470
0.040193 19.934933 0.930124
-0.123551 19.909476 0.319346
0.100996 19.873543 0.239455
-0.043896 19.898136 0.653029
0.104076 19.988857 0.699356
0.089391 19.941105 0.689303
0.075727 19.927690 0.690729
-0.010588 19.850187 0.350072
0.027977 19.753208 0.120704
0.062160 19.913770 0.688734
-0.100824 19.923749 0.529602
-0.001994 19.884362 0.629449
0.087194 19.845262 0.151090
-0.057293 19.907992 0.687409
-0.070628 19.639554 0.049989
0.075075 19.893620 0.500851
0.028752 19.884734 0.579071
-0.020646 19.883617 0.588662
-0.049569 19.842552 0.209762
0.056022 19.951727 0.939297
-0.249603 19.827391 0.090052
-0.070851 19.921878 0.689280
-0.000779 19.839452 0.281314
-0.106418 19.995010 0.699291
0.123750 19.966682 0.500517
-0.097780 19.933199 0.600602
-0.069742 19.872486 0.400187
0.134282 19.884211 0.137321
0.081415 19.880637 0.391050
-0.063808 19.902723 0.620437
0.122694 19.934058 0.440893
-0.201455 19.779257 0.110689
0.096578 19.960574 0.698763
0.089433 19.942963 0.699618
0.055426 19.907461 0.691147
-0.220731 19.782038 0.049989
0.048756 19.904476 0.690699
-0.000916 19.891950 0.688728
0.128814 19.917280 0.329871
-0.010827 19.893907 0.688958
0.123562 19.960882 0.489917
0.087252 19.847796 0.170632
-0.060482 19.901622 0.630247
0.048771 19.905786 0.700833
0.068993 19.924390 0.710250
0.038800 19.903057 0.700398
-0.042170 19.931428 0.902160
0.008982 19.874199 0.538429
0.038922 19.917064 0.808868
0.018840 19.875592 0.528733
-0.000920 19.893250 0.698820
-0.060633 19.748308 0.098733
0.128626 19.911789 0.299745
-0.070727 19.916356 0.658604
-0.109115 19.874042 0.200001
-0.010834 19.895210 0.699055
-0.120386 19.913343 0.359307
0.008984 19.884518 0.618526
0.008983 19.877632 0.565075
-0.103496 19.903369 0.398598
-0.024077 19.898815 0.699510
-0.090771 19.843963 0.140341
-0.050635 19.906045 0.700423
-0.158238 19.943540 0.189961
0.110791 19.985999 0.641284
-0.061844 19.914651 0.699387
0.165608 19.996459 0.237466
-0.070893 19.923723 0.699527
0.082319 19.923625 0.630169
-0.079992 19.932845 0.699667
0.018868 19.884626 0.598801
0.048232 19.859250 0.340728
-0.136604 19.905022 0.219864
-0.000553 19.753226 0.120724
0.089476 19.944824 0.709946
0.048560 19.887540 0.559647
0.123126 19.947418 0.465310
-0.017459 19.897882 0.706021
0.103091 19.951988 0.630348
0.235332 19.813805 0.070587
-0.064135 19.918598 0.708807
0.214633 19.793099 0.081040
-0.091473 19.946023 0.709300
0.058108 19.863186 0.350731
0.058518 19.891617 0.570011
-0.116146 19.887449 0.236240
0.089518 19.946685 0.720283
-0.112762 19.982015 0.623008
-0.017376 19.886608 0.618677
0.048786 19.907096 0.710974
-0.010798 19.888706 0.648644
0.059433 19.879038 0.471024
0.124763 19.997945 0.557650
0.008982 19.872913 0.528451
-0.096897 19.903768 0.438359
0.020015 19.899365 0.710819
0.035598 19.917465 0.818902
0.008987 19.896201 0.709205
0.155283 19.912681 0.143450
-0.049875 19.860761 0.350478
-0.000923 19.894552 0.708920
-0.060633 19.748308 0.111392
0.128688 19.913617 0.309776
-0.109175 19.875836 0.209851
-0.010841 19.896513 0.709160
-0.123758 19.914973 0.349415
0.008984 19.885812 0.628571
-0.099019 19.901005 0.410599
-0.187938 19.765745 0.069731
-0.021881 19.899665 0.710671
-0.098041 19.941880 0.648437
-0.050657 19.907356 0.710557
-0.091571 19.949518 0.719864
-0.040757 19.909888 0.750787
-0.120657 19.748302 0.098790
0.038618 19.882255 0.539304
0.089549 19.948003 0.727192
-0.098829 19.968168 0.702336
0.055492 19.912325 0.718413
-0.010805 19.890005 0.658711
0.058348 19.879886 0.479868
-0.030664 19.896704 0.669427
-0.000954 19.906308 0.800158
0.008982 19.876773 0.558409
-0.096952 19.905593 0.448419
0.082552 19.934693 0.691732
0.028859 19.902946 0.720219
0.095688 19.924700 0.560295
0.018916 19.900223 0.719768
0.008987 19.897503 0.719318
-0.049854 19.859485 0.340612
-0.040683 19.904641 0.710207
-0.060266 19.890700 0.559620
-0.119910 19.992976 0.590335
-0.000926 19.895854 0.719027
0.235332 19.813805 0.060881
-0.064172 19.920440 0.719055
0.018451 19.748315 0.111325
0.115791 19.927234 0.460447
-0.070976 19.927417 0.720053
-0.000971 19.912874 0.851112
0.067756 19.852667 0.249007
0.035364 19.887396 0.585981
-0.043599 19.878240 0.499206
0.028783 19.889918 0.619249
-0.055977 19.837569 0.157761
-0.079281 19.995072 0.910058
0.078991 19.923820 0.650188
-0.077805 19.934422 0.721055
-0.070330 19.898682 0.560410
0.027949 19.748316 0.098649
0.058842 19.913964 0.708696
0.111072 19.995814 0.659509
0.097108 19.981929 0.739045
-0.072248 19.984096 0.941804
0.089637 19.951838 0.734485
0.075856 19.934460 0.728463
0.102938 19.946236 0.619580
-0.057429 19.915324 0.728299
0.235332 19.813805 0.054410
-0.064210 19.922282 0.729313
-0.077850 19.936279 0.731354
0.238651 19.767592 0.049989
-0.091737 19.955392 0.730804
-0.040812 19.913833 0.781301
0.108597 19.909279 0.399312
-0.060058 19.880121 0.479588
0.042163 19.908333 0.734357
0.158008 19.977761 0.257598
0.018920 19.901529 0.729898
-0.098475 19.956359 0.680512
0.095189 19.904573 0.448776
-0.040702 19.905951 0.720340
-0.000930 19.897158 0.729142
-0.023897 19.879339 0.548698
-0.089130 19.862697 0.249079
0.170723 19.750390 0.050848
-0.010855 19.899124 0.729392
-0.117208 19.917213 0.399359
0.187433 19.765890 0.069268
0.107769 19.880331 0.239534
-0.000866 19.872987 0.541565
0.008984 19.883225 0.608488
0.124635 19.994007 0.550454
-0.103437 19.901546 0.388570
-0.020797 19.901833 0.729755
-0.057407 19.914100 0.721472
0.114881 19.897385 0.296013
0.150179 19.951558 0.263898
-0.129223 19.885458 0.150616
-0.039610 19.906815 0.729314
-0.180841 19.809261 0.125971
0.008976 19.846133 0.320589
0.047978 19.837282 0.170732
0.028798 19.892516 0.639383
-0.077880 19.937519 0.738226
0.207790 19.786254 0.058828
0.141558 19.901918 0.170157
0.037724 19.906536 0.729639
-0.057046 19.894786 0.599690
-0.020160 19.824970 0.141712
0.008974 19.838558 0.261788
-0.091902 19.961283 0.741777
0.008979 19.858834 0.419169
-0.150032 19.909703 0.170169
-0.072523 19.851224 0.229354
0.097302 19.989758 0.753814
0.089108 19.928767 0.620804
0.075915 19.937546 0.745662
-0.122597 19.884047 0.180254
0.008991 19.915846 0.861696
0.042070 19.898739 0.660077
-0.000540 19.748313 0.070178
-0.037744 19.933219 0.938172
0.088562 19.904953 0.488594
0.018956 19.913327 0.821404
0.095506 19.917354 0.519595
0.082513 19.932843 0.681445
0.028883 19.906874 0.750657
0.199315 20.121659 0.125966
0.095734 19.926541 0.570496
-0.122647 19.641192 0.049989
-0.119341 19.977033 0.561569
-0.072405 19.846152 0.190230
-0.017678 19.927716 0.937154
0.075692 19.925848 0.680463
0.120309 19.860439 0.131204
-0.010948 19.916185 0.861642
0.150026 19.947720 0.257111
0.062948 19.965083 0.969108
0.102731 19.938479 0.598566
-0.050525 19.899504 0.649872
0.200976 19.779438 0.110349
-0.049591 19.843816 0.219532
-0.057372 19.912266 0.711241
0.165436 19.992523 0.230620
0.008983 19.880641 0.588434
-0.050133 19.876155 0.469437
0.028973 19.922231 0.869679
-0.010884 19.904356 0.769948
0.018974 19.919476 0.869096
-0.115975 19.882638 0.209870
0.008991 19.916725 0.868513
0.018966 19.916838 0.848636
0.095460 19.915523 0.509445
0.082474 19.930996 0.671168
-0.083566 19.899706 0.491024
0.028875 19.905563 0.740503
0.095764 19.927769 0.577303
0.058071 19.860631 0.330974
-0.113301 19.998003 0.652089
-0.037276 19.897202 0.659547
0.037448 19.748316 0.060629
-0.030951 19.922539 0.869380
0.078770 19.912821 0.588945
-0.050723 19.911296 0.741001
-0.065420 19.981125 0.988618
-0.060174 19.942753 0.868582
0.028631 19.864150 0.419545
-0.111184 19.748303 0.051335
-0.116103 19.886245 0.229641
0.058881 19.508528 0.049990
-0.011030 19.931196 0.977993
0.062632 19.944506 0.860699
0.055880 19.941174 0.880142
0.008989 19.906651 0.790321
-0.041663 19.748309 0.051238
0.008991 19.917604 0.875334
-0.070115 19.748307 0.051278
0.038697 19.891325 0.609547
-0.157148 19.920334 0.150134
0.069397 19.947844 0.841218
-0.057937 19.942472 0.879704
-0.021001 19.926420 0.920190
-0.064771 19.949539 0.881019
0.069548 19.956564 0.889910
-0.040411 19.885103 0.559107
0.081807 19.899277 0.494732
-0.030562 19.887600 0.598963
-0.010891 19.905666 0.780105
0.018978 19.920796 0.879337
0.121886 19.909127 0.322918
0.075821 19.932611 0.718157
0.028852 19.901639 0.710088
-0.090750 19.806006 0.125980
-0.010963 19.918825 0.882102
-0.041570 19.889436 0.590337
0.037448 19.748316 0.070132
-0.030966 19.923863 0.879626
0.028623 19.862872 0.409638
-0.111184 19.748303 0.079803
-0.116039 19.884441 0.219751
0.076891 19.988538 0.909737
-0.057971 19.944339 0.890113
0.096040 19.938864 0.638780
-0.050613 19.904735 0.690298
-0.110153 19.904794 0.368867
0.055780 19.933763 0.838597
0.042269 19.919300 0.819261
0.058256 19.873444 0.430053
-0.124287 19.929058 0.423354
-0.083933 19.913716 0.568556
0.008903 19.510097 0.049990
0.100663 19.861077 0.170516
-0.090968 19.928049 0.610042
0.060231 19.933099 0.809529
-0.044356 19.929042 0.880544
-0.043004 19.838280 0.190249
0.048872 19.914541 0.768585
0.069569 19.957813 0.896885
0.048957 19.921864 0.809753
0.108026 19.889326 0.289180
-0.000984 19.917705 0.888599
-0.041076 19.511672 0.049990
0.028844 19.900333 0.699965
0.079201 19.934270 0.708379
-0.010967 19.919706 0.888929
0.097205 19.985839 0.746421
0.100364 19.933260 0.582363
-0.000540 19.748313 0.060679
-0.037762 19.934560 0.948477
-0.050547 19.900810 0.659967
0.038991 19.924998 0.870265
0.058237 19.872158 0.420112
-0.040556 19.895496 0.639483
-0.050679 19.908668 0.720697
-0.030981 19.925188 0.889879
0.087533 19.860049 0.239297
-0.219974 20.134400 0.125975
0.055541 19.915981 0.738912
-0.101917 19.923271 0.520676
-0.064809 19.951414 0.891449
0.062301 19.922934 0.740010
-0.040393 19.883808 0.549094
-0.071618 19.956007 0.878860
-0.089702 19.883008 0.361265
0.062708 19.949473 0.888493
0.148403 19.748326 0.111217
0.208131 19.792030 0.119652
0.028722 19.879565 0.539012
-0.079184 19.991068 0.902480
0.028790 19.891216 0.629312
0.069591 19.959063 0.903866
0.038980 19.923668 0.860012
0.015473 19.837366 0.239013
-0.040538 19.894194 0.629410
-0.113098 19.991992 0.641155
0.083830 19.995491 0.870323
-0.020990 19.925094 0.909920
-0.071660 19.957888 0.889306
0.200976 19.779438 0.100744
-0.089752 19.884812 0.371227
0.062737 19.951340 0.898937
0.148403 19.748326 0.098534
0.028717 19.878705 0.532347
-0.084320 19.928455 0.650124
0.055930 19.944891 0.900980
-0.010449 19.824560 0.151427
-0.051191 19.939155 0.899180
0.094650 19.882878 0.328562
-0.058006 19.946207 0.900532
-0.020711 19.891400 0.648950
0.055566 19.917812 0.749178
0.069483 19.952821 0.869012
0.088078 19.883853 0.371455
-0.180785 19.643020 0.049989
-0.064848 19.953290 0.901889
0.062329 19.924773 0.750297
-0.137676 19.930967 0.323397
0.018743 19.843707 0.281429
-0.071575 19.954128 0.868424
0.054750 19.857195 0.311214
0.059771 19.901923 0.631852
-0.020282 19.839735 0.248784
0.075539 19.917888 0.636101
-0.131592 19.945539 0.400942
0.087492 19.858276 0.229457
-0.078603 19.967223 0.857362
0.015661 19.926491 0.930446
0.090168 19.975027 0.778576
0.078034 19.931664 0.700203
0.028867 19.904254 0.730358
-0.010975 19.921028 0.899177
0.102599 19.933540 0.571253
0.138259 19.506035 0.049990
-0.000540 19.748313 0.051180
-0.037784 19.936252 0.958864
-0.050569 19.902117 0.670070
0.038956 19.921023 0.839532
0.058219 19.870874 0.410179
0.018719 19.835722 0.219498
-0.084368 19.930306 0.660369
-0.010877 19.903046 0.759797
0.022299 19.919073 0.859054
0.070250 19.997299 0.979506
0.018924 19.902836 0.740035
0.095234 19.906394 0.458862
-0.071892 19.968225 0.911542
-0.037141 19.886799 0.579070
-0.010813 19.891305 0.668786
0.097670 19.871947 0.249293
-0.131305 19.882692 0.139692
0.097498 19.997622 0.768647
-0.021791 19.889245 0.629974
0.055516 19.914152 0.728657
-0.104021 19.919858 0.489322
0.018451 19.748315 0.079656
-0.079379 19.999086 0.917653
0.063036 19.970834 0.980483
-0.000771 19.836512 0.258497
0.048801 19.908407 0.721123
-0.039798 19.841192 0.219519
0.096203 19.945469 0.669801
0.038945 19.919702 0.829302
0.055008 19.876412 0.459845
0.008992 19.918483 0.882158
-0.024267 19.919391 0.858839
0.082011 19.908976 0.548682
-0.040501 19.891591 0.609287
0.037888 19.925981 0.879340
0.119850 19.748324 0.098561
0.048914 19.918195 0.789147
0.055955 19.946753 0.911415
-0.050798 19.915727 0.768270
0.068961 19.922552 0.699985
0.038811 19.904365 0.710531
-0.030936 19.921216 0.859142
0.049163 19.939705 0.909960
-0.040429 19.886399 0.569128
0.097400 19.993686 0.761222
0.131481 19.995072 0.499525
0.029482 19.509452 0.049990
-0.091316 19.940425 0.678387
0.058163 19.867026 0.380422
-0.010982 19.922351 0.909431
-0.041069 19.932139 0.911212
0.008981 19.870345 0.508515
0.088520 19.903134 0.478498
-0.010467 19.827899 0.177311
-0.051222 19.941018 0.909590
0.048306 19.865639 0.390170
0.096858 19.883155 0.317585
0.028836 19.899027 0.689849
0.158746 19.995395 0.288526
0.075892 19.936311 0.738778
-0.108873 19.866885 0.160697
0.083913 19.999431 0.877870
0.124254 19.982245 0.528959
-0.096642 19.895276 0.391546
0.077004 19.994428 0.921108
-0.071981 19.972180 0.919082
-0.110773 19.923139 0.469604
-0.085518 19.974132 0.818067
-0.149922 19.907266 0.156941
-0.071339 19.846985 0.198914
0.076518 19.969048 0.872108
-0.084078 19.919228 0.599065
0.069980 19.981613 0.948995
-0.010462 19.827063 0.170835
-0.051254 19.942883 0.920010
0.048292 19.864359 0.380267
0.097946 19.882693 0.308781
0.131279 19.989177 0.488838
-0.061344 19.889658 0.550714
-0.129294 19.887263 0.160473
-0.037412 19.907668 0.740506
-0.130128 19.748301 0.070337
-0.119767 19.988978 0.583120
-0.085414 19.970173 0.810635
-0.050351 19.889089 0.569380
-0.049789 19.855661 0.311059
0.148403 19.748326 0.079509
-0.158788 19.955259 0.210072
0.049270 19.949004 0.962189
-0.150990 19.930945 0.220010
0.116258 19.942560 0.508529
0.018952 19.912012 0.811207
0.059586 19.889391 0.551069
-0.040957 19.924193 0.859640
-0.039963 19.932616 0.920220
0.068930 19.920715 0.689729
0.038777 19.900443 0.680156
0.008981 19.871629 0.518479
0.088479 19.901318 0.468412
0.015641 19.917239 0.858671
-0.051004 19.928019 0.836953
-0.078316 19.955418 0.835027
-0.010632 19.858248 0.412553
-0.063733 19.899079 0.600157
0.081579 19.888430 0.434395
0.062273 19.921097 0.729733
0.019007 19.930067 0.951242
-0.106099 19.985019 0.680970
0.056098 19.957339 0.970756
-0.091319 19.862967 0.238174
-0.078700 19.971176 0.864840
0.037939 19.931979 0.920590
-0.124034 19.922330 0.389655
0.075306 19.905712 0.568242
-0.050416 19.892987 0.599508
-0.064034 19.913698 0.681531
-0.097985 19.940016 0.638166
0.096867 19.972191 0.720677
-0.069541 19.863511 0.330931
0.049285 19.950247 0.969174
-0.051108 19.934197 0.871475
0.249276 19.827754 0.053798
0.068740 19.909736 0.628422
-0.098593 19.960287 0.687770
0.102058 19.913312 0.459388
0.048203 19.856701 0.321002
0.075621 19.922169 0.659964
-0.071017 19.929267 0.730331
-0.077760 19.932566 0.710766
-0.236776 19.828410 0.125593
-0.010905 19.908290 0.800443
0.017896 19.930940 0.960326
0.138883 19.748326 0.089031
-0.031109 19.936710 0.979069
-0.037800 19.937492 0.965818
0.088451 19.900108 0.461694
-0.161687 19.748299 0.051406
0.029056 19.936390 0.979415
0.028471 19.837080 0.209754
0.082695 19.941490 0.729545
-0.120657 19.748302 0.070325
0.069739 19.841710 0.159833
0.100806 19.866409 0.200001
-0.071379 19.945386 0.819871
-0.065339 19.977151 0.980981
0.008983 19.879351 0.578418
-0.050155 19.877444 0.479397
-0.051400 19.951613 0.968784
0.080093 19.923347 0.641240
0.027949 19.748316 0.079645
0.088326 19.894673 0.431521
0.148403 19.748326 0.050971
0.028767 19.887324 0.599145
-0.089181 19.864480 0.258925
-0.021063 19.933952 0.978531
0.062414 19.930300 0.781224
-0.020668 19.886207 0.608728
0.063096 19.974718 0.988097
-0.215077 19.792875 0.091127
0.049184 19.941561 0.920383
0.028914 19.912124 0.791348
0.238425 19.629838 0.049989
-0.017603 19.917568 0.858537
0.008992 19.920682 0.899233
0.047122 19.508897 0.049990
-0.000798 19.847036 0.340169
0.000149 19.907417 0.809199
-0.077400 19.917792 0.628844
-0.152222 19.748300 0.070364
0.157924 19.748327 0.098525
-0.010958 19.917945 0.875279
-0.116361 19.893482 0.269305
-0.092795 19.993038 0.800929
-0.020582 19.875868 0.528642
0.020116 19.929195 0.942162
-0.059731 19.863414 0.350580
-0.020625 19.881030 0.568626
-0.011011 19.927652 0.950527
0.108336 19.900181 0.349096
0.062461 19.933379 0.798446
-0.001011 19.928290 0.970749
0.028926 19.914316 0.808338
-0.151778 19.948426 0.250267
0.058498 19.890244 0.559958
0.102549 19.931692 0.561031
-0.041104 19.934707 0.928435
0.039872 19.899585 0.671215
0.088604 19.906773 0.498701
0.075283 19.904499 0.561482
-0.050394 19.891687 0.589458
0.221504 19.799972 0.090457
-0.049825 19.857784 0.327469
-0.060687 19.912067 0.691277
-0.104842 19.945590 0.608683
0.097011 19.978027 0.731685
-0.069569 19.864790 0.340803
0.049306 19.952114 0.979661
-0.051077 19.932341 0.861106
-0.098711 19.964223 0.695045
0.098693 19.911679 0.469230
0.048213 19.857550 0.327574
0.148325 19.905177 0.150213
-0.060297 19.892256 0.569683
0.035519 19.907385 0.740816
0.056123 19.959214 0.981265
0.149873 19.943890 0.250337
-0.000978 19.915508 0.871547
-0.010533 19.840058 0.271563
-0.037664 19.927018 0.890196
-0.001001 19.924313 0.939885
0.018892 19.892407 0.659149
0.119850 19.748324 0.111241
0.048935 19.920029 0.799445
0.018900 19.895008 0.679325
-0.057774 19.933789 0.831277
-0.077058 19.903749 0.550978
-0.000974 19.914190 0.861325
0.059621 19.748318 0.051096
0.028476 19.837920 0.216260
0.018809 19.865325 0.449099
0.038439 19.861699 0.380112
-0.065216 19.971206 0.969560
0.082088 19.912626 0.568990
-0.139619 19.977981 0.406146
-0.061110 19.933588 0.811183
0.015598 19.896708 0.699387
-0.096353 19.885621 0.338323
0.018896 19.893707 0.669234
-0.030116 19.847421 0.287999
-0.119321 19.884246 0.199997
0.008990 19.913214 0.841265
0.055159 19.887613 0.546477
0.020071 19.915972 0.839615
0.038743 19.896530 0.649851
0.069269 19.940404 0.799672
-0.041993 19.919118 0.819872
-0.001918 19.858661 0.430039
0.130146 19.956138 0.428945
-0.071547 19.952877 0.861473
-0.056723 19.877508 0.466238
0.020128 19.932738 0.969638
-0.000943 19.902381 0.769677
-0.030534 19.885007 0.578898
0.070182 19.993364 0.971853
-0.010540 19.841321 0.281351
-0.037647 19.925691 0.879938
-0.001004 19.925638 0.950165
0.150796 19.966993 0.291198
0.059258 19.942843 0.870427
-0.020571 19.874579 0.518664
0.094964 19.895501 0.398506
-0.069965 19.882385 0.469872
-0.102174 19.861923 0.170563
-0.020946 19.919801 0.868919
-0.000768 19.835253 0.248729
0.069248 19.939167 0.792764
0.096086 19.940720 0.649064
0.118346 19.799827 0.125971
-0.050591 19.903426 0.680180
0.162364 19.922329 0.136620
-0.109969 19.899328 0.338850
0.055805 19.935613 0.848968
0.113555 19.853898 0.131338
0.068688 19.906699 0.611461
-0.057464 19.917162 0.738549
0.115455 19.916210 0.399717
0.038968 19.922345 0.849768
0.058274 19.874731 0.440001
0.018722 19.836980 0.229257
-0.060633 19.748308 0.051264
-0.083885 19.911882 0.558409
0.144366 19.975656 0.359128
-0.211385 19.643980 0.049989
0.048857 19.913225 0.758401
0.082734 19.943349 0.739883
-0.120657 19.748302 0.079814
0.067582 19.842530 0.170682
0.094119 19.861450 0.209829
-0.071337 19.943518 0.809498
-0.000903 19.886758 0.648433
-0.057236 19.904947 0.670422
0.221504 19.799972 0.109789
0.042470 19.940091 0.950183
-0.062913 19.859188 0.311159
0.088813 19.915904 0.549391
-0.057832 19.936885 0.848546
-0.030106 19.846576 0.281461
0.103867 19.981032 0.684709
0.059621 19.748318 0.079609
-0.031010 19.927840 0.910410
-0.039467 19.896354 0.648410
0.104233 19.994750 0.710386
-0.126050 19.976026 0.507398
-0.050701 19.909982 0.730846
0.135747 19.924721 0.320143
0.037448 19.748316 0.051127
-0.030995 19.926513 0.900141
0.077671 19.913289 0.597858
0.049256 19.947761 0.955209
0.154482 19.893530 0.130525
0.028942 19.916950 0.828754
-0.010941 19.914867 0.851423
-0.030548 19.886303 0.588927
0.070115 19.989438 0.964217
-0.050329 19.887791 0.559352
0.002391 19.887899 0.658488
0.221504 19.799972 0.100123
0.042452 19.938237 0.939748
-0.058170 19.954955 0.949301
0.008984 19.881932 0.598457
0.028405 19.825861 0.138429
0.124508 19.990078 0.543273
-0.103379 19.899726 0.378553
-0.187938 19.765745 0.060199
-0.020786 19.900526 0.719628
0.062244 19.919263 0.719468
-0.070934 19.925569 0.709784
0.070616 19.830178 0.131836
-0.000967 19.911559 0.840906
-0.051337 19.947866 0.947851
-0.044384 19.930894 0.890914
0.057999 19.932816 0.820610
-0.049633 19.846348 0.239092
-0.051129 19.935435 0.878394
0.117795 19.992945 0.601350
0.068719 19.908520 0.621634
0.102010 19.911485 0.449281
0.048188 19.855428 0.311151
0.158335 19.985576 0.271305
0.075656 19.924007 0.670208
0.157924 19.748327 0.050958
-0.010927 19.912233 0.831009
-0.044541 19.941428 0.949887
-0.069887 19.878939 0.449877
-0.030490 19.881125 0.548856
-0.051046 19.930487 0.850747
-0.152222 19.748300 0.079849
0.157924 19.748327 0.089011
-0.010953 19.917065 0.868459
-0.061448 19.639266 0.049989
-0.020593 19.877157 0.538626
-0.059756 19.864694 0.360460
-0.065029 19.962071 0.950756
-0.215077 19.792875 0.078318
0.049242 19.946519 0.948234
0.028906 19.910810 0.781163
-0.152043 19.954293 0.260422
-0.092570 19.985048 0.786043
-0.020924 19.917160 0.848464
-0.059472 19.850248 0.248915
0.088142 19.748321 0.111267
-0.078796 19.975137 0.872335
0.135464 19.916898 0.289906
-0.099425 19.988025 0.739033
-0.000852 19.867424 0.498391
0.083174 19.964285 0.810535
0.041782 19.868986 0.429724
-0.051316 19.946618 0.940883
0.048321 19.866920 0.400080
-0.096119 19.877816 0.295294
0.229397 19.503167 0.049990
0.101236 19.882502 0.289000
-0.000879 19.877708 0.578205
0.055615 19.921481 0.769741
0.069515 19.954692 0.879456
-0.150209 19.913633 0.190045
-0.024352 19.928663 0.930635
0.187433 19.765890 0.059702
0.158171 19.981664 0.264444
0.019018 19.933612 0.978734
-0.058030 19.947455 0.907484
0.018813 19.866605 0.459027
0.061319 19.858964 0.311278
-0.000774 19.837771 0.268271
0.048816 19.909720 0.731280
-0.039816 19.842455 0.229288
0.008972 19.827674 0.177308
-0.085674 19.980087 0.829248
-0.158421 19.947438 0.196650
0.049227 19.945278 0.941264
0.028898 19.909497 0.770987
-0.069924 19.880583 0.459863
0.028464 19.835822 0.200000
-0.130299 19.912737 0.299541
0.082656 19.939634 0.719218
-0.120657 19.748302 0.060837
-0.071253 19.939789 0.788784
-0.010744 19.878781 0.571709
-0.059274 19.840124 0.170737
-0.011004 19.926326 0.940242
-0.010651 19.861653 0.438949
-0.091421 19.944155 0.698985
0.108129 19.892937 0.309111
-0.000789 19.843240 0.310709
0.017850 19.914191 0.830415
-0.030433 19.875963 0.508905
-0.050921 19.923092 0.809422
0.055905 19.943032 0.890556
-0.091281 19.939183 0.671531
0.054887 19.867417 0.390279
-0.075740 19.849564 0.209780
-0.021056 19.933064 0.971654
-0.089074 19.748305 0.089269
0.171313 19.972078 0.142487
0.081227 19.871689 0.341276
-0.064990 19.960186 0.940265
0.145036 19.993266 0.390534
0.076407 19.963244 0.860901
0.038506 19.869379 0.439589
-0.051285 19.944749 0.930442
0.048331 19.867774 0.406691
0.099033 19.882231 0.299977
-0.000877 19.876849 0.571536
-0.091368 19.942289 0.688681
0.108078 19.891130 0.299141
-0.000981 19.916826 0.881776
0.008989 19.907962 0.800494
0.120741 19.873781 0.140807
-0.043753 19.888592 0.579243
0.008991 19.914530 0.851477
-0.050818 19.916952 0.775116
-0.050069 19.872294 0.439598
0.069141 19.932995 0.758300
-0.060340 19.839294 0.162076
-0.010996 19.925000 0.929964
-0.010672 19.865492 0.468706
-0.000776 19.838611 0.274791
-0.049208 19.638881 0.049989
-0.235711 19.813503 0.071158
0.151029 19.972817 0.301498
0.038394 19.856598 0.340608
-0.044494 19.938323 0.932505
-0.051160 19.937294 0.888782
0.101961 19.909659 0.439186
0.048174 19.854156 0.301306
-0.215077 19.792875 0.059106
0.049206 19.943419 0.930819
0.028921 19.913439 0.801539
0.108701 19.912932 0.419471
-0.062487 19.838475 0.151253
-0.010989 19.923675 0.919694
-0.063771 19.900900 0.610293
-0.010665 19.864211 0.458779
0.038291 19.844753 0.248881
-0.056916 19.887854 0.546151
-0.140195 19.991931 0.430700
-0.235711 19.813503 0.100148
0.144218 19.971765 0.352190
-0.077103 19.905574 0.561098
0.035438 19.896927 0.659812
-0.150186 19.642057 0.049989
0.069301 19.942261 0.810043
-0.044195 19.918258 0.808622
-0.061463 19.951622 0.911648
-0.078107 19.946845 0.789923
0.088037 19.882056 0.361479
0.069451 19.950954 0.858581
-0.010920 19.910918 0.820812
-0.119652 19.893288 0.249499
-0.086093 19.996060 0.859241
-0.023802 19.869040 0.468949
0.157358 19.962232 0.230360
-0.142223 19.807765 0.125977
-0.110092 19.902970 0.358851
0.055764 19.932531 0.831690
-0.071505 19.951001 0.851056
-0.000987 19.919024 0.898841
-0.040935 19.922633 0.849357
-0.040483 19.890292 0.599235
0.082049 19.910800 0.558831
-0.050777 19.914503 0.761428
0.038823 19.905675 0.720670
-0.030922 19.919894 0.848911
0.028957 19.919589 0.849201
0.069120 19.931763 0.751421
-0.051432 19.953490 0.979267
-0.070686 19.914520 0.648400
-0.102706 19.878623 0.262445
-0.050090 19.873580 0.449537
0.108753 19.914760 0.429566
-0.112493 19.974074 0.608564
0.062603 19.942646 0.850297
-0.119483 19.981006 0.568737
-0.078507 19.963279 0.849901
-0.000990 19.920345 0.909090
-0.040916 19.921310 0.839128
-0.070371 19.900502 0.570523
-0.191012 19.516386 0.049990
0.027949 19.748315 0.089147
0.059942 19.913494 0.699766
0.110959 19.991881 0.652206
0.048008 19.839803 0.190237
-0.132677 19.973041 0.449751
-0.050747 19.912726 0.751183
0.018730 19.839499 0.248798
0.068898 19.918881 0.679485
0.038788 19.901750 0.690274
-0.030907 19.918574 0.838688
-0.050264 19.883904 0.529314
0.157924 19.748327 0.060471
-0.010934 19.913550 0.841212
-0.077147 19.907401 0.571231
0.028952 19.918709 0.842382
-0.118149 19.943616 0.501285
-0.092048 19.640231 0.049989
-0.150115 19.911534 0.180103
-0.075719 19.848718 0.203259
-0.021045 19.931733 0.961346
-0.089074 19.748305 0.098760
0.081265 19.873475 0.351211
-0.064951 19.958303 0.929784
0.087996 19.880262 0.351515
0.069419 19.949087 0.848159
0.008987 19.898807 0.729439
-0.097171 19.912912 0.488768
0.163650 19.951711 0.159638
-0.138560 19.952362 0.361054
-0.089331 19.869839 0.288524
-0.020862 19.909699 0.790676
0.048515 19.883655 0.529584
0.123002 19.943590 0.458314
-0.050839 19.918178 0.781968
0.018948 19.910698 0.801016
-0.085001 19.954424 0.781071
-0.102745 19.879822 0.269042
-0.070659 19.913296 0.641603
0.038720 19.893926 0.629684
0.069333 19.944120 0.820423
-0.064745 19.948291 0.874073
-0.019795 19.914512 0.830260
-0.062695 19.848589 0.229334
-0.000964 19.910245 0.830708
0.041683 19.858756 0.350516
0.096340 19.950953 0.680609
-0.030809 19.909793 0.770730
0.076236 19.954305 0.839061
-0.097227 19.914747 0.498882
-0.089298 19.868646 0.281939
0.067734 19.851396 0.239191
-0.071463 19.949128 0.840650
0.141628 19.903736 0.180095
-0.030649 19.895401 0.659338
0.101476 19.891508 0.338804
-0.085831 19.986060 0.840462
-0.110462 19.913943 0.419104
-0.040629 19.900716 0.679851
0.008976 19.844869 0.310772
-0.071421 19.947256 0.830255
-0.010471 19.828735 0.183789
-0.000994 19.921667 0.919348
-0.040898 19.919988 0.828905
-0.020700 19.890101 0.638883
-0.030892 19.917254 0.828472
-0.062634 19.954264 0.920011
0.028947 19.917830 0.835567
-0.024174 19.909292 0.780636
-0.104080 19.921700 0.499456
-0.112160 19.964196 0.590600
0.242289 19.820765 0.054105
-0.024165 19.908417 0.773857
-0.136831 19.910505 0.249736
-0.058100 19.951201 0.928370
-0.064400 19.931527 0.780769
0.015600 19.897577 0.706128
-0.096407 19.887427 0.348279
0.117139 19.971453 0.561757
0.101396 19.888501 0.322174
0.110575 19.863730 0.140980
-0.000940 19.901074 0.759532
-0.011018 19.928981 0.960821
0.062546 19.938933 0.829524
0.038731 19.895227 0.639763
-0.164076 19.926332 0.136732
0.069365 19.945981 0.830816
-0.057740 19.931934 0.820931
-0.030092 19.845310 0.271660
-0.020754 19.896609 0.689292
-0.000961 19.908932 0.820516
0.089390 19.800639 0.125974
-0.030795 19.908480 0.760565
-0.104139 19.923544 0.509599
-0.111960 19.958295 0.579867
-0.058135 19.953077 0.938831
-0.140527 19.893648 0.141707
0.028934 19.915633 0.818543
0.008988 19.901418 0.749703
0.076200 19.952435 0.828639
0.058974 19.923129 0.760025
-0.097282 19.916583 0.509006
0.089946 19.965328 0.760137
-0.020338 19.846479 0.301018
0.074960 19.887605 0.467329
-0.037538 19.917316 0.815146
-0.020979 19.923769 0.899659
-0.000764 19.833995 0.238969
-0.078244 19.952464 0.821071
-0.030883 19.916374 0.821666
-0.057567 19.922687 0.769361
0.122401 19.925009 0.410240
0.103245 19.957757 0.641148
0.142899 19.937134 0.290429
0.068835 19.915217 0.659028
-0.072338 19.988085 0.949412
-0.065094 19.965278 0.958171
0.020051 19.909835 0.792022
0.082242 19.919951 0.609733
-0.071142 19.934830 0.761234
-0.085936 19.990053 0.847960
0.028699 19.875698 0.509046
-0.020529 19.869436 0.478829
0.157520 19.966102 0.237148
-0.010912 19.909603 0.810624
-0.122868 19.891275 0.219788
-0.122664 19.885851 0.190122
0.008990 19.909273 0.810676
-0.058275 19.960601 0.980780
0.008988 19.900112 0.739567
0.089813 19.959534 0.749118
0.076176 19.951189 0.821697
-0.097318 19.917808 0.515761
-0.020968 19.922445 0.889404
-0.000761 19.832738 0.229216
-0.078199 19.950589 0.810678
-0.037526 19.916437 0.808343
-0.106546 19.999022 0.706649
-0.010898 19.906978 0.790271
0.076141 19.949323 0.811295
-0.145469 19.957246 0.317588
0.039529 19.636089 0.049989
0.194190 19.772650 0.078583
-0.095867 19.869449 0.249172
-0.039717 19.914701 0.790310
0.108649 19.911104 0.409386
-0.145639 19.961174 0.324445
0.060949 19.635416 0.049989
0.008976 19.847400 0.330415
0.121572 19.899424 0.269571
0.068803 19.913388 0.648815
-0.072473 19.994087 0.960857
0.061773 19.888549 0.539988
-0.058240 19.958717 0.970276
0.022259 19.908985 0.780827
-0.084645 19.940834 0.718623
-0.020873 19.911013 0.800856
0.096435 19.954795 0.687858
0.142682 19.931428 0.280253
-0.020251 19.835953 0.219492
-0.167278 19.991868 0.220352
0.068116 19.873550 0.410360
-0.030824 19.911108 0.780902
0.135597 19.920567 0.310000
-0.020895 19.913645 0.821239
-0.059547 19.854060 0.278352
-0.141373 19.913497 0.240926
0.156393 19.939190 0.189945
-0.109540 19.886639 0.269173
-0.010791 19.887409 0.638584
0.038302 19.846018 0.258679
0.038910 19.915746 0.798662
0.018844 19.876880 0.538720
-0.020830 19.905761 0.760181
-0.101709 19.748304 0.070302
0.057791 19.841166 0.180465
0.076034 19.943734 0.780151
-0.036624 19.847063 0.271692
-0.126498 19.987964 0.528760
-0.102231 19.863705 0.180366
-0.020957 19.921123 0.879158
-0.078153 19.948716 0.800294
-0.060892 19.922488 0.749336
-0.125016 19.948478 0.458102
0.008975 19.841079 0.281360
0.121533 19.898214 0.262924
-0.120657 19.748302 0.051348
-0.071295 19.941652 0.799135
-0.072375 19.844886 0.180467
-0.017671 19.926831 0.930299
-0.040231 19.872198 0.459307
-0.057659 19.927613 0.796831
-0.010784 19.886112 0.628532
0.035045 19.846406 0.268464
-0.109479 19.884834 0.259261
0.038899 19.914429 0.788464
0.018832 19.873020 0.508781
0.107309 19.864256 0.150811
-0.000950 19.904998 0.789990
-0.084694 19.942699 0.728939
-0.020884 19.912328 0.811044
-0.059580 19.855757 0.291455
-0.137134 19.917842 0.289711
0.155441 19.916444 0.150050
-0.049896 19.862039 0.360351
-0.084417 19.932159 0.670623
-0.031079 19.934045 0.958435
0.008986 19.890999 0.668828
-0.049961 19.865878 0.390014
0.087859 19.874292 0.318374
-0.101709 19.748304 0.051322
0.054619 19.847454 0.235880
0.076105 19.947458 0.800902
0.083093 19.960423 0.803134
-0.000873 19.875561 0.561539
0.039999 19.913564 0.779461
0.018836 19.874305 0.518753
-0.112360 19.970115 0.601366
0.062575 19.940789 0.839905
0.015622 19.908036 0.787271
0.015663 19.927375 0.937302
-0.081359 19.942907 0.749074
0.042488 19.941947 0.960628
0.022336 19.928335 0.930872
-0.084841 19.948305 0.759953
0.151732 19.990398 0.332594
0.055664 19.925156 0.790348
-0.001014 19.929175 0.977617
0.062442 19.932147 0.791553
0.197926 19.782164 0.119893
0.060523 19.952925 0.920524
-0.049612 19.845081 0.229308
-0.049918 19.863318 0.370232
-0.084466 19.934014 0.680890
-0.031094 19.935377 0.968749
-0.049982 19.867159 0.399916
0.087818 19.872505 0.308453
-0.101709 19.748304 0.079792
0.076069 19.945595 0.790522
-0.020819 19.904451 0.750032
0.068386 19.889185 0.513657
0.048893 19.916364 0.778860
-0.097007 19.907420 0.458491
0.083012 19.956569 0.795750
0.200369 19.768796 0.049989
-0.049404 19.832731 0.141596
-0.095832 19.868258 0.242601
-0.017452 19.897012 0.699282
-0.004274 19.908227 0.813738
0.059621 19.748318 0.060600
0.038472 19.865535 0.409818
0.018888 19.891108 0.649073
0.090436 19.986738 0.800839
0.050178 19.753194 0.120687
-0.128535 19.868000 0.131209
0.008983 19.878491 0.571745
0.038596 19.879672 0.519302
-0.019732 19.906625 0.769166
0.057809 19.842428 0.190229
0.075998 19.941876 0.769792
0.037768 19.911785 0.770297
-0.017529 19.907479 0.780370
0.057827 19.843692 0.200000
0.079387 19.943545 0.760017
-0.041955 19.916479 0.799462
-0.144794 19.941619 0.290312
0.107360 19.866035 0.160629
-0.000947 19.903689 0.779830
-0.064617 19.942062 0.839412
0.015620 19.907162 0.780491
0.055640 19.923318 0.780040
-0.126724 19.993963 0.539497
0.157035 19.954518 0.216830
-0.145131 19.949416 0.303920
0.028890 19.908185 0.760818
0.062386 19.928456 0.770904
0.177226 19.631762 0.049989
-0.071212 19.937927 0.778443
0.128313 19.902677 0.249743
-0.084126 19.921070 0.609255
0.070047 19.985521 0.956597
0.069712 19.966067 0.918748
-0.064579 19.940198 0.829039
0.017829 19.906313 0.769307
0.022256 19.908111 0.774046
0.049099 19.934149 0.878752
0.008972 19.826840 0.170832
-0.050025 19.869725 0.419742
0.082931 19.952724 0.788381
-0.130589 19.920085 0.339649
0.103555 19.969356 0.662858
-0.098123 19.944627 0.658832
0.069205 19.936695 0.778964
0.008986 19.892298 0.678911
-0.049939 19.864597 0.380119
0.087914 19.876678 0.331617
-0.081092 19.932366 0.690693
-0.031054 19.931826 0.941264
-0.049997 19.868014 0.406521
0.087777 19.870720 0.298544
-0.001008 19.926964 0.960454
-0.040979 19.925779 0.869935
0.131010 19.981348 0.474645
-0.101944 19.854705 0.141251
-0.022024 19.916291 0.839432
-0.092458 19.981066 0.778624
0.068657 19.904878 0.601297
-0.041663 19.748309 0.089220
0.103452 19.965482 0.655605
-0.064362 19.929674 0.770456
0.115904 19.930925 0.480774
0.098225 19.893507 0.368638
-0.030635 19.894098 0.649257
-0.041718 19.899855 0.670906
-0.110400 19.912109 0.409035
-0.031025 19.929168 0.920687
-0.051379 19.950363 0.961801
0.069173 19.934844 0.768627
-0.052519 19.825544 0.132005
0.090079 19.971141 0.771188
0.121279 19.890376 0.219827
0.081680 19.893242 0.461165
-0.031069 19.933157 0.951564
0.035677 19.927604 0.897437
0.087736 19.868937 0.288643
-0.000937 19.899767 0.749395
-0.144962 19.945513 0.297109
-0.040793 19.912517 0.771122
0.082851 19.948936 0.770962
0.075481 19.914836 0.619093
-0.092347 19.977092 0.771222
-0.030248 19.859292 0.379875
-0.039945 19.851748 0.301154
0.049120 19.935999 0.889144
-0.050011 19.868869 0.413130
-0.130661 19.921927 0.349702
0.103659 19.973240 0.670126
0.069226 19.937931 0.785862
-0.064337 19.928440 0.763587
0.028601 19.859042 0.379958
-0.099605 19.994025 0.750123
-0.059792 19.922965 0.758294
-0.125236 19.954346 0.468604
-0.040775 19.911202 0.760950
-0.120657 19.748302 0.111442
0.038607 19.880963 0.529300
-0.056531 19.867223 0.386799
0.069645 19.962202 0.911228
-0.061280 19.942271 0.859557
0.018932 19.905453 0.760331
0.095144 19.902755 0.438701
0.038868 19.910922 0.761306
-0.078275 19.953715 0.828007
0.075446 19.913007 0.608901
-0.092180 19.971148 0.760152
-0.030262 19.860568 0.389757
-0.039963 19.853019 0.310984
0.018991 19.924764 0.910107
-0.077971 19.941243 0.758872
0.035670 19.926720 0.890590
-0.064655 19.943928 0.849798
0.018928 19.904144 0.750180
-0.072159 19.980116 0.934214
0.098505 19.904387 0.428868
-0.039780 19.839930 0.209756
0.048841 19.911910 0.748224
-0.031040 19.930496 0.930972
0.057845 19.844957 0.209779
0.080495 19.943067 0.751004
-0.040851 19.839099 0.201084
0.048831 19.911034 0.741443
-0.064439 19.933381 0.791092
0.090302 19.980874 0.789692
0.018884 19.889809 0.639003
0.101428 19.889703 0.328822
-0.139783 19.981955 0.413142
0.048978 19.923701 0.820073
-0.092013 19.965222 0.749114
-0.064248 19.924128 0.739584
-0.129437 19.890880 0.180216
-0.110711 19.921296 0.459483
-0.044065 19.909481 0.740754
-0.000870 19.874273 0.551548
-0.020808 19.903142 0.739889
0.170723 19.750390 0.060369
-0.010862 19.900430 0.739519
-0.000933 19.898462 0.739264
0.042171 19.909208 0.741130
0.157845 19.973866 0.250766
-0.051358 19.949114 0.954824
0.069088 19.929917 0.741113
0.122044 19.913999 0.349702
0.079473 19.892969 0.472157
0.102500 19.929845 0.550818
0.109410 19.937717 0.551621
-0.076573 19.883795 0.440334
0.087614 19.863598 0.259005
0.008992 19.919362 0.888985
0.116962 19.965638 0.551044
-0.069829 19.876347 0.429979
-0.111301 19.938766 0.544350
-0.104316 19.929087 0.540095
-0.030229 19.857591 0.366711
-0.083805 19.908830 0.541518
-0.077014 19.901925 0.540866
0.035051 19.847250 0.275003
0.042506 19.943805 0.971086
-0.070249 19.895047 0.540217
-0.050952 19.924938 0.819738
-0.030390 19.872102 0.479018
-0.063521 19.888782 0.539627
0.062881 19.960702 0.951316
0.149720 19.940069 0.243579
0.038258 19.840963 0.219531
-0.056900 19.886990 0.539473
0.078381 19.893435 0.481008
0.121985 19.912170 0.339650
-0.050285 19.885198 0.539319
-0.040375 19.882514 0.539088
-0.051025 19.929253 0.843848
-0.030476 19.879833 0.538857
-0.010721 19.874483 0.538396
0.048530 19.884949 0.539597
0.122879 19.939770 0.451334
0.055148 19.886748 0.539793
0.079720 19.905057 0.539439
-0.138966 19.962171 0.378319
0.088771 19.914074 0.539232
0.119850 19.748324 0.070031
0.115847 19.929079 0.470604
0.097876 19.923144 0.539022
0.138883 19.748326 0.070008
0.102467 19.928615 0.544016
0.109333 19.935007 0.541314
-0.118918 19.965167 0.540162
0.048425 19.875911 0.469658
-0.111190 19.935479 0.537350
-0.080364 19.903553 0.531083
-0.000684 19.803184 0.125980
0.039143 19.942144 0.980753
-0.070208 19.893233 0.530137
-0.050983 19.926786 0.830063
-0.030404 19.873388 0.488973
-0.036889 19.867458 0.429459
0.038269 19.842225 0.229307
-0.060185 19.886589 0.529538
0.077287 19.893898 0.489858
0.118725 19.914192 0.369667
-0.049527 19.840027 0.190245
0.056072 19.955466 0.960259
0.149415 19.932451 0.230105
-0.040357 19.881222 0.529090
-0.030462 19.878543 0.528866
0.038181 19.832152 0.151298
-0.010714 19.873196 0.528419
-0.000863 19.871701 0.531589
0.058442 19.886353 0.529869
0.077431 19.901145 0.530218
-0.138803 19.958240 0.371401
0.008993 19.923326 0.919751
0.116785 19.959839 0.540361
0.137905 19.984359 0.427380
-0.069858 19.877635 0.439923
-0.118777 19.961229 0.533058
0.228403 19.806874 0.099914
0.048410 19.874624 0.459696
-0.111148 19.934241 0.530554
-0.000860 19.870417 0.521622
0.028712 19.877845 0.525686
-0.020550 19.872006 0.498732
0.220065 19.630416 0.049989
0.055299 19.898016 0.626941
0.088729 19.912246 0.529083
-0.030017 19.838571 0.219506
0.098976 19.922673 0.530089
0.109280 19.933156 0.531101
0.008993 19.927298 0.950585
-0.083044 19.879799 0.380855
0.116609 19.954061 0.529718
0.022181 19.889413 0.629065
0.124381 19.986157 0.536108
-0.096697 19.897092 0.401558
-0.118637 19.957300 0.525970
0.115679 19.923552 0.440161
-0.111085 19.932386 0.520369
-0.090502 19.911481 0.518530
-0.080317 19.901729 0.520983
0.150519 19.798872 0.125970
0.096132 19.942578 0.659358
-0.070167 19.891420 0.520066
-0.060160 19.885294 0.519533
0.116950 19.892837 0.258415
-0.050242 19.882610 0.519315
0.008980 19.867353 0.485294
-0.069388 19.856703 0.278405
-0.040339 19.879930 0.519098
-0.030447 19.877252 0.518881
-0.070046 19.885993 0.489918
0.038192 19.833408 0.161024
-0.010707 19.871910 0.518448
0.028707 19.876986 0.519027
-0.020539 19.870721 0.488777
-0.103090 19.890650 0.328620
0.048500 19.882362 0.519577
0.058423 19.885058 0.519853
0.068407 19.890387 0.520371
-0.040647 19.902023 0.689963
-0.110524 19.915778 0.429183
0.008978 19.857560 0.409279
0.055287 19.897147 0.620217
0.088687 19.910420 0.518945
0.102352 19.924317 0.520246
0.109227 19.931308 0.520901
0.110456 19.974291 0.619543
-0.083012 19.878600 0.374219
-0.126349 19.983976 0.521624
-0.063097 19.868142 0.380282
-0.020359 19.849015 0.320658
0.114514 19.885345 0.229695
-0.118497 19.953379 0.518897
0.115735 19.925392 0.450298
-0.083661 19.903350 0.511191
-0.076881 19.896466 0.510598
0.038562 19.875805 0.489355
0.102800 19.941064 0.608914
-0.070127 19.889609 0.510007
-0.060135 19.883999 0.509536
0.118039 19.892374 0.249592
-0.050220 19.881317 0.509325
0.077537 19.851500 0.219598
0.109068 19.925775 0.490360
0.008980 19.866499 0.478667
-0.069417 19.857977 0.288237
-0.041422 19.879079 0.510247
-0.020560 19.873292 0.508695
-0.092683 19.989038 0.793478
-0.010700 19.870624 0.508485
-0.000855 19.868706 0.508342
-0.058205 19.956835 0.959783
0.035287 19.877487 0.509224
-0.076793 19.892836 0.490470
0.041882 19.879278 0.509401
-0.103032 19.888841 0.318665
0.048485 19.881070 0.509579
0.058404 19.883763 0.509846
0.081871 19.902302 0.511560
0.008978 19.856287 0.399395
-0.139128 19.966110 0.385253
0.116433 19.948300 0.519104
-0.096588 19.893461 0.381544
-0.126199 19.979997 0.514503
-0.071759 19.962310 0.900264
-0.020370 19.850284 0.330490
-0.118358 19.949467 0.511840
0.122222 19.919495 0.379924
-0.111023 19.930532 0.510195
-0.090451 19.909649 0.508415
-0.037017 19.877316 0.505719
0.068365 19.887983 0.506948
-0.069512 19.862232 0.321066
0.055270 19.895844 0.610138
0.088645 19.908596 0.508817
-0.091612 19.835624 0.131829
-0.030045 19.841095 0.239039
0.102303 19.922478 0.510076
0.109174 19.929462 0.510709
0.172565 19.999498 0.189773
0.110289 19.968465 0.608723
0.008993 19.924649 0.930021
-0.083138 19.883401 0.400793
0.123939 19.972504 0.511156
-0.110981 19.929298 0.503418
0.101140 19.878913 0.269151
-0.090416 19.908429 0.501677
-0.083614 19.901527 0.501102
-0.076837 19.894650 0.500528
0.038573 19.877093 0.499329
-0.070086 19.887800 0.499957
-0.060109 19.882706 0.499545
0.121396 19.893989 0.239694
-0.050198 19.880025 0.499342
-0.068933 19.836464 0.138293
0.109016 19.923935 0.480202
0.117975 19.998850 0.612228
-0.037006 19.876457 0.499070
-0.050890 19.921248 0.799118
-0.030419 19.874675 0.498935
-0.040123 19.864501 0.399780
0.039248 19.830634 0.142665
-0.010693 19.869340 0.498529
0.018829 19.871735 0.498815
0.028691 19.874411 0.499072
0.048470 19.879779 0.499587
0.058386 19.882470 0.499846
0.068345 19.886783 0.500244
0.081833 19.900486 0.501460
-0.105530 19.967167 0.648241
-0.040159 19.867063 0.419593
0.095415 19.913693 0.499308
0.048139 19.851191 0.278363
0.109139 19.928232 0.503921
-0.125901 19.972065 0.500309
-0.129699 19.897529 0.216518
-0.110939 19.928064 0.496645
-0.000835 19.861027 0.448746
0.038361 19.852782 0.311056
0.124128 19.978342 0.521825
-0.090365 19.906602 0.491580
-0.060084 19.881413 0.489563
0.176988 19.948983 0.129410
0.121337 19.892181 0.229755
-0.050177 19.878734 0.489366
0.095642 19.922860 0.550103
-0.040285 19.876060 0.489169
-0.092908 19.997047 0.808397
-0.010688 19.868484 0.491896
0.018825 19.870451 0.488857
0.028684 19.873125 0.489106
-0.023516 19.838085 0.229255
0.048460 19.878919 0.492931
0.058367 19.881178 0.489854
0.068314 19.884984 0.490197
-0.011025 19.930310 0.971121
0.116084 19.936838 0.497985
-0.030073 19.843622 0.258602
-0.030205 19.855467 0.350275
-0.133699 19.998959 0.495753
-0.103787 19.912510 0.448895
-0.161687 19.748299 0.060891
0.029049 19.935058 0.969091
-0.117941 19.937783 0.490761
-0.129651 19.896318 0.209908
-0.110898 19.926832 0.489878
-0.000845 19.864862 0.478511
0.228403 19.806874 0.070857
0.048450 19.878059 0.486277
-0.125457 19.960232 0.479136
-0.105404 19.963224 0.641013
0.095370 19.911866 0.489180
0.048125 19.849922 0.268542
-0.039833 19.843720 0.239066
-0.133541 19.994948 0.488632
-0.138077 19.940661 0.340458
-0.125605 19.964168 0.486178
0.029041 19.933727 0.958773
0.088202 19.889255 0.401441
-0.117758 19.932633 0.480327
-0.110835 19.924984 0.479736
-0.103982 19.918631 0.482572
0.087955 19.878469 0.341560
-0.099392 19.913188 0.477720
-0.080133 19.894455 0.480689
-0.070005 19.884188 0.479889
-0.040267 19.874771 0.479208
0.089725 19.955682 0.741794
-0.160650 19.994886 0.278081
0.018821 19.869168 0.478906
0.028676 19.871840 0.479146
-0.023528 19.839347 0.239022
0.038551 19.874518 0.479386
0.008994 19.929952 0.971181
-0.083328 19.890629 0.440791
0.048440 19.877200 0.479627
0.068283 19.883186 0.480158
0.098740 19.913506 0.479348
0.048110 19.848654 0.258729
-0.156967 19.916496 0.143547
-0.133383 19.990946 0.481527
-0.080088 19.892642 0.470642
0.038517 19.870662 0.449527
-0.061136 19.879271 0.470747
0.114844 19.896177 0.289361
0.102205 19.918806 0.489769
-0.040249 19.873484 0.469254
-0.044513 19.939565 0.939454
-0.030376 19.870817 0.469071
0.249276 19.827754 0.079789
-0.040070 19.860665 0.370116
-0.017234 19.867265 0.468828
-0.000842 19.863583 0.468582
0.008980 19.865220 0.468733
0.029020 19.930182 0.931297
0.088243 19.891059 0.411458
-0.160462 19.990883 0.271212
0.022098 19.868775 0.469041
0.028669 19.870556 0.469195
0.038539 19.873232 0.469426
0.171491 19.975970 0.149198
-0.083375 19.892441 0.450818
0.068252 19.881422 0.470134
0.123375 19.955098 0.479347
0.029033 19.932397 0.948463
-0.117668 19.930127 0.470122
0.055689 19.926997 0.800668
-0.100483 19.912715 0.468830
0.055020 19.877271 0.466489
0.029025 19.931067 0.938161
-0.117624 19.928892 0.463361
0.123251 19.951254 0.472321
-0.103846 19.914345 0.458986
-0.083423 19.894254 0.460853
0.038528 19.871946 0.459473
-0.076661 19.887406 0.460357
-0.098948 19.972122 0.709643
0.035207 19.867207 0.429592
-0.063309 19.878432 0.459718
0.114789 19.894367 0.279391
-0.125753 19.968111 0.493236
-0.056707 19.876649 0.459600
-0.050112 19.874867 0.459483
-0.150729 19.925155 0.209987
0.108806 19.916592 0.439673
-0.042336 19.943018 0.971449
-0.030362 19.869532 0.459131
0.249276 19.827755 0.109030
-0.105279 19.959290 0.633800
-0.040052 19.859388 0.360242
-0.020507 19.866870 0.458955
-0.000838 19.862304 0.458660
0.008980 19.863941 0.458805
0.028661 19.869273 0.459250
0.061614 19.878201 0.459994
0.068228 19.879993 0.460144
0.074937 19.886405 0.460639
0.080741 19.848572 0.190209
0.108911 19.920259 0.459916
0.074390 19.857827 0.275260
0.008979 19.862663 0.448886
0.130876 19.977446 0.467572
0.048051 19.843590 0.219548
-0.036487 19.836535 0.190254
-0.132911 19.978989 0.460306
0.083583 19.983724 0.847780
-0.020423 19.856645 0.379753
0.058053 19.859354 0.321106
-0.117580 19.927659 0.456603
0.018904 19.896311 0.689425
-0.062212 19.933107 0.802188
-0.090160 19.899308 0.451296
-0.149867 19.906048 0.150333
-0.076617 19.885599 0.450341
-0.059983 19.876251 0.449707
-0.040213 19.870913 0.449368
-0.050860 19.919405 0.788824
-0.044568 19.943293 0.960330
-0.030352 19.868676 0.452508
0.249276 19.827755 0.099283
-0.040105 19.863222 0.389885
-0.020497 19.865589 0.449029
0.008973 19.833107 0.219482
-0.010658 19.862932 0.448861
0.028656 19.868418 0.452624
0.228403 19.806874 0.109600
0.048395 19.873338 0.449742
0.058293 19.876018 0.449957
0.029012 19.928854 0.921009
-0.124577 19.936800 0.437207
-0.043465 19.869233 0.429563
0.068205 19.878703 0.450173
-0.151252 19.936752 0.230061
0.088423 19.898898 0.454981
0.022139 19.879064 0.548816
0.130743 19.973553 0.460514
0.048066 19.844855 0.229332
-0.124869 19.944577 0.451122
-0.069455 19.859678 0.301359
-0.117536 19.926427 0.449851
-0.129365 19.889070 0.170339
-0.044052 19.908606 0.733985
-0.110648 19.919455 0.449372
-0.000832 19.859750 0.438839
0.129948 19.950370 0.418488
-0.200152 19.810009 0.125968
0.049142 19.937851 0.899546
-0.030343 19.867821 0.445889
-0.000849 19.866142 0.488447
0.028651 19.867564 0.446002
0.108858 19.918424 0.449788
0.074374 19.856977 0.268699
0.008979 19.861386 0.438973
0.130610 19.969668 0.453472
-0.124723 19.940684 0.444157
-0.069436 19.858827 0.294797
-0.129352 19.807267 0.125979
0.040163 19.931582 0.909387
0.028996 19.926202 0.900454
-0.117470 19.924580 0.439732
-0.110607 19.918228 0.442637
-0.103729 19.910678 0.438815
0.028267 19.802352 0.125978
-0.090109 19.897489 0.441250
0.028548 19.850139 0.310961
-0.119129 19.971091 0.550850
-0.059957 19.874963 0.439761
0.102254 19.920641 0.499918
-0.040195 19.869628 0.439435
-0.030333 19.866966 0.439273
-0.020486 19.864308 0.439111
0.008973 19.834364 0.229232
0.038450 19.862976 0.390007
0.018805 19.864046 0.439178
-0.039851 19.844985 0.248850
0.028646 19.866710 0.439383
0.048381 19.872052 0.439795
-0.030868 19.915056 0.811464
0.068183 19.877413 0.440208
-0.000890 19.882012 0.611602
0.128940 19.920949 0.350007
0.081604 19.889632 0.441080
0.164241 19.965211 0.183118
0.130477 19.965792 0.446444
-0.072070 19.976144 0.926640
0.138331 19.996136 0.448556
0.164410 19.969087 0.189860
0.074765 19.877429 0.410607
-0.010033 19.748312 0.070190
-0.132443 19.967111 0.439226
-0.040665 19.903332 0.700081
-0.110566 19.917003 0.435908
-0.057601 19.924533 0.779654
-0.090058 19.895673 0.431216
0.008994 19.930837 0.978053
-0.083280 19.888819 0.430777
-0.076529 19.881992 0.430339
-0.110050 19.806613 0.125980
0.022217 19.898519 0.699676
0.038483 19.866815 0.419734
0.087655 19.865376 0.268874
-0.059932 19.873677 0.429823
-0.023613 19.848624 0.310859
-0.050047 19.871009 0.429667
0.160170 19.798577 0.125970
-0.030319 19.865685 0.429355
0.170599 19.505019 0.049990
-0.020475 19.863029 0.429200
-0.010644 19.860375 0.429045
0.077639 19.856588 0.258880
0.008979 19.860109 0.429068
-0.199832 19.516662 0.049990
-0.039869 19.846251 0.258641
-0.000758 19.831483 0.219471
0.028638 19.865429 0.429461
0.228403 19.806874 0.054714
0.048366 19.870768 0.429855
-0.030853 19.913739 0.801269
0.068161 19.876124 0.430251
0.068469 19.893999 0.540540
0.130344 19.961924 0.439433
0.138189 19.992202 0.441482
0.129424 19.935081 0.390772
0.074662 19.872065 0.380711
-0.010033 19.748312 0.098685
0.002441 19.857915 0.425638
-0.132210 19.961202 0.428740
-0.124432 19.932925 0.430273
0.042357 19.928380 0.884280
0.028989 19.924877 0.890188
-0.117405 19.922734 0.429622
-0.103670 19.908848 0.428744
0.115623 19.921714 0.430034
-0.000751 19.828974 0.200000
-0.119632 19.923012 0.418542
-0.057636 19.926380 0.789956
-0.090007 19.893858 0.421192
0.028563 19.852678 0.330638
0.076667 19.976817 0.887110
-0.079859 19.883601 0.420562
0.087696 19.867156 0.278754
-0.097892 19.936914 0.621074
-0.069800 19.875059 0.420041
-0.010060 19.753232 0.120731
-0.000808 19.850840 0.369694
-0.059907 19.872390 0.419891
0.049042 19.929224 0.851095
-0.030305 19.864404 0.419444
-0.030722 19.901928 0.709858
-0.040016 19.856838 0.340517
-0.020465 19.861750 0.419296
-0.010637 19.859098 0.419147
-0.000825 19.857199 0.419046
-0.010683 19.867629 0.485266
0.018797 19.861490 0.419357
0.048351 19.869484 0.419923
-0.030839 19.912423 0.791082
0.068139 19.874837 0.420301
-0.089956 19.892045 0.411178
-0.080942 19.883134 0.411752
-0.097836 19.935056 0.610832
0.096722 19.966372 0.709700
-0.069771 19.873772 0.410111
-0.000812 19.852110 0.379550
-0.059882 19.871105 0.409968
0.049063 19.931069 0.861458
-0.030290 19.863125 0.409541
-0.039999 19.855564 0.330666
-0.020454 19.860472 0.409399
-0.000822 19.855926 0.409162
-0.010679 19.866774 0.478639
0.018793 19.860214 0.409459
0.048341 19.868629 0.413305
-0.070290 19.896863 0.550309
-0.131823 19.951396 0.411336
0.039032 19.929664 0.901203
0.029004 19.927528 0.910727
-0.120723 19.922537 0.409637
-0.076427 19.877793 0.407054
-0.010628 19.857398 0.405962
0.094472 19.875706 0.288821
-0.030577 19.888897 0.609007
-0.090554 19.913314 0.528655
0.095008 19.897312 0.408538
0.115511 19.918042 0.409812
0.129817 19.946535 0.411536
-0.122529 19.882245 0.170395
0.008990 19.911900 0.831061
0.137552 19.974605 0.409841
-0.010522 19.837956 0.255265
0.035728 19.934248 0.948900
-0.124103 19.924175 0.399742
-0.000540 19.748313 0.089177
-0.110339 19.910278 0.398978
-0.089905 19.890234 0.401174
-0.076398 19.876595 0.400412
-0.059856 19.869821 0.400051
-0.189965 19.643308 0.049989
-0.122800 19.889465 0.209889
0.076741 19.980715 0.894636
-0.020380 19.851554 0.340327
0.049084 19.932916 0.871831
-0.030276 19.861846 0.399645
-0.039981 19.854291 0.320821
-0.020444 19.859195 0.399510
-0.010623 19.856548 0.399375
0.018617 19.802623 0.125979
-0.000818 19.854653 0.399283
0.015516 19.858054 0.399509
-0.056150 19.846834 0.229321
0.022062 19.859823 0.399623
0.028616 19.861594 0.399737
0.059621 19.748318 0.070105
0.018801 19.862767 0.429264
0.038461 19.864255 0.399909
0.087370 19.852970 0.200001
0.058200 19.869590 0.400252
0.068094 19.872264 0.400424
0.164666 19.974919 0.200002
0.074731 19.875639 0.400631
0.094428 19.873918 0.278912
0.081453 19.882432 0.401035
-0.104493 19.934649 0.570686
0.137764 19.980451 0.420352
-0.069656 19.868634 0.370462
0.122341 19.923170 0.400125
0.008981 19.868207 0.491925
-0.139455 19.974015 0.399166
0.055830 19.937465 0.859348
-0.110030 19.901148 0.348845
0.018872 19.885921 0.608840
-0.089871 19.889027 0.394511
0.076592 19.972928 0.879601
0.008993 19.925973 0.940300
-0.083091 19.881599 0.390819
-0.076354 19.874800 0.390458
-0.060931 19.868976 0.391257
0.076816 19.984622 0.902178
-0.020391 19.852826 0.350173
0.114569 19.887146 0.239614
0.083748 19.991560 0.862792
-0.023707 19.858802 0.389671
0.083665 19.987638 0.855278
-0.017159 19.857037 0.389586
-0.000815 19.853381 0.389413
0.015514 19.856780 0.389628
-0.056166 19.847679 0.235846
0.022057 19.858548 0.389736
0.090680 19.854555 0.190191
0.061476 19.869197 0.390388
0.068072 19.870979 0.390497
0.088161 19.887452 0.391436
0.008990 19.910586 0.820864
0.137341 19.968776 0.399360
0.145261 19.999174 0.401070
0.008981 19.869062 0.498558
-0.139291 19.970059 0.392202
-0.131362 19.939700 0.390579
-0.117142 19.915376 0.389292
0.067701 19.508252 0.049990
0.187433 19.765890 0.078833
0.107820 19.882126 0.249442
-0.000540 19.748313 0.079678
-0.110277 19.908448 0.388930
-0.089837 19.887822 0.387853
0.141975 19.912856 0.229936
-0.090657 19.916986 0.548938
0.094919 19.893692 0.388482
0.108545 19.907456 0.389247
0.075110 19.895428 0.510930
0.115399 19.914379 0.389632
0.122281 19.921332 0.390019
0.088142 19.748321 0.051056
0.137131 19.962968 0.388917
-0.147183 19.996921 0.386842
-0.131133 19.933882 0.380254
0.042369 19.929609 0.891197
-0.123965 19.920488 0.379580
-0.117077 19.913541 0.379236
-0.110215 19.906620 0.378894
-0.089803 19.886617 0.381199
-0.056515 19.866369 0.380200
-0.040088 19.861943 0.379997
0.008977 19.853743 0.379650
0.018782 19.856390 0.379804
0.068050 19.869695 0.380577
-0.010575 19.847649 0.330401
-0.030177 19.852922 0.330578
-0.160838 19.998896 0.284965
0.088119 19.885652 0.381440
-0.030591 19.890196 0.619058
-0.090605 19.915149 0.538792
0.094874 19.891885 0.378470
0.075144 19.897239 0.521019
0.115343 19.912551 0.379559
-0.147010 19.992915 0.379848
-0.078505 19.873277 0.369582
-0.155938 19.894591 0.130698
-0.030238 19.858441 0.373291
-0.039928 19.850478 0.291332
-0.010602 19.852728 0.369772
-0.100663 19.883157 0.299824
0.008977 19.852472 0.369789
-0.137517 19.927105 0.316599
0.018778 19.855118 0.369935
0.038428 19.860422 0.370226
0.058145 19.865745 0.370518
0.068035 19.868840 0.373967
0.129294 19.931280 0.383880
0.008994 19.928625 0.960880
0.077984 19.873687 0.370939
0.129164 19.927487 0.377003
0.080955 19.858746 0.268738
-0.085259 19.964252 0.799520
0.136922 19.957177 0.378504
0.018986 19.923440 0.899843
-0.084612 19.939592 0.711751
0.144812 19.987376 0.380030
0.107125 19.857833 0.137810
0.127817 19.888195 0.170278
-0.146838 19.988916 0.372868
-0.130904 19.928081 0.369958
0.035718 19.932917 0.938592
-0.123896 19.918648 0.369514
-0.117011 19.911708 0.369190
0.107717 19.878538 0.229635
0.028591 19.857343 0.366788
0.094207 19.865003 0.229516
0.068021 19.867985 0.367361
0.098458 19.902569 0.418804
-0.030751 19.904546 0.730118
-0.076153 19.866561 0.340866
0.187433 19.765890 0.101154
-0.000883 19.879428 0.591554
0.129066 19.924627 0.370186
-0.085104 19.958348 0.788438
0.136782 19.953328 0.371582
0.229245 19.630128 0.049989
-0.084742 19.944565 0.739266
0.144589 19.981507 0.369564
-0.146665 19.984927 0.365905
0.076296 19.957457 0.849726
-0.130734 19.923771 0.359766
-0.079586 19.872814 0.360807
-0.078412 19.959344 0.842456
-0.153558 19.987902 0.318595
-0.069627 19.867352 0.360568
-0.020401 19.854097 0.360026
-0.010595 19.851457 0.359918
0.070739 19.836974 0.138205
-0.000795 19.845769 0.330342
0.108233 19.896555 0.329083
-0.099583 19.883624 0.308616
0.008977 19.851203 0.359934
0.028586 19.856494 0.360208
0.015535 19.866996 0.468887
0.038416 19.859146 0.360346
0.058126 19.864465 0.360621
-0.030736 19.903237 0.719984
-0.036756 19.857231 0.350343
0.101815 19.904194 0.408961
-0.076122 19.865280 0.330991
0.077952 19.872087 0.361003
0.207790 19.786254 0.110163
0.099315 19.893041 0.359800
0.108388 19.901997 0.359119
0.118668 19.912364 0.359604
0.056047 19.953595 0.949772
0.149568 19.936256 0.236834
0.187433 19.765890 0.110719
-0.000881 19.878568 0.584878
0.129003 19.922787 0.360092
-0.270890 19.933620 0.049988
0.136643 19.949486 0.364675
-0.119625 19.984988 0.575920
-0.146493 19.980946 0.358956
0.228731 19.811951 0.119165
-0.099824 19.891454 0.351742
-0.080667 19.872363 0.352033
-0.069598 19.866070 0.350682
0.249276 19.827754 0.060296
-0.043312 19.858995 0.350410
0.018770 19.852576 0.350216
0.094740 19.886475 0.348494
0.028578 19.855221 0.350345
0.035127 19.856987 0.350430
-0.101709 19.748304 0.098772
0.067984 19.865849 0.350861
0.094769 19.887676 0.355148
-0.084175 19.922913 0.619457
0.136505 19.945653 0.357783
-0.146236 19.974992 0.348565
-0.138318 19.946501 0.350737
0.008986 19.893598 0.689002
-0.116881 19.908047 0.349129
-0.105029 19.951448 0.619423
-0.030766 19.905856 0.740259
0.101718 19.900560 0.388864
-0.076174 19.867415 0.347455
-0.000801 19.847880 0.346724
0.138251 19.902111 0.190052
-0.030606 19.891496 0.629117
0.101524 19.893314 0.348795
-0.059497 19.851518 0.258721
0.077074 19.883085 0.429631
0.115176 19.907076 0.349399
-0.084223 19.924758 0.629668
0.136366 19.941829 0.350906
0.008986 19.894898 0.699099
-0.116816 19.906220 0.339116
-0.082855 19.872616 0.341104
-0.010483 19.830826 0.200000
-0.109622 19.889049 0.282406
-0.159342 19.967055 0.230317
-0.059706 19.862136 0.340707
0.028457 19.834564 0.190254
0.082630 19.938397 0.712339
-0.130227 19.910906 0.289540
0.109104 19.927003 0.497138
0.077562 19.852770 0.229407
-0.030191 19.854194 0.340422
-0.010581 19.848918 0.340233
0.008976 19.848666 0.340248
-0.010561 19.845115 0.310760
-0.109846 19.895693 0.318891
0.018766 19.851306 0.340367
0.008973 19.835621 0.238991
-0.136680 19.906848 0.229810
0.028571 19.853949 0.340487
0.068438 19.892192 0.530451
0.074553 19.866346 0.341050
-0.010547 19.842585 0.291147
-0.153378 19.983915 0.311693
0.108302 19.898972 0.342420
0.115121 19.905255 0.339367
-0.000887 19.880720 0.601574
0.128877 19.919113 0.339934
0.136159 19.936108 0.340620
0.144070 19.967884 0.345268
0.119013 19.923364 0.420143
0.152046 19.998269 0.346514
-0.145980 19.969057 0.338204
-0.082808 19.870825 0.331192
-0.059681 19.860858 0.330843
0.028449 19.833308 0.180515
0.090707 19.998526 0.823248
-0.130154 19.909076 0.279550
0.108963 19.922096 0.470053
0.077588 19.854042 0.239225
-0.049839 19.858634 0.334039
-0.037287 19.898072 0.666276
0.018762 19.850037 0.330527
0.008974 19.836879 0.248756
-0.136730 19.908066 0.236448
-0.090262 19.902951 0.471417
0.038383 19.855325 0.330750
0.048223 19.858400 0.334150
-0.102516 19.872640 0.229528
0.067940 19.863290 0.331087
0.074529 19.865066 0.331162
0.081189 19.869905 0.331353
-0.091055 19.513244 0.049990
0.088142 19.748321 0.060563
0.143922 19.964011 0.338361
-0.084890 19.950177 0.770313
0.151889 19.994329 0.339547
0.128064 19.895421 0.209928
0.068594 19.901244 0.581003
-0.153829 19.993901 0.328977
-0.099875 19.513521 0.049990
-0.145809 19.965111 0.331317
-0.137836 19.934838 0.330209
0.018739 19.842443 0.271632
0.082891 19.950802 0.781342
-0.130516 19.918245 0.329606
-0.116751 19.904395 0.329111
-0.010554 19.843850 0.300949
-0.109907 19.897509 0.328865
-0.096299 19.883817 0.328376
-0.089533 19.877010 0.328132
0.169823 19.798300 0.125969
0.074902 19.884606 0.450612
0.115065 19.903435 0.329344
0.081642 19.891436 0.451118
0.121926 19.910343 0.329607
0.135953 19.930404 0.330363
-0.130128 19.748302 0.051362
0.143775 19.960147 0.331469
-0.116686 19.902571 0.319118
0.008977 19.849934 0.350088
-0.096244 19.882015 0.318440
-0.089499 19.875812 0.321520
-0.082761 19.869036 0.321290
-0.098299 19.950484 0.669656
-0.076091 19.864001 0.321121
0.108181 19.894745 0.319092
-0.000792 19.844504 0.320522
0.015495 19.847890 0.320658
-0.144543 19.935796 0.280148
0.022022 19.849648 0.320727
0.028556 19.851408 0.320796
-0.090211 19.901128 0.461351
0.038372 19.854053 0.320899
-0.090812 19.922509 0.579442
0.067918 19.862012 0.321210
0.074504 19.863786 0.321279
0.209893 20.121462 0.125964
0.081152 19.868123 0.321438
0.078164 19.882624 0.420815
0.117289 19.903716 0.318300
0.108440 19.903815 0.369151
0.143555 19.954367 0.321161
0.018982 19.922118 0.889586
-0.078062 19.944976 0.779561
0.151575 19.986476 0.325657
-0.211592 19.517032 0.049990
-0.089449 19.874018 0.311610
-0.030707 19.900621 0.699738
-0.079387 19.864985 0.311329
-0.069483 19.860954 0.311210
-0.030149 19.850381 0.310909
0.017667 19.847068 0.309764
-0.090760 19.920666 0.569263
0.067895 19.860735 0.311341
-0.030780 19.907168 0.750409
-0.080361 19.860500 0.279572
0.077797 19.864425 0.311470
0.018995 19.926088 0.920379
-0.078016 19.943109 0.769212
0.151418 19.982562 0.318735
-0.145300 19.953326 0.310747
0.008985 19.888836 0.652040
-0.120052 19.904199 0.309238
-0.010568 19.846382 0.320577
-0.109785 19.893879 0.308926
0.108492 19.905634 0.379194
0.143336 19.948603 0.310883
0.151262 19.978657 0.311828
-0.153199 19.979937 0.304808
0.008985 19.889701 0.658753
-0.119985 19.902375 0.299256
-0.071184 19.936688 0.771556
0.028533 19.847604 0.291313
-0.089382 19.871629 0.298411
-0.030693 19.899314 0.689627
0.101669 19.898746 0.378832
-0.079348 19.863453 0.301461
0.047828 19.824266 0.131967
-0.049768 19.854388 0.301222
0.008975 19.843605 0.300960
0.121631 19.901239 0.279552
0.018751 19.846236 0.301046
0.028541 19.848871 0.301133
-0.090313 19.904775 0.481493
0.038350 19.851511 0.301219
-0.090916 19.926200 0.599832
0.067873 19.859458 0.301479
0.117436 19.981191 0.579696
-0.082512 19.859524 0.268651
0.078862 19.863058 0.299410
0.074868 19.882809 0.440595
0.119471 19.902781 0.300585
0.135531 19.918732 0.299948
0.143117 19.942860 0.300641
-0.153020 19.975968 0.297937
-0.079309 19.861923 0.291602
0.008975 19.842342 0.291157
0.018747 19.844971 0.291235
0.038339 19.850242 0.291391
0.048159 19.852884 0.291469
0.207826 19.630801 0.049989
-0.230537 20.134631 0.125977
-0.090864 19.924353 0.589631
0.067859 19.858608 0.294909
0.117615 19.987057 0.590503
-0.082481 19.858339 0.262092
0.076630 19.860701 0.290607
0.094502 19.876899 0.295434
-0.152841 19.972007 0.291082
0.219510 19.768195 0.049989
-0.123346 19.903996 0.289369
-0.116491 19.897112 0.289199
-0.070576 19.909631 0.621241
-0.102860 19.883424 0.288860
0.050117 19.748318 0.079620
-0.096083 19.876618 0.288692
0.037448 19.748316 0.111310
0.134936 19.902297 0.209948
0.067844 19.857758 0.288342
0.121689 19.903056 0.289542
0.008974 19.839818 0.271571
0.107513 19.871382 0.190142
0.128563 19.909963 0.289724
-0.077356 19.915954 0.618653
-0.152574 19.966084 0.280829
-0.060541 19.849413 0.240209
-0.137058 19.916005 0.279702
-0.123277 19.902173 0.279398
-0.116426 19.895296 0.279247
-0.070617 19.911463 0.631418
-0.102802 19.881622 0.278946
0.050117 19.748318 0.089124
-0.096029 19.874823 0.278797
0.141836 19.909202 0.209968
-0.040996 19.849219 0.279341
-0.020317 19.843947 0.281406
-0.071059 19.931120 0.740622
0.028526 19.846338 0.281499
0.039415 19.848985 0.279394
0.058016 19.856805 0.301392
-0.049697 19.850151 0.268486
0.057973 19.853835 0.278430
0.037491 19.753202 0.120697
0.138318 19.903930 0.200001
-0.030620 19.892797 0.639183
0.067822 19.856484 0.278498
0.078795 19.859840 0.279673
0.107992 19.888124 0.282546
0.128521 19.908746 0.283049
-0.109581 19.887844 0.275787
-0.089264 19.867455 0.275358
-0.075946 19.858042 0.275162
-0.020307 19.842682 0.271611
-0.071100 19.932974 0.750922
0.028519 19.845072 0.271693
0.107957 19.886922 0.275916
0.128479 19.907531 0.276378
0.158499 19.989497 0.278182
-0.152308 19.960178 0.270607
-0.144292 19.929989 0.270012
0.142249 19.920070 0.259997
-0.130082 19.907247 0.269570
-0.123209 19.900352 0.269437
0.050117 19.748318 0.098627
-0.095975 19.873030 0.268911
-0.089231 19.866264 0.268781
-0.075925 19.857192 0.268609
-0.021034 19.930403 0.951045
-0.069359 19.855429 0.268578
-0.136982 19.914170 0.269703
-0.059522 19.852789 0.268532
-0.043155 19.848395 0.268455
0.131144 19.985258 0.481734
0.041581 19.848163 0.268503
0.037448 19.748316 0.089137
0.141420 19.898288 0.150313
0.067800 19.855211 0.268660
0.081491 19.884230 0.411032
0.129620 19.940800 0.401139
0.094384 19.872131 0.269012
-0.190496 19.809635 0.125969
0.107923 19.885722 0.269291
0.114734 19.892559 0.269431
0.128438 19.906316 0.269713
-0.099186 19.980056 0.724305
0.135332 19.913236 0.269854
0.022018 19.848803 0.314173
-0.144042 19.924204 0.259914
0.142465 19.925739 0.270107
0.021980 19.839113 0.239035
0.087451 19.856506 0.219628
0.058090 19.861907 0.340849
0.150333 19.955404 0.270701
0.008972 19.830598 0.200000
-0.160180 19.984897 0.260939
-0.059605 19.857031 0.301291
-0.136906 19.912336 0.259715
-0.130010 19.905421 0.259601
-0.039284 19.804388 0.125980
-0.123163 19.899139 0.262802
-0.118570 19.893756 0.258307
0.050117 19.748318 0.111299
-0.098170 19.873301 0.257976
-0.079179 19.856799 0.258799
-0.149977 19.908484 0.163552
-0.022138 19.929528 0.941953
-0.071515 19.854603 0.257678
0.057998 19.855532 0.291547
-0.049676 19.848883 0.258681
-0.037675 19.927902 0.897040
-0.000997 19.922990 0.929612
-0.010526 19.838796 0.261781
0.018734 19.840761 0.258579
0.028509 19.843387 0.258629
0.037448 19.748317 0.098640
0.067778 19.853938 0.258830
0.081377 19.878844 0.381074
0.097716 19.873734 0.259183
0.107871 19.883923 0.259362
0.128375 19.904495 0.259723
-0.099305 19.984037 0.731661
0.135266 19.911409 0.259845
0.008974 19.837718 0.255271
-0.109216 19.877033 0.216424
-0.159900 19.978929 0.250696
-0.129938 19.903597 0.249641
-0.102630 19.876227 0.249265
-0.082430 19.856407 0.248993
-0.072583 19.853765 0.248960
-0.010517 19.837115 0.248751
0.028501 19.842124 0.248839
0.048095 19.847386 0.248923
0.057918 19.850025 0.248965
0.087573 19.861822 0.249145
0.138657 19.913049 0.249895
-0.159621 19.972983 0.240491
0.081909 19.904120 0.521670
-0.151515 19.942581 0.240149
-0.129866 19.901774 0.239693
-0.120732 19.892818 0.240693
0.078633 19.748320 0.051069
0.156633 19.944924 0.200002
-0.109357 19.881229 0.239467
-0.102573 19.874433 0.239392
-0.082397 19.855134 0.239180
-0.072553 19.852494 0.239154
-0.017016 19.837600 0.239004
-0.010510 19.835856 0.238987
0.228403 19.806874 0.080543
0.028494 19.840862 0.239058
0.048081 19.846120 0.239124
0.058994 19.849190 0.240250
-0.101709 19.748304 0.089282
0.067962 19.864569 0.340970
0.094251 19.866782 0.239375
0.128251 19.900860 0.239774
0.139748 19.912579 0.241018
0.157682 19.969980 0.243949
0.135112 19.907151 0.236527
-0.020241 19.834694 0.209742
-0.167572 19.997877 0.230577
-0.056348 19.857424 0.311109
-0.143591 19.913768 0.229867
-0.129795 19.899954 0.229754
-0.122936 19.893086 0.229697
0.078633 19.748320 0.060575
0.163398 19.945955 0.149627
-0.109297 19.879430 0.229584
-0.092395 19.862507 0.229445
-0.082364 19.853862 0.229374
-0.030031 19.839832 0.229269
-0.017007 19.836341 0.229242
-0.010503 19.834597 0.229229
0.228403 19.806874 0.090229
0.028486 19.839600 0.229282
-0.101709 19.748304 0.060812
-0.130371 19.914571 0.309552
0.054607 19.846610 0.229349
0.061156 19.848368 0.229366
0.038652 19.886137 0.569364
0.067713 19.850127 0.229382
0.248222 19.767293 0.049989
0.128189 19.899045 0.229815
0.135068 19.905936 0.229875
-0.109662 19.890255 0.289029
-0.159065 19.961148 0.220180
-0.129747 19.898741 0.223134
0.163231 19.942129 0.142973
-0.109256 19.878231 0.223002
-0.102459 19.870849 0.219676
-0.088980 19.857361 0.219602
-0.082330 19.852591 0.219576
-0.150382 19.917465 0.196678
-0.072494 19.849954 0.219563
-0.059398 19.846445 0.219545
-0.010497 19.833339 0.219479
0.228403 19.806874 0.061171
0.028481 19.838760 0.222769
-0.130443 19.916407 0.319574
0.057864 19.846222 0.219565
0.068006 19.867130 0.360759
0.094163 19.863225 0.219668
