ply
format ascii 1.0
comment Map frame coordinates
element vertex 3377
property float x
property float y
property float z
end_header
-0.227614 20.477526 0.050008
-0.218795 20.477245 0.050008
-0.201158 20.476682 0.050008
-0.189400 20.476306 0.050008
-0.177642 20.475931 0.050008
-0.160005 20.475368 0.050008
-0.130609 20.474431 0.050008
-0.089456 20.473115 0.050008
-0.068879 20.472461 0.050008
-0.030666 20.471241 0.050008
-0.110033 20.473772 0.050008
-0.010089 20.470584 0.050008
-0.004210 20.470396 0.050008
0.001669 20.470209 0.050008
0.010488 20.469927 0.050008
0.022246 20.469552 0.050008
0.039883 20.468988 0.050008
0.060460 20.468331 0.050008
0.110432 20.466736 0.050008
0.131008 20.466082 0.050008
0.139827 20.465800 0.050008
0.151585 20.465425 0.050008
0.169222 20.464862 0.050008
0.201557 20.463826 0.050008
0.230952 20.462891 0.050008
-0.236579 20.350890 0.050008
-0.227401 20.350598 0.050008
-0.218222 20.350306 0.050008
-0.199865 20.349719 0.050008
-0.190687 20.349427 0.050008
-0.178449 20.349037 0.050008
-0.169270 20.348742 0.050008
-0.160092 20.348448 0.050008
-0.120318 20.347181 0.050008
-0.111140 20.346889 0.050008
-0.089723 20.346206 0.050008
-0.080545 20.345911 0.050008
-0.037712 20.344544 0.050008
-0.010177 20.343665 0.050008
-0.000998 20.343373 0.050008
0.020418 20.342687 0.050008
0.041835 20.342004 0.050008
0.072430 20.341031 0.050008
0.090787 20.340442 0.050008
0.099965 20.340149 0.050008
0.121382 20.339467 0.050008
0.130560 20.339175 0.050008
0.139739 20.338881 0.050008
0.161155 20.338197 0.050008
0.191750 20.337220 0.050008
0.210107 20.336633 0.050008
0.240702 20.335658 0.050008
0.249881 20.335363 0.050008
-0.246308 20.213481 0.050009
-0.239928 20.213278 0.050009
-0.207951 20.213623 0.050070
-0.197797 20.223775 0.050535
-0.187700 20.233871 0.050998
-0.177672 20.243898 0.051458
-0.148881 20.251435 0.051834
-0.139417 20.251435 0.051848
-0.120493 20.251436 0.051875
-0.098424 20.251436 0.051906
-0.088968 20.251436 0.051919
-0.079515 20.251436 0.051933
-0.070063 20.251436 0.051946
-0.048015 20.251436 0.051977
-0.038569 20.251436 0.051991
-0.029124 20.251436 0.052004
0.011782 20.251437 0.052062
0.021218 20.251437 0.052076
0.030651 20.251437 0.052089
0.040083 20.251437 0.052102
-0.019682 20.251436 0.052018
0.080935 20.251437 0.052160
0.090358 20.251437 0.052174
0.121756 20.251438 0.052218
0.131171 20.251438 0.052232
0.149997 20.251438 0.052258
0.162544 20.251438 0.052276
0.172051 20.249600 0.052208
0.178697 20.242954 0.051922
0.192067 20.229586 0.051347
0.198791 20.222864 0.051057
0.205542 20.216114 0.050767
0.219121 20.202537 0.050183
0.225764 20.198416 0.050009
0.241712 20.197908 0.050009
0.251281 20.197602 0.050009
0.260850 20.197297 0.050009
0.262801 20.047274 0.050010
0.276127 20.046847 0.050010
-0.242269 20.179309 0.061390
-0.228455 20.193121 0.058759
-0.214757 20.206817 0.059348
-0.207951 20.213623 0.059640
-0.197797 20.223775 0.060076
-0.187700 20.233871 0.060509
-0.177672 20.243898 0.060940
-0.148881 20.251435 0.061292
-0.139417 20.251435 0.061304
-0.120493 20.251436 0.061329
-0.098424 20.251436 0.061359
-0.088968 20.251436 0.061371
-0.070063 20.251436 0.061396
-0.057463 20.251436 0.061413
-0.048015 20.251436 0.061426
-0.038569 20.251436 0.061438
-0.029124 20.251436 0.061451
0.011782 20.251437 0.061505
0.021218 20.251437 0.061518
0.030651 20.251437 0.061530
0.040083 20.251437 0.061543
0.062084 20.251437 0.061572
0.071511 20.251437 0.061584
0.090358 20.251437 0.061609
0.112338 20.251438 0.061639
0.121756 20.251437 0.061651
0.131171 20.251438 0.061664
0.172051 20.249600 0.061641
0.178697 20.242954 0.061374
0.192067 20.229586 0.060835
0.198791 20.222864 0.060564
0.219121 20.202537 0.059746
0.232808 20.188852 0.059194
0.239691 20.181970 0.058917
0.246602 20.175060 0.058639
-0.214757 20.206817 0.068937
-0.197797 20.223775 0.069616
-0.187700 20.233871 0.070020
0.092795 20.467299 0.050008
-0.177672 20.243898 0.070421
-0.167815 20.251435 0.070726
-0.158348 20.251435 0.070737
-0.148881 20.251435 0.070749
-0.107881 20.251436 0.070800
0.180980 20.464486 0.050008
-0.098424 20.251436 0.070811
-0.088968 20.251436 0.070823
-0.079515 20.251436 0.070835
-0.070063 20.251436 0.070847
-0.048015 20.251436 0.070874
-0.038569 20.251436 0.070886
-0.029124 20.251436 0.070897
-0.000801 20.251437 0.070932
0.021218 20.251437 0.070960
0.030651 20.251437 0.070971
0.040083 20.251437 0.070983
-0.060061 20.472180 0.050008
-0.019682 20.251436 0.070909
0.080935 20.251437 0.071034
0.090358 20.251437 0.071045
0.121756 20.251437 0.071084
0.149997 20.251438 0.071119
0.162544 20.251438 0.071135
0.172051 20.249600 0.071075
0.178697 20.242954 0.070826
0.185369 20.236283 0.070575
0.219121 20.202537 0.069308
0.232808 20.188852 0.068795
-0.242269 20.179309 0.071060
0.239691 20.181970 0.071743
0.246602 20.175060 0.071490
-0.235348 20.186229 0.080981
-0.228455 20.193121 0.081230
-0.221592 20.199983 0.078274
-0.214757 20.206817 0.078527
-0.187700 20.233871 0.079531
-0.177672 20.243898 0.079903
-0.139417 20.251435 0.080217
-0.120493 20.251436 0.080239
-0.107881 20.251436 0.080253
-0.098424 20.251436 0.080264
-0.088968 20.251436 0.080275
-0.079515 20.251436 0.080286
-0.070063 20.251436 0.080297
-0.057463 20.251436 0.080311
-0.048015 20.251436 0.080322
-0.029124 20.251436 0.080344
-0.019682 20.251436 0.080355
-0.010240 20.251436 0.080365
-0.000801 20.251436 0.080376
-0.057463 20.251436 0.070862
0.021218 20.251437 0.080402
0.040083 20.251437 0.080423
0.071511 20.251437 0.080459
0.080935 20.251437 0.080470
0.090358 20.251437 0.080481
0.121756 20.251438 0.080517
0.140585 20.251438 0.080539
0.162544 20.251438 0.080564
0.172051 20.249600 0.080509
0.178697 20.242954 0.080277
0.198791 20.222864 0.079578
0.185369 20.236283 0.061105
0.205542 20.216114 0.079344
0.225951 20.195708 0.078634
0.232808 20.188852 0.078395
0.239691 20.181970 0.081362
0.246602 20.175060 0.081128
-0.187700 20.233871 0.089041
-0.177672 20.243898 0.089384
-0.158348 20.251435 0.089654
-0.139417 20.251435 0.089674
-0.048303 20.471804 0.050008
-0.098424 20.251436 0.089717
-0.088968 20.251436 0.089727
-0.079515 20.251436 0.089737
-0.070063 20.251436 0.089747
-0.048015 20.251436 0.089770
-0.038569 20.251436 0.089780
-0.029124 20.251436 0.089790
-0.019682 20.251436 0.089800
-0.010240 20.251436 0.089810
0.040083 20.251437 0.089863
0.080935 20.251437 0.089907
0.090358 20.251437 0.089917
0.099779 20.251437 0.089927
0.131171 20.251438 0.089960
0.172051 20.249600 0.089942
0.178697 20.242954 0.089729
0.205542 20.216114 0.069818
0.185369 20.236283 0.089515
0.192067 20.229586 0.089301
-0.235348 20.186229 0.090631
-0.228455 20.193121 0.090860
-0.221592 20.199983 0.091087
-0.214757 20.206817 0.091314
-0.198922 20.222650 0.090780
0.219121 20.202537 0.091622
0.225951 20.195708 0.091409
-0.249219 20.172360 0.099862
-0.242269 20.179309 0.100072
-0.228455 20.193121 0.100490
-0.214757 20.206817 0.100904
-0.196672 20.224900 0.099333
-0.187700 20.233871 0.098552
-0.177672 20.243898 0.098865
-0.059129 20.345226 0.050008
-0.148881 20.251435 0.099121
-0.098424 20.251436 0.099170
-0.088968 20.251436 0.099179
-0.079515 20.251436 0.099188
-0.070063 20.251436 0.099197
-0.048015 20.251436 0.099219
-0.038569 20.251436 0.099228
-0.029124 20.251436 0.099237
0.080935 20.251437 0.061597
-0.019682 20.251436 0.099246
-0.010240 20.251436 0.099255
-0.000801 20.251436 0.099264
0.071511 20.251437 0.099334
-0.019682 20.251436 0.061463
0.080935 20.251437 0.099343
0.090358 20.251437 0.099352
0.121756 20.251438 0.099383
0.131171 20.251438 0.099392
-0.107881 20.251436 0.051892
0.172051 20.249600 0.099376
0.178697 20.242954 0.099181
0.185369 20.236283 0.098985
0.192067 20.229586 0.098789
0.185369 20.236283 0.080045
0.205542 20.216114 0.098395
0.212318 20.209339 0.098196
0.219121 20.202537 0.101184
0.225951 20.195708 0.100991
0.232808 20.188852 0.100796
0.011782 20.251437 0.108719
0.040083 20.251437 0.108744
0.071511 20.251437 0.108772
0.080935 20.251437 0.108780
0.090358 20.251437 0.108788
-0.107881 20.251436 0.089707
0.112338 20.251438 0.108807
0.121756 20.251438 0.108816
0.131171 20.251438 0.108824
0.162544 20.251438 0.108851
-0.107881 20.251436 0.061346
0.172051 20.249600 0.108809
-0.249219 20.172360 0.109552
-0.228455 20.193121 0.110120
-0.214757 20.206817 0.110494
-0.187700 20.233871 0.111233
-0.177672 20.243898 0.111507
-0.148881 20.251435 0.111731
-0.139417 20.251435 0.111739
-0.129954 20.251436 0.111747
-0.120493 20.251436 0.111755
0.112338 20.251438 0.052205
-0.107881 20.251436 0.111766
-0.098424 20.251436 0.111774
-0.088968 20.251436 0.111782
-0.079515 20.251436 0.111790
-0.167815 20.251435 0.051807
-0.070063 20.251436 0.111798
-0.048015 20.251436 0.111816
-0.038569 20.251436 0.111824
-0.029124 20.251436 0.111832
-0.019682 20.251436 0.111840
-0.000801 20.251436 0.111856
0.011782 20.251437 0.115014
-0.057463 20.251436 0.111808
0.021218 20.251437 0.115022
0.030651 20.251437 0.115030
0.071511 20.251437 0.115063
0.080935 20.251437 0.115071
0.090358 20.251437 0.115079
-0.107881 20.251436 0.099161
0.112338 20.251437 0.115096
0.121756 20.251438 0.115104
0.131171 20.251438 0.115112
0.140585 20.251438 0.115119
0.162544 20.251438 0.115137
0.178697 20.242954 0.111783
0.205542 20.216114 0.088869
0.185369 20.236283 0.111612
0.212318 20.209339 0.110922
0.219121 20.202537 0.110747
0.225951 20.195708 0.110572
0.232808 20.188852 0.110396
0.246602 20.175060 0.110043
-0.221970 20.193998 0.119775
-0.215138 20.200602 0.119937
-0.198181 20.216991 0.120337
-0.188082 20.226751 0.120575
-0.178051 20.236446 0.120812
-0.149104 20.246180 0.121064
-0.120671 20.246158 0.121085
0.219121 20.202537 0.078871
-0.089098 20.246134 0.121108
-0.079629 20.246127 0.121115
-0.070162 20.246120 0.121122
-0.057542 20.246110 0.121131
-0.048079 20.246103 0.121138
-0.029158 20.246088 0.121152
-0.010244 20.246074 0.121166
0.011814 20.246057 0.121183
0.021265 20.246050 0.121190
0.049607 20.246030 0.121210
-0.101214 20.473491 0.050008
0.081080 20.246007 0.121234
0.090519 20.246001 0.121241
0.099955 20.245994 0.121248
0.131399 20.245971 0.121271
0.140829 20.245965 0.121278
0.150257 20.245958 0.121285
-0.209977 20.476963 0.050008
0.159683 20.245951 0.121292
0.170168 20.245697 0.119197
0.205542 20.216114 0.060293
0.179136 20.235104 0.121050
0.209374 20.205821 0.120380
0.219564 20.195956 0.120155
0.229817 20.186028 0.119928
0.247028 20.169365 0.119547
-0.219388 20.183860 0.125975
-0.209737 20.183547 0.125974
-0.167919 20.182184 0.125974
-0.158271 20.181817 0.125973
-0.138975 20.181050 0.125969
-0.119678 20.180283 0.125966
-0.077853 20.179008 0.125967
-0.068200 20.178737 0.125968
-0.039192 20.183844 0.126099
-0.010282 20.191257 0.126281
-0.000676 20.193077 0.126327
0.031413 20.185815 0.126191
0.041066 20.183329 0.126144
0.047508 20.181670 0.126112
-0.038569 20.251436 0.080333
0.079779 20.174372 0.125976
0.089430 20.174040 0.125975
0.071511 20.251437 0.089897
0.102298 20.173598 0.125975
0.202026 20.170329 0.125973
0.221316 20.169881 0.125976
0.230961 20.169657 0.125978
0.240814 20.166560 0.125918
-0.185696 20.019723 0.129173
-0.177569 20.048351 0.129747
-0.169572 20.076519 0.130311
-0.148881 20.251435 0.089664
-0.161949 20.098682 0.130756
-0.141384 20.118582 0.131165
-0.127807 20.131726 0.131434
-0.197797 20.223775 0.079156
-0.121059 20.138260 0.131568
-0.114337 20.144768 0.131702
-0.087845 20.164735 0.132115
-0.078094 20.167290 0.132172
-0.068358 20.169840 0.132229
-0.048937 20.174888 0.132341
-0.039251 20.177377 0.132397
-0.139417 20.251435 0.099130
-0.019915 20.185567 0.129364
-0.000662 20.186642 0.132605
-0.229442 20.177959 0.125839
0.013237 20.186168 0.130468
0.041162 20.176652 0.132434
0.106214 20.152520 0.131996
0.112908 20.146024 0.131871
0.119627 20.139505 0.131746
0.126371 20.132961 0.131620
0.133140 20.126393 0.131494
0.146753 20.113185 0.131240
0.153597 20.106544 0.131112
0.160467 20.099879 0.130984
0.167920 20.082109 0.130636
0.175985 20.053859 0.130080
0.200878 19.846331 0.125975
0.269464 20.047059 0.050010
0.229056 19.845547 0.125977
0.236102 19.845328 0.125977
-0.178976 20.019052 0.135910
-0.170927 20.047155 0.136420
-0.162997 20.074981 0.136924
-0.148881 20.251435 0.080206
-0.155518 20.094685 0.137283
-0.148641 20.101360 0.137407
-0.134968 20.114631 0.137653
-0.197797 20.223775 0.110957
-0.114660 20.134342 0.138019
-0.134582 20.125167 0.131300
-0.107943 20.140862 0.138140
-0.094588 20.153828 0.138380
-0.036080 20.171596 0.138733
-0.029622 20.173291 0.138767
0.140585 20.251438 0.089970
-0.003862 20.180014 0.138903
0.002565 20.180350 0.138913
0.012219 20.177803 0.138873
0.021885 20.175253 0.138832
0.041256 20.170143 0.138752
0.050961 20.167583 0.138711
0.070409 20.162453 0.138630
0.106560 20.142106 0.138285
0.126782 20.122430 0.137943
0.169409 20.052489 0.136711
0.177540 20.024036 0.136204
-0.163818 20.056429 0.143265
-0.155895 20.085779 0.143741
-0.128357 20.115897 0.144240
-0.119262 20.126619 0.142238
-0.108081 20.136107 0.144575
-0.099110 20.146531 0.142581
-0.068502 20.161724 0.141773
0.067221 20.160723 0.145061
0.089978 20.154931 0.141744
0.131447 20.114564 0.142170
0.140504 20.106457 0.140948
0.150788 20.096367 0.140778
0.154366 20.090013 0.143969
0.162285 20.062301 0.143527
0.178716 20.001482 0.142558
-0.163987 20.052614 0.149886
-0.156054 20.082029 0.150307
-0.128399 20.114704 0.150783
-0.118230 20.124843 0.150931
-0.108116 20.134929 0.151079
-0.098069 20.144947 0.151225
-0.088090 20.154293 0.151363
-0.078308 20.156909 0.151404
-0.068541 20.159522 0.151446
-0.029643 20.169926 0.151611
0.062084 20.251437 0.071010
-0.019959 20.172931 0.148435
-0.010293 20.175516 0.148479
0.140585 20.251438 0.061676
-0.000643 20.177418 0.148513
0.012236 20.175014 0.148482
0.021910 20.172426 0.148448
0.032677 20.169409 0.149482
0.041298 20.167241 0.148379
0.051012 20.164643 0.148344
0.060738 20.162042 0.148310
0.071564 20.159007 0.149346
0.086751 20.154668 0.151447
0.198791 20.222864 0.098592
0.093362 20.149726 0.151380
0.113484 20.129647 0.151104
0.120243 20.122903 0.151012
0.127027 20.116134 0.150919
0.133837 20.109339 0.150825
0.140673 20.102519 0.150732
0.147535 20.095672 0.150638
-0.209044 20.350013 0.050008
0.154453 20.088148 0.150534
0.170629 20.028220 0.149691
-0.164156 20.048791 0.156521
0.060763 20.160788 0.157986
-0.172324 20.016861 0.159502
-0.164325 20.044960 0.163170
-0.149002 20.092421 0.160366
-0.128461 20.112913 0.160606
-0.121669 20.119689 0.160686
-0.114905 20.126437 0.160765
-0.108167 20.133159 0.160843
-0.101473 20.139266 0.164172
-0.096996 20.144495 0.159891
-0.088119 20.153017 0.161076
-0.078334 20.155652 0.161109
-0.062066 20.159589 0.164396
-0.049074 20.163482 0.161209
-0.039355 20.166082 0.161242
-0.029651 20.168679 0.161275
0.062084 20.251437 0.080448
-0.018889 20.171697 0.160238
-0.010294 20.173859 0.161341
0.140585 20.251438 0.071107
-0.000639 20.175761 0.161366
0.012245 20.173354 0.161343
0.021924 20.170764 0.161317
0.041322 20.165574 0.161265
0.051041 20.162974 0.161239
0.070517 20.157763 0.161187
0.086786 20.153410 0.161144
0.081036 20.467674 0.050008
0.198791 20.222864 0.070071
0.093414 20.147966 0.161085
0.100099 20.141291 0.161011
0.113547 20.127867 0.160864
0.127097 20.114340 0.160715
0.133910 20.107538 0.160640
0.246602 20.175060 0.100405
0.140776 20.100108 0.163845
0.147615 20.093857 0.160490
0.154719 20.082434 0.160364
0.170926 20.022308 0.159688
-0.139417 20.251435 0.070761
-0.172594 20.011007 0.169575
-0.142197 20.097472 0.170319
-0.135347 20.104310 0.170379
-0.128523 20.111121 0.170439
-0.121728 20.117903 0.170499
-0.114960 20.124659 0.170558
-0.108219 20.131388 0.170617
-0.101505 20.138089 0.170676
-0.094817 20.144764 0.170735
-0.088157 20.151412 0.170793
-0.078360 20.154394 0.170821
-0.068585 20.157011 0.170846
-0.062079 20.158752 0.170863
-0.049089 20.162230 0.170896
-0.039367 20.164833 0.170920
-0.029659 20.167432 0.170945
-0.023197 20.169161 0.170962
0.062084 20.251437 0.052134
-0.016742 20.170889 0.170978
-0.010295 20.172615 0.170995
0.021935 20.169517 0.170977
0.031632 20.166922 0.170958
0.041340 20.164324 0.170938
0.051063 20.161721 0.170919
0.070546 20.156507 0.170879
0.086821 20.152150 0.170847
0.093466 20.146204 0.170798
0.100155 20.139523 0.170743
0.113610 20.126085 0.170632
-0.200087 20.183234 0.125974
0.127167 20.112544 0.170521
0.070256 20.169146 0.132303
0.133984 20.105736 0.170465
0.246602 20.175060 0.090766
0.140827 20.098901 0.170408
0.163036 20.046796 0.169971
0.071640 20.246014 0.121227
0.171224 20.016379 0.169714
0.127213 20.111346 0.177064
0.147751 20.090828 0.176932
0.163224 20.042898 0.176618
-0.172865 20.005132 0.179685
-0.164750 20.035345 0.179858
-0.156773 20.065048 0.180028
-0.142267 20.095663 0.180203
-0.135413 20.102509 0.180243
-0.121787 20.116116 0.180323
-0.115015 20.122879 0.180362
-0.101553 20.136323 0.180441
-0.094862 20.143005 0.180480
0.040083 20.251437 0.099304
-0.088198 20.149660 0.180519
-0.078385 20.153135 0.180541
0.060192 20.341420 0.050008
-0.058848 20.158367 0.180574
-0.039378 20.163582 0.180607
-0.029667 20.166182 0.180623
-0.019974 20.168778 0.180640
-0.010296 20.171370 0.180656
0.015490 20.169582 0.183875
0.021946 20.168269 0.180645
0.041358 20.163071 0.180619
0.054328 20.159599 0.180601
0.070574 20.155249 0.180580
0.086856 20.150890 0.180558
0.198791 20.222864 0.089085
0.093518 20.144440 0.180523
0.100211 20.137753 0.180486
0.113673 20.124301 0.180412
0.120442 20.117537 0.180375
0.131792 20.106003 0.181404
0.147805 20.089615 0.183517
0.155342 20.069029 0.183421
0.163413 20.038992 0.183280
0.171623 20.008440 0.183137
-0.157014 20.059353 0.189997
-0.149223 20.086973 0.190076
-0.121845 20.114327 0.190156
-0.115070 20.121097 0.190176
-0.101601 20.134555 0.190215
-0.094906 20.141244 0.190235
-0.088239 20.147906 0.190254
-0.078411 20.151875 0.190267
-0.049119 20.159723 0.190291
-0.039390 20.162330 0.190300
-0.029675 20.164933 0.190308
-0.010297 20.170125 0.190324
0.009040 20.170479 0.190327
0.015495 20.168750 0.190323
0.031661 20.164421 0.190312
0.041376 20.161819 0.190306
0.051106 20.159213 0.190299
0.100266 20.135981 0.190238
0.051884 20.176105 0.130287
0.110362 20.125888 0.190210
0.120508 20.115744 0.190182
0.130719 20.105536 0.190154
0.140982 20.095276 0.190126
0.147859 20.088401 0.190107
0.163603 20.035078 0.189957
0.171823 20.004458 0.189871
0.041388 20.160983 0.196768
0.155700 20.061323 0.196677
-0.079356 20.158389 0.142790
0.163792 20.031154 0.196649
0.172024 20.000464 0.196620
-0.165264 20.023739 0.200002
-0.157256 20.053637 0.200002
-0.149382 20.083032 0.200002
-0.118515 20.115925 0.200001
0.211671 20.170105 0.125975
-0.098300 20.136133 0.200001
0.040083 20.251437 0.115038
-0.088280 20.146150 0.200001
-0.075173 20.151489 0.200000
-0.068652 20.153237 0.200000
-0.038319 20.161506 0.198922
-0.010297 20.168878 0.200000
0.012275 20.168366 0.200000
-0.110028 20.179924 0.125965
0.021968 20.165770 0.200000
0.011240 20.342981 0.050008
0.031675 20.163169 0.200000
0.041400 20.160147 0.203233
0.051128 20.157957 0.200000
0.100322 20.134207 0.200001
0.109291 20.125428 0.198911
0.113819 20.120131 0.203269
0.120575 20.113950 0.200001
0.129645 20.105070 0.198905
0.134230 20.099713 0.203287
0.192380 20.170552 0.125971
0.141060 20.093460 0.200001
0.147940 20.086578 0.200001
-0.000790 20.246067 0.121173
0.155880 20.057458 0.203327
-0.165522 20.017909 0.210121
-0.157498 20.047904 0.210036
-0.149610 20.077395 0.209951
-0.142477 20.090226 0.209914
-0.135611 20.097093 0.209894
-0.118572 20.114135 0.209844
-0.049149 20.157213 0.209716
-0.036170 20.160693 0.209705
-0.029691 20.162430 0.209699
-0.019987 20.165032 0.209691
-0.000626 20.169536 0.209676
0.021979 20.164519 0.209689
0.031690 20.161916 0.209695
0.041412 20.159310 0.209702
0.051149 20.156701 0.209708
0.100378 20.132431 0.209772
0.107107 20.125697 0.209791
0.113861 20.118938 0.209810
0.042029 20.116527 0.540526
-0.036983 20.062170 0.968785
0.019220 20.104699 0.679780
-0.096556 20.076013 0.551579
-0.089759 20.082934 0.550864
-0.083003 20.089222 0.553515
0.106929 20.131039 0.180449
-0.049680 20.113105 0.550991
-0.016868 20.122030 0.549982
0.097392 20.013227 0.749360
0.102213 20.074014 0.531268
-0.023283 20.149932 0.320053
0.042048 20.115240 0.550479
0.115651 20.068072 0.488656
-0.118858 20.105161 0.259219
-0.078515 20.146826 0.229243
0.095501 20.077283 0.550838
-0.049337 20.141650 0.330132
-0.103414 20.067839 0.559070
-0.083029 20.088011 0.560248
-0.016871 20.121175 0.556612
-0.043051 20.120036 0.510986
0.102386 20.068493 0.561650
0.109350 20.058336 0.562674
-0.010340 20.107084 0.679581
-0.016998 20.071750 0.940006
-0.118220 20.019391 0.574179
0.106752 20.136365 0.151196
-0.049696 20.111816 0.560966
-0.049541 20.124665 0.461549
-0.010330 20.122528 0.559721
0.102155 20.075850 0.521161
-0.110604 20.049349 0.571009
0.162544 20.251438 0.061705
-0.070167 20.067757 0.748426
0.061812 20.108599 0.560931
-0.095686 20.110430 0.360926
0.068502 20.102402 0.561553
-0.050027 20.084298 0.768898
-0.023600 20.079135 0.868949
0.011782 20.251437 0.089834
0.101525 20.095924 0.410687
0.106811 20.134592 0.160938
-0.049711 20.110526 0.570948
-0.049521 20.126371 0.448348
0.009090 20.160472 0.267908
-0.010330 20.121246 0.569668
0.102098 20.077685 0.511066
-0.023193 20.169992 0.164517
0.042085 20.112663 0.570407
-0.118100 20.023276 0.567036
0.068056 20.122693 0.438540
0.068542 20.100593 0.571607
-0.010338 20.109667 0.659530
-0.137371 20.049070 0.363831
-0.083107 20.084374 0.580474
0.016160 20.072032 0.939723
-0.076354 20.091260 0.579702
-0.069629 20.098119 0.578932
-0.010331 20.120391 0.576304
0.102040 20.079517 0.500980
-0.020060 20.144492 0.368985
0.031899 20.143857 0.349443
-0.110939 20.037840 0.592338
0.069755 20.045427 0.878160
-0.039853 20.111924 0.580609
-0.029995 20.114609 0.580280
0.094376 20.115379 0.340773
-0.016974 20.080960 0.868560
0.062261 20.086261 0.688741
0.144526 20.012351 0.385334
-0.058981 20.075268 0.769306
-0.117979 20.027152 0.559909
-0.016949 20.090993 0.790738
-0.111051 20.033987 0.599479
-0.070997 20.020872 0.937627
-0.058008 20.141980 0.309525
-0.236350 20.171264 0.125689
0.035076 20.149305 0.300548
-0.079768 20.085999 0.590207
-0.128711 20.105732 0.200001
0.016166 20.071151 0.946545
-0.108374 20.126063 0.200001
0.111742 20.085599 0.411292
-0.059653 20.104351 0.591375
-0.043155 20.109738 0.590710
0.071511 20.251437 0.052147
-0.030003 20.113321 0.590259
0.090038 20.114717 0.369184
0.062297 20.084434 0.698908
-0.010286 20.184820 0.132563
-0.109383 20.091348 0.391555
0.031646 20.165672 0.180632
0.144356 20.016317 0.378396
-0.156293 20.076386 0.160183
0.033280 20.118755 0.541425
0.117754 20.008304 0.601547
0.093345 20.075720 0.571972
0.031884 20.145123 0.339645
-0.103631 20.059856 0.603205
0.031870 20.146388 0.329854
-0.000521 20.120614 0.589333
-0.079805 20.084179 0.600335
0.075390 20.088881 0.599230
0.088952 20.075047 0.600764
0.030841 20.141756 0.367956
-0.103733 20.056103 0.610307
0.009412 20.095700 0.770029
-0.137512 20.045241 0.370703
-0.040975 20.108901 0.601743
-0.050262 20.064771 0.878508
-0.075755 20.121816 0.409462
-0.091558 20.006021 0.808910
0.091115 20.115181 0.360430
0.121042 20.101336 0.269012
-0.030199 20.082560 0.828632
0.144187 20.020273 0.371474
0.019139 20.115034 0.599720
-0.057463 20.251436 0.099210
0.110194 20.033000 0.608851
0.031914 20.142590 0.359247
-0.103837 20.052288 0.617430
-0.029539 20.186319 0.126160
-0.076461 20.085812 0.610057
-0.050240 20.066611 0.868179
0.075174 20.097969 0.548829
-0.020169 20.113428 0.609887
0.116781 20.035957 0.551564
0.019149 20.113745 0.609701
0.035578 20.109284 0.610166
0.231524 20.335950 0.050008
0.009393 20.099603 0.739769
-0.090058 20.070133 0.621913
-0.083264 20.077076 0.621053
0.031065 20.469270 0.050008
0.122421 20.064156 0.449104
-0.070860 20.028629 0.922576
-0.056392 20.102260 0.621216
-0.069533 20.103530 0.548735
-0.101793 20.127465 0.229415
0.068225 20.115014 0.491468
0.111802 20.115620 0.240367
-0.010335 20.114823 0.619517
0.032304 20.108885 0.620071
-0.249219 20.172360 0.090171
-0.010300 20.165132 0.229069
-0.076532 20.082171 0.630347
-0.010320 20.136565 0.450782
-0.069789 20.089066 0.629473
-0.207951 20.213623 0.101110
0.039267 20.078839 0.838832
-0.056410 20.100963 0.631249
-0.090607 20.046695 0.731748
-0.023462 20.109954 0.630005
0.041765 20.134872 0.398674
-0.069565 20.101728 0.558790
0.130840 20.018265 0.479256
0.022274 20.130816 0.470694
-0.049950 20.344934 0.050008
-0.101745 20.129240 0.219600
-0.016895 20.111746 0.629757
0.070414 20.114742 0.480567
0.120375 20.119327 0.170577
-0.010336 20.113536 0.629509
-0.249219 20.172360 0.061098
-0.010299 20.166382 0.219373
-0.019355 20.343958 0.050008
0.032037 20.131995 0.441237
0.127588 20.101731 0.229571
0.089105 20.069529 0.631251
0.022048 20.156574 0.271215
0.110785 20.015248 0.641207
-0.096974 20.059471 0.643214
0.179518 20.170851 0.125969
-0.111501 20.018491 0.628197
-0.069821 20.087249 0.639611
-0.000801 20.251436 0.089820
-0.089844 20.079286 0.571111
0.059356 20.065862 0.821153
0.110917 20.011274 0.648442
0.036058 20.070964 0.906639
0.095863 20.065014 0.618494
-0.021278 20.109117 0.641044
0.041710 20.138687 0.369174
-0.029987 20.115896 0.570307
0.089054 20.071370 0.621077
-0.242633 20.174026 0.119288
0.031840 20.148916 0.310295
-0.010337 20.112247 0.639509
0.032334 20.106298 0.640090
0.096136 20.055754 0.669548
-0.168823 20.475649 0.050008
0.051009 20.101366 0.639543
-0.050351 20.057393 0.919928
-0.167815 20.251435 0.099103
0.062090 20.094757 0.641432
-0.129954 20.251435 0.051861
-0.098346 20.134365 0.209785
-0.010354 20.087583 0.830919
-0.104464 20.029231 0.660493
0.131257 20.172505 0.125971
0.093639 20.140319 0.203250
-0.039626 20.136676 0.388947
-0.111671 20.012644 0.639034
-0.069853 20.085431 0.649762
-0.049428 20.134027 0.389109
0.041728 20.137416 0.379000
-0.020256 20.088780 0.801038
-0.090001 20.072578 0.608339
-0.010338 20.110958 0.649515
0.032349 20.105003 0.650110
-0.029638 20.170757 0.145172
-0.083224 20.078904 0.610893
0.101613 20.467017 0.050008
0.019513 20.067153 0.970625
-0.050329 20.059240 0.909556
0.055436 20.098727 0.650828
-0.167815 20.251435 0.089644
0.062126 20.092940 0.651550
0.103471 20.033968 0.659019
-0.090216 20.063390 0.659338
-0.049820 20.101468 0.641034
0.028792 20.130752 0.457637
-0.069607 20.099323 0.572213
-0.076640 20.076694 0.660860
-0.167815 20.251435 0.080185
0.062151 20.091727 0.658301
0.148853 20.066131 0.239826
0.081877 20.092919 0.539427
-0.104622 20.023419 0.671349
0.093674 20.139139 0.209754
-0.039637 20.135404 0.398793
-0.043251 20.100243 0.664208
-0.010346 20.099309 0.739913
0.041826 20.130623 0.431528
0.009343 20.109539 0.662745
0.071097 20.084559 0.648193
0.019200 20.107288 0.659720
0.131171 20.251438 0.080528
-0.063642 20.060006 0.829545
0.061605 20.118907 0.481345
0.052157 20.098325 0.660767
0.156876 20.036042 0.240165
-0.104780 20.017591 0.682236
-0.116525 20.074111 0.448939
-0.076676 20.074865 0.671053
0.042216 20.103612 0.640390
0.074658 20.119586 0.428929
-0.063188 20.088687 0.669139
-0.030069 20.102984 0.670365
-0.020197 20.105682 0.669958
-0.010346 20.098011 0.749994
-0.010339 20.108376 0.669551
-0.020315 20.072152 0.929990
0.011782 20.251437 0.070948
0.101411 20.099549 0.390736
-0.003778 20.110168 0.669280
-0.077097 20.053381 0.790755
0.021218 20.251437 0.108728
0.029195 20.092903 0.750601
-0.235348 20.186229 0.100281
0.002781 20.110465 0.669212
0.068889 20.084834 0.659179
-0.103941 20.048464 0.624568
0.019210 20.105994 0.669746
-0.029979 20.117181 0.560343
0.042272 20.099719 0.670495
0.052179 20.097024 0.670816
0.103348 20.037888 0.651819
-0.000576 20.146514 0.388339
0.212318 20.209339 0.088652
-0.030232 20.077307 0.869339
-0.142337 20.093853 0.190096
0.075217 20.096155 0.558888
-0.109630 20.082864 0.438371
-0.023641 20.069914 0.940438
0.109868 20.042789 0.591011
-0.076711 20.073034 0.681255
0.009303 20.117705 0.599448
0.015885 20.112058 0.629588
-0.090303 20.059701 0.679812
-0.016922 20.101400 0.710007
0.042160 20.107497 0.610353
0.140585 20.251438 0.099401
-0.063217 20.086870 0.679299
-0.056510 20.093752 0.678326
0.212318 20.209339 0.060020
-0.030224 20.078622 0.859150
-0.138976 20.095470 0.200001
0.075260 20.094339 0.568958
0.022137 20.146486 0.349342
0.112338 20.251438 0.080506
0.127800 20.096298 0.259235
-0.016792 20.151680 0.319984
0.096347 20.048608 0.683847
0.015894 20.110767 0.639590
-0.016924 20.100536 0.716716
-0.090346 20.057854 0.690064
-0.021432 20.069059 0.951674
-0.039973 20.098981 0.680830
0.143014 20.047729 0.323443
-0.030077 20.101687 0.680413
-0.104045 20.044633 0.631722
0.009354 20.107384 0.679452
0.042366 20.093211 0.720820
0.031294 20.101556 0.679064
-0.039925 20.104170 0.640652
0.035697 20.099782 0.683676
0.042291 20.098419 0.680545
0.052206 20.095491 0.680906
-0.000579 20.147778 0.378531
0.096462 20.044712 0.691062
-0.039842 20.113213 0.570628
-0.069983 20.078139 0.690468
0.009309 20.116418 0.609422
0.140585 20.251438 0.108832
-0.063245 20.085051 0.689470
-0.076568 20.080347 0.640507
0.068028 20.123974 0.428652
-0.010317 20.139951 0.424506
-0.056535 20.091941 0.688476
-0.020020 20.155841 0.280974
-0.039984 20.097681 0.690893
-0.104149 20.040795 0.638892
0.124159 20.017260 0.533203
-0.020206 20.103093 0.690041
-0.010348 20.095409 0.770180
0.041808 20.131899 0.421664
0.009360 20.106090 0.689486
0.035806 20.091100 0.750853
-0.039937 20.102874 0.650685
0.136473 20.044793 0.380323
-0.249219 20.172360 0.070789
-0.010298 20.167630 0.209683
0.035708 20.098916 0.690378
0.089003 20.073209 0.610916
0.042309 20.097119 0.690602
0.052233 20.093931 0.691006
-0.000570 20.143562 0.411250
0.081736 20.098364 0.509285
-0.090259 20.061546 0.669569
0.032022 20.133270 0.431371
0.127635 20.100525 0.236155
0.096233 20.052496 0.676648
0.082584 20.065435 0.691565
0.091020 20.000231 0.825816
0.080393 20.150535 0.196759
-0.099395 20.094398 0.430964
0.009292 20.119847 0.582840
-0.059917 20.086679 0.699144
-0.094356 20.163029 0.132077
-0.058566 20.103686 0.600218
0.075828 20.070564 0.700827
0.022026 20.159087 0.251755
-0.131380 20.028944 0.452176
-0.097762 20.028335 0.714372
-0.082769 20.100080 0.493131
0.061838 20.107307 0.570912
-0.095640 20.112223 0.350996
0.118036 20.000309 0.615974
-0.039996 20.096381 0.700964
-0.000490 20.106439 0.699337
0.021218 20.251437 0.099286
0.032455 20.095912 0.720463
0.184197 20.024829 0.129509
0.009367 20.104794 0.699528
0.037992 20.091949 0.739716
-0.039901 20.106758 0.620608
-0.050225 20.067837 0.861300
0.092257 20.075244 0.580858
0.042328 20.095817 0.700667
0.116643 20.039872 0.544486
0.051149 20.093122 0.699915
-0.059402 20.121142 0.468384
0.055593 20.090116 0.704724
0.087551 20.125724 0.320776
0.096751 20.034934 0.709171
-0.020119 20.127540 0.500449
0.070719 20.148949 0.229185
-0.097860 20.024462 0.721664
-0.082873 20.095262 0.519922
0.087683 20.120961 0.347092
0.009296 20.118990 0.589480
-0.040008 20.095079 0.711042
0.061944 20.102007 0.601065
-0.098875 20.114199 0.321387
-0.084434 20.022667 0.829604
-0.023508 20.099597 0.710302
0.031748 20.156896 0.248546
-0.089802 20.081111 0.560982
0.075798 20.071791 0.694020
-0.139076 20.002561 0.447290
0.022545 20.099910 0.710041
-0.039913 20.105465 0.630626
-0.050203 20.069674 0.850991
-0.249219 20.172360 0.054638
0.032440 20.097214 0.710390
0.042347 20.094515 0.710739
-0.103099 20.079442 0.494923
0.048960 20.092713 0.710972
-0.056134 20.120750 0.478227
0.055615 20.088902 0.711500
0.089735 20.125454 0.309901
0.147228 20.102534 0.137597
0.062334 20.082606 0.709086
-0.155067 20.105341 0.130893
0.032319 20.107592 0.630077
0.015962 20.100839 0.716515
-0.039484 20.471522 0.050008
-0.102687 20.094592 0.411162
-0.016897 20.110886 0.636426
0.222134 20.463172 0.050008
-0.036913 20.070642 0.907173
-0.068929 20.137635 0.320534
-0.098568 20.246141 0.121101
-0.020201 20.104388 0.679996
-0.010347 20.096711 0.760083
0.041783 20.133598 0.408522
0.112159 20.073390 0.478286
0.101868 20.085003 0.470788
0.015761 20.130029 0.490345
0.055637 20.087687 0.718280
0.062371 20.080776 0.719274
0.069130 20.073840 0.720272
-0.157661 20.044072 0.216744
-0.049727 20.109235 0.580939
0.072603 20.114412 0.469671
0.015956 20.101705 0.709809
0.082727 20.059887 0.722280
0.061656 20.116336 0.501197
0.088197 20.102379 0.449757
-0.040020 20.093777 0.721128
0.061908 20.103815 0.590999
-0.095550 20.115803 0.331165
-0.021318 20.098756 0.721392
0.031762 20.155638 0.258277
0.093779 20.135596 0.229292
0.020360 20.099064 0.721147
-0.235348 20.186229 0.109931
-0.000501 20.111607 0.659231
-0.049961 20.089752 0.731684
-0.040032 20.092473 0.731221
0.143180 20.043833 0.330259
-0.110827 20.041685 0.585213
-0.235717 20.180710 0.119451
-0.000515 20.118045 0.609267
-0.070723 20.036351 0.907591
0.061872 20.105621 0.580945
-0.095595 20.114014 0.341075
-0.020224 20.097902 0.730298
-0.158348 20.251435 0.080196
-0.010345 20.100608 0.729838
-0.000496 20.109025 0.679269
-0.077061 20.055232 0.780438
0.029181 20.094207 0.740508
-0.020151 20.118573 0.569988
-0.097469 20.039904 0.692591
-0.110002 20.070060 0.509022
0.021218 20.251437 0.089844
0.032470 20.094609 0.730543
0.099543 20.158992 0.132120
-0.000493 20.107732 0.689299
0.053448 20.087275 0.729357
0.062408 20.078944 0.729474
-0.020306 20.074788 0.909547
-0.010341 20.105790 0.689617
-0.049742 20.107943 0.590936
0.107584 20.111371 0.288484
-0.000801 20.251437 0.061488
0.019240 20.102105 0.699869
-0.098254 20.008884 0.750992
-0.082255 20.123970 0.360279
0.009237 20.130944 0.496809
0.151977 20.338491 0.050008
-0.080207 20.064651 0.709036
-0.152247 20.012205 0.325016
0.009495 20.079122 0.898545
0.015628 20.149499 0.339488
-0.050478 20.046886 0.978904
-0.057261 20.039821 0.980509
-0.083685 20.057468 0.730095
-0.118060 20.095676 0.317657
0.099938 20.146426 0.141605
-0.029707 20.159925 0.229119
0.018298 20.081666 0.860491
0.070246 20.023068 0.939602
0.041881 20.126790 0.461167
0.114558 20.099132 0.318388
-0.050418 20.051838 0.951107
-0.068675 20.151977 0.209732
0.000642 20.091033 0.819233
0.062444 20.077111 0.739684
-0.020310 20.073470 0.919764
-0.010342 20.104496 0.699661
0.011782 20.251437 0.080391
0.101468 20.097738 0.400706
-0.110715 20.045521 0.578103
0.162544 20.251438 0.089993
-0.070264 20.062236 0.779250
-0.207951 20.213623 0.069210
0.039321 20.074869 0.869381
0.049640 20.051037 0.960606
0.009501 20.077806 0.908744
-0.039818 20.115788 0.550688
0.029264 20.086368 0.801181
0.212318 20.209339 0.079108
-0.030241 20.075991 0.879534
-0.018907 20.470866 0.050008
0.070850 20.095485 0.587512
-0.010323 20.131474 0.490294
-0.120493 20.251436 0.089694
0.145037 20.000387 0.406242
0.124306 20.013295 0.540312
-0.000801 20.251437 0.052044
0.019230 20.103403 0.689820
-0.070102 20.071428 0.727931
0.076004 20.063182 0.741764
0.039341 20.073356 0.879615
-0.064091 20.031603 0.968937
-0.152089 20.016107 0.318129
-0.118643 20.005725 0.599305
-0.050463 20.048125 0.971948
-0.235348 20.186229 0.071330
-0.000512 20.116759 0.619245
0.089326 20.061527 0.675457
-0.057037 20.055926 0.890259
0.094553 20.109387 0.373811
-0.000440 20.082991 0.881301
0.120842 20.106753 0.239374
0.009277 20.122841 0.559624
0.049518 20.058471 0.919057
0.135103 20.078352 0.319073
0.032215 20.116623 0.560194
-0.090723 20.179370 0.125966
0.076702 20.033911 0.866922
0.062989 20.049992 0.890671
0.056399 20.045851 0.951655
0.069796 20.043558 0.888546
-0.143808 20.055682 0.300125
0.012305 20.163364 0.238771
-0.059023 20.146610 0.271476
0.099779 20.251437 0.071057
-0.056265 20.111314 0.551193
0.049347 20.068949 0.860493
0.012367 20.152895 0.319909
0.082300 20.076481 0.630423
-0.000449 20.086921 0.850802
0.081134 20.121764 0.379748
0.009471 20.083937 0.861218
0.121603 20.172873 0.125972
-0.036575 20.111530 0.590485
-0.076747 20.071200 0.691469
0.060847 20.156604 0.190293
-0.040215 20.072645 0.880245
-0.049758 20.106650 0.600941
0.082253 20.078315 0.620269
0.061630 20.117622 0.491267
0.083320 20.036865 0.809406
0.049088 20.084854 0.771596
-0.030249 20.074675 0.889738
0.239691 20.181970 0.090981
0.019301 20.094302 0.760319
-0.105205 20.001952 0.711450
0.155163 20.072870 0.176815
-0.010332 20.118680 0.589586
-0.043690 20.057012 0.959960
0.049227 20.076308 0.819363
-0.043260 20.099378 0.670910
0.087947 20.111395 0.399943
0.055870 20.074873 0.789761
-0.010240 20.251436 0.061476
0.107904 20.101753 0.341310
-0.068839 20.142710 0.281322
-0.010359 20.079721 0.891931
-0.228830 20.187368 0.119613
-0.000437 20.081679 0.891481
0.120775 20.108555 0.229515
0.069837 20.041687 0.898943
0.164460 20.017352 0.220188
-0.043366 20.088956 0.751590
0.077126 20.016152 0.900577
0.051889 20.113856 0.540758
0.061288 20.134679 0.359570
-0.030308 20.065430 0.961377
0.240123 20.176050 0.119700
0.022636 20.089484 0.790780
0.056038 20.065663 0.841139
0.029597 20.342395 0.050008
0.089292 20.062760 0.668643
-0.057063 20.054075 0.900631
-0.043584 20.067458 0.901211
-0.030258 20.073357 0.899949
-0.111956 20.002859 0.657168
0.140910 20.172136 0.125970
-0.042545 20.169898 0.138699
-0.068786 20.145664 0.258502
0.086996 20.145822 0.209736
-0.010332 20.119536 0.582943
-0.043671 20.058860 0.949567
0.049257 20.074471 0.829630
-0.122081 20.107152 0.229593
-0.020301 20.076104 0.899337
0.009283 20.121559 0.569568
0.049549 20.056616 0.929427
0.135289 20.073794 0.329163
0.049690 20.047930 0.977970
-0.148929 20.094233 0.150483
0.009258 20.126684 0.529832
0.019281 20.096907 0.740139
0.019431 20.077712 0.888829
0.068688 20.093943 0.608561
-0.010322 20.134021 0.470524
0.108449 20.085402 0.431121
0.095808 20.066860 0.608315
-0.049946 20.091058 0.721582
0.089603 20.051511 0.730159
-0.131920 20.013401 0.480296
0.141449 20.084355 0.249526
0.029344 20.078933 0.858734
0.076166 20.056389 0.779443
0.088097 20.105991 0.429801
-0.144029 20.049957 0.310314
0.051250 20.087209 0.740383
0.063027 20.048128 0.901051
0.109221 20.062201 0.555629
0.029470 20.067059 0.950647
0.069864 20.040438 0.905880
0.164748 20.011405 0.230330
-0.063016 20.099550 0.608396
-0.040113 20.083758 0.798703
-0.010240 20.251436 0.070921
0.107944 20.100547 0.347933
0.032245 20.114047 0.580124
-0.097178 20.051405 0.670950
-0.077024 20.057083 0.770130
-0.111388 20.022377 0.620994
-0.049805 20.102765 0.630999
-0.076952 20.060776 0.749549
0.089241 20.064609 0.658431
-0.057089 20.052222 0.911013
0.049327 20.070177 0.853626
0.012359 20.154154 0.310147
0.082347 20.074645 0.640586
-0.000451 20.088229 0.840652
0.009264 20.125404 0.539756
0.049579 20.054758 0.939809
-0.069886 20.083611 0.659922
0.022375 20.119290 0.559949
-0.137091 20.056704 0.350132
0.056263 20.053307 0.910066
-0.029971 20.118467 0.550385
0.049307 20.071405 0.846764
-0.049490 20.128927 0.428573
0.049670 20.049174 0.971020
-0.148880 20.095440 0.143900
0.013594 20.129199 0.501298
-0.043357 20.089827 0.744849
0.082489 20.069125 0.671141
0.056229 20.055166 0.899697
-0.036661 20.101182 0.670638
-0.058590 20.175758 0.129134
-0.149149 20.088790 0.180163
0.041430 20.158055 0.219411
-0.069310 20.116090 0.478635
-0.041375 20.067000 0.912366
0.080599 20.142529 0.258474
-0.049195 20.153440 0.238906
-0.030266 20.072038 0.910168
-0.089083 20.111846 0.390395
-0.111842 20.006780 0.649902
-0.039340 20.167748 0.148348
-0.068816 20.143977 0.271537
0.049168 20.079975 0.798863
-0.049572 20.122103 0.481373
0.082221 20.079536 0.613507
-0.129327 20.180666 0.125968
-0.064030 20.035462 0.961392
0.123284 20.040863 0.490875
-0.117146 20.054053 0.510450
0.114643 20.096716 0.331634
-0.050433 20.050601 0.958049
-0.143150 20.072750 0.269747
-0.010302 20.162214 0.251723
-0.050448 20.049364 0.964996
-0.010307 20.154685 0.310153
0.055937 20.071195 0.810280
-0.089716 20.084755 0.540756
-0.030036 20.108160 0.630253
0.070116 20.028983 0.928301
-0.077679 20.023709 0.879869
-0.249219 20.172360 0.080480
-0.010301 20.163882 0.238773
-0.050307 20.061086 0.899196
0.049488 20.060325 0.908696
-0.048859 20.181365 0.126039
-0.069661 20.096312 0.589020
-0.030191 20.083871 0.818474
-0.109172 20.098587 0.351608
-0.049306 20.144183 0.310531
0.076796 20.029982 0.874371
-0.036960 20.064912 0.951559
-0.090697 20.042860 0.739021
-0.030300 20.066754 0.951120
0.058258 20.065385 0.830102
-0.050396 20.053691 0.940703
-0.083646 20.059316 0.719821
-0.151696 20.025823 0.300979
0.019352 20.087772 0.810900
-0.062858 20.109521 0.551396
0.075434 20.087058 0.609343
0.009328 20.112552 0.639391
0.056421 20.044605 0.958604
-0.030044 20.106867 0.640270
0.114198 20.109363 0.262299
-0.111219 20.028191 0.610221
-0.077413 20.037240 0.853810
0.076609 20.037831 0.859490
0.068423 20.106014 0.541477
-0.057463 20.251436 0.051964
-0.070080 20.072651 0.721109
0.075960 20.065031 0.731514
-0.077267 20.044713 0.839048
0.009339 20.110401 0.656068
0.056490 20.040863 0.979479
0.041863 20.128069 0.451280
-0.110437 20.055076 0.560398
-0.029889 20.131264 0.451214
0.019393 20.082530 0.851502
0.073275 20.085503 0.630449
0.048981 20.091409 0.721057
-0.150222 20.062271 0.236645
0.036146 20.063905 0.961248
-0.036993 20.060941 0.975713
0.042011 20.117813 0.530580
0.069686 20.048538 0.860875
0.012282 20.167117 0.209682
-0.059042 20.145345 0.281252
-0.049883 20.096271 0.681248
-0.070928 20.024755 0.930093
0.042722 20.068545 0.900444
-0.059944 20.084859 0.709326
-0.000416 20.071588 0.969792
0.049513 20.251437 0.089873
0.103164 20.043750 0.641049
-0.057184 20.045412 0.949176
0.089445 20.057203 0.699344
0.082759 20.058651 0.729119
-0.059267 20.055640 0.879212
0.061579 20.120191 0.471429
0.088247 20.100570 0.459750
-0.102835 20.089153 0.441232
0.070632 20.152732 0.200000
0.049438 20.063409 0.891454
0.080767 20.136009 0.300895
0.134725 20.087605 0.269276
0.070595 20.007173 0.969921
-0.128773 20.103932 0.209874
0.019462 20.073760 0.919444
0.089190 20.066455 0.648229
-0.057106 20.050986 0.917941
-0.010324 20.130624 0.496891
-0.108425 20.124284 0.209814
0.108388 20.087227 0.421099
0.082442 20.070967 0.660945
0.108267 20.090870 0.401090
0.042067 20.113952 0.560439
0.072187 20.085030 0.639320
0.140724 20.101314 0.157286
0.036164 20.062501 0.971529
0.009315 20.115130 0.619404
0.056455 20.042735 0.969037
0.062914 20.053715 0.869944
0.239691 20.181970 0.100601
0.019311 20.092998 0.770419
-0.077869 20.013986 0.898600
-0.158348 20.251435 0.111723
0.147697 20.092040 0.170352
-0.010344 20.101905 0.719772
0.069943 20.036838 0.913295
0.116369 20.047675 0.530378
0.041600 20.146292 0.310369
0.042917 20.054970 0.976466
-0.078463 20.149352 0.209741
0.121244 20.095903 0.298743
0.189161 20.225396 0.120828
-0.030319 20.063663 0.975066
0.071936 20.095954 0.578676
-0.010322 20.132748 0.480406
0.144866 20.004388 0.399257
-0.049867 20.097572 0.671183
0.052089 20.102220 0.630664
-0.096417 20.081493 0.521225
0.082807 20.056796 0.739386
-0.056637 20.084675 0.729182
-0.000421 20.074226 0.949319
-0.139658 20.106467 0.141890
0.069333 20.064626 0.771478
0.051978 20.108694 0.580642
0.042234 20.102316 0.650417
0.009534 20.071214 0.959849
0.062481 20.075275 0.749905
-0.120493 20.251436 0.099149
0.101639 20.092292 0.430679
0.089156 20.067685 0.641434
-0.019992 20.163782 0.219389
0.009464 20.085248 0.851055
0.020602 20.069347 0.951325
-0.030144 20.091280 0.761058
-0.049210 20.152181 0.248650
-0.049774 20.105356 0.610953
0.124528 20.007325 0.551009
0.141137 20.091643 0.209884
0.032380 20.102411 0.670173
-0.070015 20.076312 0.700670
0.076033 20.061949 0.748604
0.080152 20.159897 0.138590
0.051911 20.112567 0.550717
-0.096096 20.094212 0.450767
-0.000446 20.085612 0.860961
-0.077984 20.008126 0.909891
0.036047 20.071844 0.899828
0.052000 20.107401 0.590631
0.009538 20.070333 0.966678
0.055837 20.076709 0.779517
-0.120493 20.251436 0.070784
0.144695 20.008376 0.392288
0.101696 20.090472 0.440690
0.063089 20.045016 0.918375
0.029442 20.069705 0.930168
-0.058886 20.155854 0.200000
-0.029749 20.153224 0.281044
-0.000482 20.102553 0.729494
0.042704 20.069774 0.893562
0.042385 20.091907 0.730907
0.009347 20.108678 0.669425
0.049138 20.081806 0.788630
-0.128648 20.107530 0.190136
0.019441 20.076395 0.899026
0.068728 20.092125 0.618663
-0.108322 20.127840 0.190196
0.115092 20.083976 0.401475
0.055420 20.099593 0.644136
0.019109 20.118894 0.569819
-0.090389 20.056004 0.700328
0.222011 19.845745 0.125976
-0.000609 20.161618 0.271125
-0.020210 20.101796 0.700095
-0.010349 20.094108 0.780284
-0.010350 20.092805 0.790396
-0.096633 20.072961 0.568483
0.149997 20.251438 0.108840
0.076515 20.041743 0.852074
0.160219 20.171400 0.125967
0.029414 20.072347 0.909720
-0.071101 20.015033 0.948960
-0.122795 20.085448 0.348889
0.062840 20.057430 0.849261
0.016028 20.091289 0.790510
-0.135479 20.100705 0.190116
0.069211 20.070160 0.740722
-0.071204 20.009179 0.960325
-0.030185 20.084744 0.811707
0.056105 20.061965 0.861766
0.039184 20.084964 0.791455
-0.071274 20.005265 0.967924
-0.118461 20.011595 0.588512
-0.089930 20.075630 0.591400
-0.020265 20.086165 0.821318
-0.030177 20.086053 0.801562
-0.023551 20.090049 0.784331
0.097100 20.023129 0.731032
-0.071343 20.001342 0.975540
-0.063554 20.065534 0.798626
-0.129466 20.084008 0.319168
0.000445 20.170980 0.198926
0.088750 20.082377 0.560264
-0.078489 20.148089 0.219489
-0.098452 20.001044 0.765752
-0.069279 20.117877 0.468663
-0.040275 20.066330 0.921360
-0.030053 20.105574 0.650294
0.114240 20.108163 0.268880
0.068463 20.104209 0.551510
-0.117324 20.048322 0.520987
-0.049634 20.116967 0.521111
0.081970 20.089279 0.559574
0.078136 20.066599 0.710236
-0.010309 20.152168 0.329687
0.063431 20.027985 0.982268
0.106870 20.132816 0.170688
-0.049665 20.114394 0.541024
-0.043709 20.055162 0.970363
-0.076319 20.093072 0.569605
0.048663 20.110879 0.570575
-0.097958 20.020580 0.728972
0.192067 20.229586 0.111441
0.089714 20.164125 0.132216
-0.030314 20.064547 0.968220
-0.000418 20.072907 0.959551
-0.000614 20.164122 0.251689
-0.152405 20.008294 0.331918
0.061760 20.111182 0.540990
0.083472 20.030979 0.820478
0.051301 20.084245 0.760668
0.042873 20.058064 0.959138
-0.138636 20.104496 0.150633
0.069373 20.062777 0.781751
0.131460 20.002350 0.507540
0.062518 20.073438 0.760136
-0.083527 20.064847 0.689062
0.042900 20.056208 0.969531
-0.076283 20.094883 0.559517
0.081550 20.105598 0.469242
-0.081701 20.149739 0.200000
0.121177 20.097716 0.288822
-0.157986 20.036381 0.230205
-0.030274 20.070719 0.920394
-0.124048 20.047296 0.470926
-0.089041 20.113637 0.380454
-0.090967 20.031306 0.760935
-0.059630 20.105898 0.581339
-0.060080 20.075737 0.760394
0.075130 20.099780 0.538780
-0.089125 20.110053 0.400346
-0.090173 20.065231 0.649116
0.089926 20.039816 0.751989
-0.082679 20.104285 0.469750
-0.099111 20.105226 0.371041
-0.030028 20.109452 0.620244
-0.077565 20.029521 0.868675
0.052022 20.106107 0.600628
-0.050284 20.062930 0.888846
-0.010361 20.077531 0.908928
0.095285 20.084604 0.510470
0.035065 20.150146 0.294038
-0.084101 20.038128 0.800050
0.104091 20.014240 0.695264
-0.020138 20.122422 0.540141
0.063240 20.037526 0.960077
0.069727 20.046672 0.871242
-0.039830 20.114501 0.560654
-0.069950 20.079965 0.680275
0.029325 20.080685 0.845170
-0.038963 20.089005 0.760368
-0.070791 20.032494 0.915075
-0.000518 20.119330 0.599296
-0.079515 20.251436 0.061384
0.131072 20.012318 0.489835
-0.090087 20.068909 0.628706
-0.057235 20.041687 0.970054
-0.088666 20.129674 0.291443
0.070961 20.138397 0.310593
-0.029846 20.138051 0.398622
0.063064 20.046262 0.911441
0.076299 20.050811 0.810378
0.110653 20.019208 0.633988
-0.107641 20.151251 0.131835
-0.158313 20.028657 0.243725
-0.158348 20.251435 0.099112
-0.010343 20.103201 0.709713
0.059557 20.055366 0.879646
-0.077793 20.017882 0.891094
0.029498 20.064410 0.971157
-0.020192 20.106976 0.659928
-0.097372 20.043746 0.685362
0.019373 20.085153 0.831186
-0.172055 20.022697 0.149458
0.041974 20.120383 0.510711
0.075477 20.085233 0.619464
0.022454 20.110273 0.629783
0.061734 20.112472 0.531030
-0.056374 20.103556 0.611190
0.069645 20.050402 0.850517
-0.029946 20.122316 0.520557
0.103656 20.028072 0.669853
0.031719 20.159408 0.229106
-0.000543 20.130851 0.509892
-0.090130 20.067071 0.638907
0.049609 20.052899 0.950202
0.012489 20.132188 0.480392
0.182572 20.337512 0.050008
0.029428 20.071026 0.919940
0.009432 20.091788 0.800357
-0.120582 20.085723 0.359901
0.239691 20.181970 0.110220
0.019322 20.091693 0.780529
-0.030160 20.088669 0.781295
-0.000565 20.141027 0.430920
-0.129720 20.076707 0.359223
0.070030 20.032915 0.920790
0.041582 20.147556 0.300594
0.042846 20.059918 0.948754
-0.135281 20.106110 0.160527
0.069400 20.061543 0.788606
0.131304 20.006347 0.500445
0.062175 20.090514 0.665057
0.155521 20.065181 0.190042
0.117127 20.026132 0.569327
0.036130 20.065231 0.950993
0.070464 20.013153 0.958517
0.081923 20.091100 0.549496
0.061981 20.100198 0.611141
0.009484 20.081312 0.881566
-0.122022 20.108949 0.219719
-0.020296 20.077420 0.889136
-0.049352 20.140382 0.339943
-0.084267 20.030413 0.814795
-0.057463 20.251436 0.089760
0.029209 20.091598 0.760702
0.225951 20.195708 0.069052
0.122851 20.052548 0.469920
-0.063984 20.038342 0.950720
0.075361 20.090096 0.592495
0.022465 20.108981 0.639790
0.058631 20.045570 0.940563
0.048832 20.100522 0.650623
-0.101890 20.123909 0.249075
-0.010362 20.074900 0.929352
0.102425 20.067264 0.568415
0.022805 20.070208 0.940063
0.060873 20.155347 0.200000
-0.040201 20.074220 0.869989
0.069278 20.468050 0.050008
0.137840 20.011342 0.439332
0.109162 20.063976 0.548805
0.029456 20.068383 0.940403
0.019362 20.086463 0.821040
-0.171876 20.026577 0.142781
0.041955 20.121666 0.500788
-0.000433 20.079490 0.908467
-0.075895 20.114673 0.449250
-0.158585 20.246187 0.121057
0.091607 20.135859 0.240138
-0.077489 20.033385 0.861235
0.111950 20.173242 0.125974
-0.096142 20.092401 0.460800
0.050834 20.111718 0.559550
0.192067 20.229586 0.079812
-0.030291 20.068076 0.940870
0.035931 20.081060 0.828522
0.076890 20.026044 0.881837
-0.069342 20.114301 0.488619
-0.040298 20.063778 0.938515
0.114899 20.089447 0.371481
0.170334 20.337902 0.050008
0.071511 20.251437 0.071022
-0.030020 20.110742 0.610241
-0.100971 20.157708 0.131967
-0.084769 20.007075 0.859416
0.087898 20.113193 0.390012
-0.020334 20.066868 0.970967
0.108815 20.074416 0.491465
0.101925 20.083177 0.480841
-0.000618 20.165790 0.238748
0.060898 20.154088 0.209715
0.070727 20.001175 0.981359
-0.040186 20.075794 0.859742
0.075740 20.074242 0.680422
-0.091330 20.015789 0.790376
0.051396 20.142397 0.320233
-0.128586 20.109326 0.180283
0.019472 20.072440 0.929665
-0.108270 20.129615 0.180402
0.115027 20.085801 0.391467
0.070603 20.153991 0.190286
0.049408 20.065258 0.881122
0.081195 20.119379 0.392954
-0.049852 20.098872 0.661126
-0.070655 20.040199 0.900123
0.019190 20.108582 0.649701
0.131171 20.251438 0.071096
-0.063671 20.058160 0.839874
-0.020292 20.078734 0.878941
0.009477 20.082625 0.871388
0.061682 20.115049 0.511134
0.068969 20.081177 0.679501
0.039449 20.065442 0.930989
-0.029699 20.161178 0.219406
-0.083421 20.069749 0.661801
-0.083068 20.086193 0.570356
0.077459 20.002195 0.926988
0.009543 20.069452 0.973510
0.038095 20.084101 0.800421
0.056072 20.063815 0.851448
0.049287 20.072632 0.839906
-0.029962 20.119751 0.540435
-0.049505 20.127650 0.438457
0.051641 20.468613 0.050008
0.029484 20.065735 0.960898
-0.050373 20.055543 0.930310
-0.020187 20.108268 0.649904
-0.097275 20.047580 0.678148
0.020445 20.088633 0.801940
-0.123860 20.053029 0.460471
0.060780 20.159952 0.164441
-0.069109 20.127439 0.399307
-0.041256 20.079372 0.830372
0.108146 20.094505 0.381121
0.102599 20.061722 0.598915
-0.010329 20.123809 0.549781
-0.091148 20.023565 0.775624
0.009451 20.087867 0.830753
-0.077698 20.472743 0.050008
0.030651 20.251437 0.099295
0.130226 20.034026 0.451223
0.192067 20.229586 0.070324
-0.030283 20.069398 0.930629
-0.068689 20.151137 0.216224
0.062703 20.064220 0.811456
0.076984 20.022097 0.889319
-0.069374 20.112511 0.498612
-0.039170 20.065889 0.930308
0.114963 20.087625 0.381468
-0.069586 20.100526 0.565499
-0.010360 20.078846 0.898727
-0.030011 20.112032 0.600247
0.095123 20.090075 0.480304
-0.078760 20.134993 0.310856
-0.000435 20.080804 0.898273
0.060861 20.045292 0.929469
0.103966 20.018204 0.687983
0.063313 20.033881 0.970916
-0.010363 20.073582 0.939575
0.091943 20.086227 0.520239
0.099779 20.251437 0.061622
-0.129954 20.251435 0.089684
-0.010312 20.148386 0.359041
-0.081925 20.139325 0.274899
-0.084184 20.034275 0.807414
0.094962 20.095528 0.450234
0.070377 20.017128 0.950937
-0.036895 20.072842 0.890140
-0.030135 20.092585 0.750951
-0.068974 20.135092 0.340183
0.074199 20.138788 0.300820
0.108206 20.092688 0.391101
0.082394 20.072807 0.650761
-0.138503 20.018200 0.419227
0.038249 20.072443 0.888641
0.009271 20.124123 0.549686
0.109998 20.038880 0.598134
-0.069918 20.081789 0.670094
0.128439 20.079899 0.348784
0.056297 20.051446 0.920447
-0.096602 20.074183 0.561718
0.029400 20.073666 0.899507
0.102348 20.069722 0.554890
0.019503 20.068476 0.960373
-0.083448 20.068525 0.668609
0.009521 20.073854 0.939384
-0.036583 20.110670 0.597146
0.041564 20.148819 0.290826
0.067432 20.151084 0.219445
0.068929 20.083006 0.669335
-0.043566 20.069295 0.890880
-0.069247 20.119662 0.458700
0.039427 20.067027 0.920695
0.128864 20.068982 0.389048
0.140585 20.251438 0.052245
0.039471 20.063854 0.941291
0.049108 20.083635 0.778406
0.019421 20.079027 0.878638
0.068648 20.095759 0.598468
-0.010321 20.135294 0.460650
-0.061664 20.044220 0.930498
0.089548 20.053488 0.719865
0.141371 20.086180 0.239600
0.029358 20.077618 0.868916
0.082855 20.054939 0.749664
-0.063729 20.054461 0.860563
0.094695 20.104579 0.400324
0.149630 20.048715 0.270039
-0.056611 20.086494 0.718989
0.040522 20.067828 0.911669
-0.038940 20.091616 0.740147
0.092191 20.115645 0.351676
0.019119 20.117608 0.579779
-0.090432 20.054153 0.710602
0.109738 20.046688 0.583903
0.002626 20.160537 0.280846
-0.010351 20.091501 0.800515
0.019451 20.075078 0.909232
0.068755 20.090912 0.625404
0.011782 20.251437 0.099276
0.101582 20.094109 0.420677
0.138084 20.005366 0.449864
-0.057158 20.047272 0.938753
0.089497 20.055347 0.709599
0.009490 20.079998 0.891751
0.013472 20.148678 0.350340
-0.020024 20.154583 0.290725
0.070661 20.151472 0.209721
0.049468 20.061559 0.901795
0.080721 20.137781 0.291085
0.134799 20.085781 0.279214
0.080632 20.055214 0.760735
-0.063700 20.056311 0.850212
0.055232 20.109955 0.564091
-0.102884 20.087336 0.451277
0.091373 20.106184 0.410085
0.149890 20.042870 0.280178
-0.088790 20.124345 0.321021
0.070990 20.137126 0.320395
0.095918 20.063166 0.628683
-0.235348 20.186229 0.058464
-0.000510 20.115473 0.629230
-0.207951 20.213623 0.110680
-0.029814 20.143124 0.359314
0.082537 20.067281 0.681347
0.056195 20.057023 0.889337
-0.038848 20.102022 0.659565
0.041448 20.156799 0.229126
0.212318 20.209339 0.069564
-0.049134 20.158468 0.200000
-0.030219 20.079498 0.852362
-0.070516 20.048046 0.858462
0.030726 20.151871 0.289673
0.114367 20.104556 0.288652
0.081226 20.118185 0.399564
0.075696 20.076079 0.670237
-0.081951 20.138149 0.281439
0.121716 20.083157 0.368475
0.219286 20.336341 0.050008
0.097275 20.017198 0.742015
-0.100375 20.179641 0.125965
-0.084350 20.026544 0.822192
0.232808 20.188852 0.091196
-0.020329 20.068190 0.960710
0.101983 20.081348 0.490906
0.113182 20.075702 0.459341
-0.000620 20.167040 0.229050
0.029386 20.074984 0.889303
-0.116299 20.081422 0.408673
-0.084853 20.003156 0.866910
0.087848 20.114988 0.380090
-0.049914 20.093666 0.701400
0.090470 20.020151 0.788694
0.157700 20.018327 0.270637
0.076255 20.052672 0.800056
-0.083487 20.066687 0.678831
-0.091239 20.019681 0.782992
0.083981 20.011200 0.857662
0.040321 20.082331 0.809531
-0.117028 20.057863 0.503445
0.114707 20.094902 0.341579
0.009458 20.086558 0.840901
-0.129954 20.251435 0.061317
0.154985 20.076702 0.170223
-0.095040 20.135950 0.219561
-0.010355 20.086275 0.841069
-0.088749 20.126123 0.311152
0.067860 20.131642 0.369479
-0.019171 20.083995 0.840436
-0.128172 20.121227 0.137775
-0.000507 20.114185 0.639223
-0.130147 20.246165 0.121078
0.150564 20.171768 0.125968
-0.070549 20.046187 0.868841
-0.069757 20.090880 0.619343
-0.102133 20.114987 0.298403
0.035567 20.110145 0.603503
-0.000479 20.101255 0.739562
0.016099 20.080812 0.871695
0.102309 20.070949 0.548135
-0.070494 20.049285 0.851548
0.111037 20.106161 0.298461
0.031797 20.152700 0.281010
-0.165694 20.014010 0.216888
0.029372 20.076302 0.879105
-0.116242 20.083245 0.398633
-0.049899 20.094969 0.691320
0.090634 20.014202 0.799788
0.076210 20.054531 0.789743
0.052045 20.104813 0.610633
-0.096325 20.085136 0.501041
0.109144 20.339857 0.050008
-0.090831 20.037091 0.749962
0.096082 20.057610 0.659316
-0.036253 20.150636 0.287599
0.083879 20.015179 0.850191
-0.101046 20.073621 0.539662
-0.098902 20.346498 0.050008
0.083573 20.027044 0.827882
0.069604 20.052263 0.840172
0.156060 20.053583 0.209991
-0.039889 20.108051 0.610597
0.062803 20.059285 0.838937
-0.076880 20.064462 0.729011
-0.151931 20.020000 0.311257
0.009508 20.076490 0.918949
-0.228455 20.193121 0.071599
0.016033 20.090419 0.797257
-0.124174 20.043463 0.477917
-0.088999 20.115426 0.370523
-0.070047 20.074482 0.710885
0.076063 20.060715 0.755449
0.029316 20.081561 0.838393
-0.041182 20.087237 0.769475
-0.070582 20.044326 0.879231
-0.069725 20.092692 0.609225
0.082017 20.087457 0.569664
-0.056909 20.065151 0.838565
-0.029838 20.139320 0.388784
0.082632 20.063588 0.701792
-0.077338 20.041087 0.846402
-0.078491 20.094605 0.548557
0.120309 20.121116 0.160790
0.090809 20.125915 0.301182
0.083776 20.019147 0.842738
0.019089 20.121462 0.549923
0.042422 20.089295 0.751104
0.062877 20.055574 0.859598
0.012482 20.133463 0.470510
0.069441 20.059691 0.798898
-0.096680 20.071128 0.578641
-0.030152 20.089975 0.771172
0.090537 20.135400 0.248825
0.100490 20.128874 0.229348
0.110521 20.023160 0.626785
0.029306 20.082436 0.831620
0.112535 20.245985 0.121257
-0.076497 20.083992 0.620196
-0.060685 20.108499 0.562442
0.095736 20.069318 0.594760
-0.010319 20.137835 0.440923
-0.056493 20.094959 0.671565
-0.021089 20.158341 0.259338
-0.010291 20.178359 0.138870
-0.036819 20.082048 0.818834
-0.078099 20.002249 0.921215
-0.000454 20.089536 0.830509
0.049377 20.067104 0.870803
0.012374 20.151634 0.329680
-0.097006 20.058239 0.650037
0.069171 20.072001 0.730492
-0.084559 20.016835 0.840755
-0.068996 20.133819 0.350019
-0.030127 20.093888 0.740852
-0.088037 20.156547 0.141675
0.080642 20.140839 0.271503
-0.010364 20.072264 0.949807
-0.049180 20.154699 0.229168
-0.020270 20.084856 0.831468
-0.000504 20.112896 0.649223
-0.042656 20.158954 0.209710
-0.056764 20.075550 0.780303
-0.078791 20.133472 0.320691
-0.070615 20.042462 0.889633
-0.069693 20.094503 0.599117
-0.102035 20.118561 0.278642
0.021799 20.185017 0.129380
0.076388 20.047082 0.831056
-0.103165 20.077005 0.508392
0.199236 20.215638 0.120605
0.032364 20.103707 0.660138
0.069563 20.054123 0.829837
-0.058698 20.094679 0.660618
-0.020015 20.157097 0.271232
-0.036826 20.081173 0.825609
0.102657 20.059870 0.609102
0.009445 20.089175 0.820614
-0.084685 20.010986 0.851939
0.069049 20.077512 0.699865
0.081690 20.100175 0.499258
-0.049789 20.104061 0.620973
-0.076916 20.062620 0.739275
-0.123298 20.070125 0.429298
-0.039661 20.132858 0.418507
0.116919 20.032034 0.558656
0.019159 20.112456 0.619690
-0.003754 20.090268 0.823794
-0.060372 20.056115 0.870236
0.120730 20.109755 0.222948
-0.010353 20.088890 0.820777
0.185369 20.236283 0.051635
0.205542 20.216114 0.111095
0.029112 20.100712 0.690155
-0.000443 20.084302 0.871127
0.120908 20.104950 0.249243
0.069523 20.055981 0.819513
-0.020229 20.096601 0.740382
-0.019700 20.246081 0.121159
0.103842 20.022158 0.680718
0.031733 20.158152 0.238823
0.042410 20.090166 0.744369
0.123067 20.046714 0.480382
0.089764 20.045672 0.741058
0.121756 20.251438 0.089950
0.061786 20.109891 0.550956
-0.039700 20.128607 0.451430
-0.089887 20.077459 0.581250
-0.020261 20.087473 0.811174
0.056128 20.060731 0.868652
0.039232 20.081467 0.818507
-0.098353 20.004968 0.758364
-0.118340 20.015497 0.581338
-0.021382 20.082223 0.849596
0.082111 20.083806 0.589875
-0.137935 20.033702 0.391409
0.104341 20.006271 0.709878
-0.075685 20.125376 0.389630
-0.129571 20.080970 0.335837
-0.061364 20.063973 0.819950
0.102541 20.063571 0.588737
0.135997 20.056450 0.359758
-0.070232 20.064078 0.768964
0.039149 20.087583 0.771202
0.049197 20.078142 0.809108
-0.049557 20.123385 0.471457
-0.043721 20.053928 0.977305
0.009438 20.090482 0.810481
-0.029765 20.150704 0.300568
0.077269 20.010185 0.911870
0.009380 20.102201 0.719634
-0.122496 20.094524 0.299002
-0.068608 20.155753 0.180557
-0.000460 20.092147 0.810245
-0.028534 20.344252 0.050008
-0.010352 20.090196 0.810642
0.082158 20.081977 0.599995
0.104216 20.010260 0.702563
-0.075720 20.123597 0.399540
-0.060216 20.066567 0.811727
-0.105045 20.007831 0.700467
0.102483 20.065418 0.578571
-0.050181 20.071509 0.840691
-0.070199 20.065918 0.758690
0.059179 20.075071 0.769832
0.090909 20.004234 0.818358
0.083675 20.023100 0.835301
0.069482 20.057837 0.809200
-0.145069 20.022986 0.358315
0.009373 20.103498 0.709577
-0.122318 20.099948 0.269193
-0.068630 20.154496 0.190275
-0.000463 20.093451 0.800125
-0.063419 20.074099 0.750721
-0.042647 20.159790 0.203236
-0.056832 20.070664 0.807677
0.099779 20.251437 0.115086
0.121784 20.081329 0.378479
-0.078697 20.138032 0.291213
-0.029894 20.130414 0.457802
0.032230 20.115336 0.570155
-0.097059 20.056114 0.660316
-0.080396 20.055422 0.760410
-0.139625 20.246173 0.121071
-0.104306 20.035021 0.649677
-0.091696 20.000136 0.820076
0.055904 20.073035 0.800014
0.040161 20.246037 0.121203
0.090799 20.008229 0.810917
-0.030213 20.080373 0.845578
0.062666 20.066068 0.801170
0.015823 20.121067 0.559786
0.061025 20.147783 0.258395
-0.055850 20.141158 0.320396
0.012315 20.161693 0.251720
0.039131 20.088890 0.761087
0.063202 20.039401 0.949635
-0.056815 20.071887 0.800827
0.099779 20.251437 0.108796
0.121581 20.086808 0.348500
-0.075529 20.133324 0.340264
0.019291 20.095605 0.750224
-0.040101 20.085068 0.788560
-0.029873 20.133812 0.431468
-0.077133 20.051527 0.801084
-0.023416 20.120249 0.550183
-0.110109 20.066384 0.529303
-0.060902 20.094332 0.649678
0.149997 20.251438 0.061689
0.083169 20.042734 0.798367
-0.030207 20.081249 0.838797
0.062629 20.067913 0.790896
0.029251 20.087677 0.791050
-0.068563 20.158267 0.161143
-0.000465 20.094754 0.790012
0.070102 20.175850 0.126001
-0.115961 20.092332 0.348587
-0.089973 20.073800 0.601560
-0.023555 20.089179 0.791081
0.102797 20.055417 0.619612
-0.063390 20.075929 0.740485
-0.075581 20.130703 0.359957
-0.000430 20.078176 0.918668
0.047840 20.161336 0.180610
-0.075930 20.112884 0.459222
-0.030168 20.087362 0.791424
-0.000573 20.144827 0.401426
-0.129656 20.078535 0.349193
-0.063045 20.097744 0.618493
-0.056662 20.082854 0.739385
0.149997 20.251438 0.089980
0.083068 20.046634 0.791029
0.100751 20.120546 0.275180
0.019079 20.122745 0.539986
0.039167 20.086274 0.781325
-0.000468 20.096056 0.779908
-0.144919 20.026865 0.351413
-0.122377 20.098142 0.279120
-0.000485 20.103849 0.719434
-0.145293 20.017152 0.368698
-0.069416 20.110120 0.511952
0.022241 20.134640 0.441074
-0.050064 20.081262 0.785944
-0.137793 20.037557 0.384492
0.104467 20.002273 0.717209
-0.082179 20.127525 0.340508
-0.129529 20.082186 0.329166
-0.063525 20.067373 0.788340
-0.070145 20.068982 0.741589
0.162544 20.251438 0.099422
-0.070297 20.060391 0.789545
0.071262 20.077236 0.688858
-0.091421 20.011889 0.797777
-0.010366 20.069624 0.970292
0.050328 20.141562 0.328931
-0.058652 20.097819 0.640433
0.149997 20.251438 0.080549
0.082998 20.049357 0.780564
-0.088321 20.144392 0.209756
-0.103215 20.075176 0.518507
-0.068307 20.345520 0.050008
0.062592 20.069757 0.780632
-0.060510 20.046843 0.922146
-0.069437 20.108924 0.518629
0.022229 20.135914 0.431215
-0.050049 20.082477 0.779121
-0.156532 20.070727 0.170088
0.032200 20.117909 0.550240
0.082190 20.080757 0.606749
0.090360 20.024102 0.781320
0.163983 20.027222 0.203355
0.029223 20.090292 0.770810
-0.000488 20.105144 0.709382
0.162472 20.058438 0.150116
-0.069469 20.107127 0.528654
0.022263 20.132092 0.460813
-0.040125 20.082447 0.808855
-0.083871 20.048820 0.778186
-0.089462 20.095642 0.480330
-0.049930 20.092363 0.711486
0.091424 20.104379 0.420047
0.084135 20.005214 0.868902
-0.000471 20.097358 0.769809
-0.115849 20.095954 0.328642
-0.029731 20.156158 0.258302
0.069292 20.066472 0.761215
-0.158972 20.013108 0.270941
-0.139428 20.474711 0.050008
0.069252 20.068317 0.750964
-0.158807 20.017008 0.264115
-0.000474 20.098658 0.759720
-0.115905 20.094144 0.338610
-0.063798 20.050136 0.884755
-0.029723 20.157415 0.248567
0.122190 20.466360 0.050008
-0.063073 20.095937 0.628601
-0.142932 20.078402 0.259688
-0.040088 20.086377 0.778423
-0.083845 20.050058 0.771301
-0.089419 20.097450 0.470297
0.032260 20.112758 0.590099
0.117895 20.004311 0.608752
-0.083725 20.055618 0.740381
-0.110271 20.060789 0.549817
-0.064183 20.025798 0.980286
-0.082141 20.129300 0.330639
0.097746 20.001252 0.771494
0.041918 20.124230 0.480963
-0.116582 20.072278 0.459032
0.162754 20.052625 0.160029
-0.069501 20.105330 0.538689
0.022252 20.133366 0.450940
-0.050005 20.086118 0.758684
0.090143 20.031976 0.766622
0.099779 20.251437 0.052187
-0.129954 20.251435 0.099139
-0.010313 20.147123 0.368841
-0.059447 20.118146 0.491548
0.140905 20.097089 0.180262
0.124750 20.001330 0.561738
0.095972 20.061316 0.638883
-0.138076 20.029839 0.398340
0.060678 20.165020 0.138671
0.082064 20.085632 0.579764
-0.056883 20.066991 0.828258
0.097569 20.007249 0.760410
0.060478 20.174999 0.129198
-0.078991 20.123781 0.379909
0.029001 20.111070 0.609980
0.090034 20.035901 0.759297
-0.129954 20.251435 0.070772
-0.060526 20.118990 0.482746
-0.082563 20.109676 0.439770
-0.102344 20.107217 0.341360
0.053506 20.083967 0.749686
-0.000476 20.099957 0.749637
-0.119146 20.096140 0.308848
0.100044 20.143058 0.151288
-0.029715 20.158670 0.238840
-0.049988 20.087574 0.748538
-0.056687 20.081031 0.749599
-0.010305 20.158453 0.280905
0.069090 20.075677 0.710064
-0.095822 20.105041 0.390780
-0.082601 20.107881 0.449754
0.031177 20.111909 0.598943
-0.049836 20.100170 0.651076
-0.083765 20.053767 0.750677
-0.110162 20.064543 0.539461
0.055248 20.109093 0.570743
0.042253 20.101018 0.660453
0.009527 20.072535 0.949613
-0.049972 20.088881 0.738423
-0.000534 20.127019 0.539628
-0.091057 20.027439 0.768271
-0.010328 20.125089 0.539848
-0.021124 20.149113 0.330897
0.099779 20.251437 0.099361
-0.059543 20.111708 0.541319
0.074700 20.117795 0.438863
-0.070362 20.056697 0.810169
0.110729 20.115156 0.249103
0.134650 20.089426 0.259349
-0.125578 20.000746 0.555828
0.109101 20.065823 0.538662
-0.000582 20.149041 0.368731
0.019383 20.083842 0.841341
0.102271 20.072176 0.541384
0.192739 20.464109 0.050008
-0.023328 20.139812 0.398508
0.095447 20.079117 0.540729
0.028901 20.120511 0.536904
0.087601 20.123939 0.330637
-0.125449 20.004672 0.548668
0.116506 20.043778 0.537424
-0.042852 20.139605 0.359496
-0.167815 20.251435 0.111715
0.062053 20.096573 0.631324
0.081830 20.094736 0.529370
-0.017001 20.070870 0.946830
-0.122140 20.105354 0.239478
-0.096172 20.091192 0.467496
0.051866 20.115144 0.530805
0.061262 20.135951 0.349746
-0.063332 20.079583 0.720047
0.035448 20.119591 0.530430
0.028892 20.121367 0.530281
0.019069 20.124027 0.530056
0.108570 20.081748 0.451193
0.060999 20.149046 0.248644
-0.000537 20.128297 0.529708
-0.063866 20.045799 0.909007
-0.010327 20.126368 0.529922
-0.029954 20.121034 0.530492
0.034944 20.159794 0.219402
-0.000545 20.132126 0.499996
-0.117502 20.042574 0.531555
-0.049649 20.115681 0.531063
-0.010316 20.141641 0.411387
-0.059523 20.112998 0.531349
-0.089674 20.086574 0.530659
0.068304 20.111419 0.511441
-0.070330 20.058545 0.799852
0.109655 20.114692 0.257839
-0.125320 20.008589 0.541523
0.109039 20.067668 0.528528
-0.115681 20.101373 0.298802
-0.190437 20.182922 0.125974
0.070577 20.107546 0.520533
0.061708 20.113761 0.521078
0.109608 20.050579 0.576811
-0.099633 20.085323 0.481186
0.051844 20.116431 0.520860
0.041992 20.119099 0.520642
0.032155 20.121762 0.520424
0.019059 20.125308 0.520134
0.009251 20.127963 0.519917
-0.063837 20.047659 0.898605
-0.010326 20.127646 0.520005
0.029278 20.085059 0.811319
-0.040877 20.119204 0.521968
-0.010313 20.145860 0.378647
-0.059504 20.114286 0.521388
0.130073 20.037944 0.444254
-0.076165 20.100904 0.525970
0.124013 20.021216 0.526109
0.108978 20.069511 0.518406
0.062017 20.098386 0.621228
0.081783 20.096551 0.519322
0.115608 20.069300 0.481922
-0.075554 20.132050 0.350105
0.121649 20.084983 0.358483
-0.115514 20.106774 0.269054
-0.221592 20.199983 0.100697
-0.036498 20.120963 0.517429
-0.076141 20.102105 0.519275
-0.089631 20.088392 0.520572
-0.021239 20.119417 0.561172
-0.110055 20.068223 0.519158
0.123866 20.025163 0.519031
-0.144176 20.046129 0.317127
0.088497 20.091497 0.509877
0.075001 20.105204 0.508696
-0.143588 20.061390 0.289965
0.109479 20.054462 0.569735
-0.098541 20.084856 0.490042
0.051822 20.117717 0.510922
0.032140 20.123044 0.510500
0.022319 20.125703 0.510289
-0.149076 20.090606 0.170259
0.012512 20.128357 0.510079
0.089360 20.060293 0.682275
-0.063817 20.048898 0.891678
-0.010325 20.128923 0.510093
-0.000636 20.174518 0.171013
0.091995 20.084401 0.530316
-0.029938 20.123597 0.510628
0.093954 20.129674 0.261945
-0.221592 20.199983 0.110307
-0.036490 20.121818 0.510807
0.111144 20.134650 0.142495
-0.049618 20.118253 0.511165
-0.010314 20.144595 0.388461
-0.059485 20.115574 0.511434
-0.076106 20.103906 0.509240
0.028362 20.171115 0.145208
0.002688 20.140344 0.437465
-0.059326 20.126265 0.428770
-0.082834 20.097070 0.509867
-0.001645 20.139563 0.441867
0.087650 20.122153 0.340506
-0.089603 20.089602 0.513854
0.052067 20.103517 0.620645
-0.096371 20.083315 0.511128
-0.124936 20.020290 0.520182
0.032111 20.125607 0.490674
0.123720 20.029101 0.511968
0.108917 20.071352 0.508294
0.068265 20.113217 0.501450
0.113987 20.115354 0.229459
-0.102934 20.085517 0.461331
0.051800 20.119002 0.500992
0.032125 20.124326 0.500584
0.022308 20.126983 0.500380
-0.057209 20.043550 0.959609
0.089394 20.059057 0.689099
-0.010325 20.129773 0.503490
0.232143 20.198213 0.050009
-0.039759 20.122209 0.500967
-0.049603 20.119537 0.501227
-0.059466 20.116860 0.501487
-0.036973 20.063399 0.961863
-0.069395 20.111316 0.505280
-0.089575 20.090811 0.507140
0.072853 20.103666 0.529646
-0.124745 20.026111 0.509566
0.123502 20.034991 0.501406
0.115823 20.063179 0.502348
0.108876 20.072579 0.501558
0.225951 20.195708 0.059471
0.122636 20.058360 0.459497
-0.063955 20.040209 0.940274
-0.039747 20.123490 0.491045
-0.049104 20.160977 0.180590
0.095016 20.093712 0.460247
-0.075380 20.140951 0.281368
-0.143369 20.067079 0.279841
-0.076071 20.105705 0.499216
-0.180786 20.182609 0.125974
-0.059345 20.124986 0.438662
-0.118851 20.474054 0.050008
-0.089546 20.092020 0.500430
0.030714 20.246044 0.121196
0.129089 20.063203 0.399327
-0.109948 20.071894 0.498898
0.115694 20.066842 0.495395
-0.115625 20.103175 0.288875
0.095177 20.088253 0.490349
-0.049321 20.142917 0.320327
-0.082795 20.098877 0.499822
0.081643 20.101984 0.489243
-0.115236 20.115740 0.219679
-0.100723 20.085792 0.472330
0.055060 20.119399 0.491135
0.080371 20.151375 0.190279
-0.099347 20.096208 0.420950
0.048495 20.121175 0.491003
-0.050159 20.073341 0.830403
0.061339 20.132131 0.379242
0.041937 20.122948 0.490871
0.060797 20.159116 0.170899
-0.043455 20.080223 0.819194
0.112509 20.095170 0.352545
0.022296 20.128261 0.490477
0.009232 20.131795 0.490214
-0.000548 20.133400 0.490106
-0.029922 20.126157 0.490794
-0.049587 20.120821 0.491296
0.200929 20.336926 0.050008
-0.078271 20.105429 0.488283
-0.059364 20.123705 0.448563
-0.089504 20.093832 0.490376
0.009335 20.111261 0.649394
-0.116911 20.061667 0.496456
-0.020165 20.114716 0.599901
-0.124554 20.031915 0.498981
-0.132328 20.001654 0.501548
0.022093 20.151537 0.310221
-0.167815 20.251435 0.061266
0.055044 20.120255 0.484522
0.080274 20.155152 0.161161
0.050659 20.122008 0.480031
0.032096 20.126886 0.480772
-0.040173 20.077194 0.849537
0.060923 20.152829 0.219437
0.022285 20.129539 0.480582
-0.000551 20.134674 0.480224
-0.016845 20.130979 0.480566
-0.029913 20.127435 0.480889
-0.221592 20.199983 0.059054
0.115959 20.059316 0.509333
-0.039735 20.124771 0.481131
-0.109895 20.073728 0.488783
-0.116793 20.065462 0.489481
-0.020160 20.116003 0.589922
-0.124427 20.035772 0.491944
-0.132124 20.007536 0.490907
0.022081 20.152798 0.300458
0.116164 20.053504 0.519840
-0.039723 20.126050 0.471223
0.081596 20.103792 0.479236
-0.058292 20.122436 0.460647
-0.109842 20.075559 0.478680
0.009322 20.113841 0.629393
-0.116696 20.068607 0.479250
-0.020156 20.117288 0.579952
-0.097566 20.036056 0.699835
-0.124301 20.039622 0.484923
0.110969 20.075976 0.470361
0.081608 20.340739 0.050009
-0.000623 20.168288 0.219360
0.091683 20.095327 0.470013
0.080306 20.153894 0.170860
0.051733 20.122852 0.471245
0.032081 20.128165 0.470877
0.009514 20.075172 0.929163
-0.016794 20.150840 0.326501
-0.208333 20.207178 0.120097
0.141293 20.088003 0.229684
-0.000554 20.135946 0.470348
0.009288 20.120703 0.576202
0.041691 20.139957 0.359355
-0.029905 20.128712 0.470989
-0.102295 20.109013 0.331430
-0.075965 20.111092 0.469205
0.070343 20.117869 0.460681
0.107464 20.114963 0.268750
0.061553 20.121474 0.461522
0.051711 20.124134 0.461344
-0.131785 20.017299 0.473243
0.141241 20.089217 0.223080
0.012474 20.134737 0.460637
-0.000556 20.137218 0.460481
-0.029900 20.129563 0.464394
-0.039712 20.127329 0.461323
0.170431 20.032150 0.143047
-0.109789 20.077388 0.468586
-0.165007 20.029553 0.189912
0.041900 20.125511 0.471061
-0.116639 20.070443 0.469135
0.101810 20.086828 0.460745
-0.242269 20.179309 0.080731
-0.000526 20.123179 0.569428
-0.129087 20.094904 0.259399
-0.080671 20.095535 0.530882
0.081504 20.107401 0.459256
-0.158150 20.032523 0.236957
-0.089377 20.099256 0.460272
-0.050093 20.078828 0.799602
-0.108581 20.118937 0.239319
-0.109736 20.079215 0.458504
0.074915 20.108811 0.488692
-0.131649 20.021189 0.466205
0.130379 20.030099 0.458208
0.143682 20.032092 0.350798
0.101753 20.088651 0.450713
-0.242269 20.179309 0.109742
-0.129024 20.096713 0.249473
-0.079581 20.095069 0.539720
0.081457 20.109203 0.449282
0.074743 20.116002 0.448809
0.107524 20.113168 0.278612
-0.039579 20.141753 0.349633
0.080231 20.156828 0.148240
0.051689 20.125414 0.451450
-0.050078 20.080045 0.792770
-0.070395 20.054846 0.820498
-0.108737 20.113574 0.268914
0.061237 20.137223 0.339928
0.028783 20.131602 0.451053
-0.148624 20.181433 0.125971
0.012467 20.136010 0.450770
-0.049383 20.137843 0.359587
-0.020097 20.133917 0.450998
-0.036906 20.071523 0.900357
-0.069223 20.121035 0.448777
0.120975 20.103144 0.259123
-0.089335 20.101060 0.450259
0.074958 20.107009 0.498689
-0.131514 20.025071 0.459183
0.115392 20.075430 0.448320
0.042178 20.106203 0.620358
-0.165867 20.010103 0.223668
0.051667 20.126694 0.441564
0.041844 20.129346 0.441401
0.012459 20.137282 0.440911
0.094588 20.108187 0.380432
-0.049398 20.136572 0.369421
0.079978 20.166637 0.132259
-0.088610 20.132038 0.278326
-0.020092 20.135189 0.441130
-0.029881 20.132539 0.441338
-0.074979 20.161382 0.138527
-0.036417 20.130769 0.441476
0.041618 20.145027 0.320152
-0.042960 20.128997 0.441615
-0.090030 20.071356 0.615124
0.135023 20.080299 0.309089
-0.109683 20.081040 0.448432
-0.123672 20.058745 0.450045
0.122278 20.068008 0.442196
0.115349 20.076654 0.441614
0.094908 20.097342 0.440231
0.088147 20.104186 0.439773
-0.117621 20.038731 0.538620
0.081411 20.111003 0.439317
0.041503 20.153023 0.258317
-0.000427 20.076860 0.928878
0.150327 20.033088 0.297148
-0.036329 20.141365 0.359405
-0.069200 20.122318 0.438868
-0.075860 20.116462 0.439287
-0.145745 20.005429 0.389563
-0.020238 20.093998 0.760570
-0.089293 20.102862 0.440256
-0.096050 20.096021 0.440743
-0.116468 20.075941 0.438857
-0.123485 20.064442 0.439657
-0.097664 20.032200 0.707096
-0.131245 20.032808 0.445184
0.129921 20.041854 0.437300
-0.010362 20.076216 0.919136
0.122170 20.070931 0.435364
-0.101842 20.125688 0.239240
0.115285 20.078487 0.431564
0.042141 20.108790 0.600355
-0.166214 20.002264 0.237275
-0.117800 20.032950 0.549249
0.081364 20.112801 0.429364
0.142848 20.051617 0.316642
0.041527 20.151343 0.271311
-0.095175 20.130640 0.248976
0.061467 20.125745 0.428549
0.049513 20.251437 0.108752
-0.040595 20.148909 0.291974
-0.142687 20.084771 0.239719
0.051638 20.128398 0.428394
0.012452 20.138553 0.431059
-0.207951 20.213623 0.078780
0.039302 20.076207 0.859187
0.150502 20.029160 0.303963
-0.088569 20.133808 0.268500
-0.059606 20.107444 0.571312
0.095772 20.068089 0.601535
-0.010318 20.139105 0.431070
0.071308 20.123315 0.418888
-0.020088 20.136461 0.431269
-0.038581 20.132020 0.427257
0.041637 20.143761 0.329942
-0.042947 20.130274 0.431733
-0.069177 20.123599 0.428967
-0.079175 20.114858 0.429567
-0.020233 20.095300 0.750472
-0.089251 20.104663 0.430263
-0.131111 20.036665 0.438208
0.019271 20.098208 0.730060
-0.138932 20.006484 0.440251
0.137597 20.017290 0.428839
0.051013 20.341710 0.050008
0.094235 20.120157 0.314425
-0.109225 20.096780 0.361579
0.129769 20.045755 0.430361
0.122124 20.072158 0.428654
0.032007 20.134544 0.421514
0.022218 20.137186 0.421364
0.013530 20.139390 0.422324
-0.049367 20.139113 0.349762
-0.207951 20.213623 0.091540
0.039285 20.077524 0.849006
0.150678 20.025223 0.310793
-0.103464 20.066000 0.569237
-0.088527 20.135577 0.258684
-0.020084 20.137731 0.421416
0.117335 20.020213 0.580030
-0.029865 20.135085 0.421606
-0.109577 20.084685 0.428319
-0.116412 20.077770 0.428785
-0.130978 20.040513 0.431246
-0.138717 20.012350 0.429724
0.171423 20.012414 0.176418
0.129617 20.049647 0.423438
0.122056 20.073996 0.418599
0.115220 20.080318 0.421523
0.042122 20.110082 0.590365
-0.166040 20.006188 0.230464
0.075623 20.079136 0.653283
0.081318 20.114598 0.419420
0.142682 20.055496 0.309856
-0.010356 20.083657 0.861391
-0.095130 20.132411 0.239161
0.061442 20.127024 0.418673
0.049513 20.251437 0.115045
-0.039521 20.148078 0.300654
0.080339 20.152635 0.180567
0.054889 20.128792 0.418574
0.048342 20.130559 0.418475
-0.055580 20.160492 0.170879
-0.020064 20.143226 0.378800
0.009186 20.141125 0.417885
0.099779 20.251437 0.080492
-0.056277 20.110454 0.557846
-0.010317 20.140796 0.417945
0.031565 20.172700 0.138792
0.143431 20.037971 0.340513
-0.129918 20.070999 0.376094
-0.049474 20.130204 0.418696
-0.104886 20.013694 0.689516
-0.059307 20.127544 0.418884
-0.069155 20.124880 0.419073
-0.079138 20.116647 0.419615
-0.019146 20.091838 0.779609
-0.089209 20.106461 0.420280
-0.109541 20.085898 0.421624
0.062084 20.251437 0.089887
-0.119785 20.076129 0.418947
-0.130778 20.046268 0.420834
0.137354 20.023220 0.418377
-0.020174 20.112140 0.619880
0.129466 20.053531 0.416529
0.075652 20.077914 0.660060
0.081272 20.116392 0.409487
-0.010356 20.084967 0.851225
-0.095085 20.134182 0.229356
0.071272 20.124848 0.408995
0.061416 20.128302 0.408804
-0.142547 20.088410 0.219839
0.054873 20.129644 0.411997
0.050500 20.131388 0.407552
0.031987 20.136241 0.408381
0.022207 20.138457 0.411519
0.015691 20.140215 0.411424
0.062224 20.088085 0.678583
-0.049444 20.132754 0.398964
-0.088486 20.137343 0.248878
-0.148247 20.474992 0.050008
-0.021163 20.138989 0.409402
0.117544 20.014271 0.590772
-0.029854 20.136780 0.408468
0.062199 20.089300 0.671818
-0.049459 20.131479 0.408826
-0.103364 20.069676 0.548913
-0.088445 20.139108 0.239083
0.012253 20.172109 0.170996
-0.059288 20.128822 0.409006
-0.069132 20.126160 0.409186
0.008935 20.191604 0.126302
-0.082447 20.115050 0.409885
-0.020242 20.092695 0.770675
-0.089167 20.108258 0.410309
-0.095913 20.101439 0.410734
-0.109488 20.087717 0.411591
-0.003850 20.170191 0.203225
-0.152563 20.004375 0.338835
0.031489 20.179191 0.132478
0.137193 20.027163 0.411423
0.019129 20.116322 0.589745
-0.090489 20.051720 0.720975
0.129315 20.057406 0.409636
0.121988 20.075832 0.408552
0.022196 20.139727 0.401683
-0.010315 20.142908 0.401557
-0.058786 20.162547 0.148259
0.012429 20.142361 0.401547
-0.016819 20.141150 0.401672
0.062084 20.251437 0.099325
-0.019949 20.175831 0.138819
-0.123155 20.074494 0.409098
-0.020106 20.131369 0.470756
-0.130578 20.052006 0.410452
0.022159 20.143954 0.368946
0.112338 20.251438 0.099374
0.132228 20.095149 0.240598
-0.138289 20.024028 0.408769
0.136953 20.033058 0.401023
0.121920 20.077666 0.398518
0.071237 20.126381 0.399109
0.061390 20.129579 0.398943
-0.099048 20.065332 0.598125
0.051572 20.132227 0.398808
0.031973 20.137513 0.398539
0.011184 20.171289 0.179585
-0.062547 20.129212 0.399192
-0.082409 20.116838 0.399943
-0.082640 20.106084 0.459746
-0.095868 20.103241 0.400752
-0.102638 20.096401 0.401159
-0.109436 20.089533 0.401567
0.062084 20.251437 0.108763
-0.123094 20.076324 0.399038
-0.020101 20.132643 0.460874
-0.130379 20.057724 0.400108
0.022148 20.145220 0.359140
0.112338 20.251438 0.089940
0.134427 20.094880 0.229628
0.061365 20.130856 0.389089
-0.096819 20.065615 0.609175
0.051550 20.133502 0.388961
-0.138675 20.347768 0.050008
0.041746 20.136144 0.388833
0.031958 20.138783 0.388706
0.022181 20.141419 0.388578
0.107166 20.123913 0.219593
-0.058740 20.165646 0.138613
0.012419 20.144051 0.388451
-0.103132 20.078224 0.501655
-0.088404 20.140872 0.229297
-0.057726 20.161305 0.160102
0.009182 20.141971 0.411329
-0.020069 20.141960 0.388623
0.211445 19.846038 0.125976
-0.019996 20.162530 0.229094
-0.058156 20.131811 0.388158
-0.062533 20.130064 0.392614
-0.040161 20.078509 0.839355
0.108085 20.096320 0.371153
-0.069087 20.128717 0.389435
-0.059080 20.142814 0.300827
0.012297 20.164616 0.229067
-0.082370 20.118624 0.390012
-0.102589 20.098208 0.391167
0.136712 20.038936 0.390654
0.121852 20.079498 0.388493
0.081164 20.120572 0.386349
-0.116186 20.085067 0.388602
0.062084 20.251437 0.115055
-0.123034 20.078153 0.388987
-0.130181 20.063425 0.389793
-0.020282 20.081360 0.858575
0.128672 20.073917 0.378847
0.101354 20.101359 0.380776
0.022037 20.157831 0.261481
0.074445 20.128515 0.379408
0.062198 20.246021 0.121220
-0.103514 20.064159 0.579416
0.051528 20.134775 0.379121
-0.147854 20.348058 0.050008
-0.056960 20.061466 0.859211
0.035203 20.139175 0.378919
-0.242269 20.179309 0.054943
0.028683 20.140932 0.378838
0.068085 20.121410 0.448435
0.022170 20.142687 0.378758
-0.108040 20.246149 0.121094
0.107226 20.122127 0.229403
-0.148212 20.111975 0.131029
0.012412 20.145317 0.378637
-0.098731 20.077560 0.530432
-0.088362 20.142633 0.219522
-0.029830 20.140589 0.378953
0.148083 20.083377 0.209907
0.111117 20.005290 0.659328
-0.039614 20.137947 0.379107
0.094641 20.106384 0.390373
-0.049413 20.135300 0.379261
-0.059231 20.132649 0.379415
0.239771 20.462609 0.050008
0.060822 20.157860 0.180593
0.111430 20.094700 0.361349
-0.069064 20.129993 0.379570
-0.059061 20.144080 0.291036
0.009085 20.161308 0.261426
-0.079359 20.105891 0.479481
-0.095777 20.106839 0.380818
-0.102540 20.100014 0.381185
-0.118404 20.084786 0.377590
-0.122994 20.079371 0.382292
0.031617 20.168171 0.161291
-0.130050 20.067215 0.382936
0.101297 20.103167 0.370827
-0.038618 20.246095 0.121145
0.081088 20.123551 0.369857
0.074412 20.129877 0.369556
0.061313 20.133405 0.369403
-0.100145 20.065804 0.589206
0.051506 20.136048 0.369288
-0.056934 20.063310 0.848882
0.035192 20.140021 0.372370
-0.020033 20.152066 0.310247
0.012404 20.146582 0.368832
-0.040691 20.138782 0.370383
0.042104 20.111373 0.580383
-0.059212 20.133923 0.369567
-0.069041 20.131269 0.369713
-0.078955 20.125560 0.370009
-0.109278 20.094971 0.371561
0.096925 20.029042 0.720081
-0.129614 20.079753 0.342512
-0.137652 20.041403 0.377590
0.128581 20.076233 0.368799
0.150152 20.037008 0.290348
-0.000424 20.075544 0.939094
-0.036336 20.140520 0.365952
0.009425 20.093093 0.790240
-0.119494 20.085254 0.368746
-0.000567 20.142295 0.421082
-0.129787 20.074775 0.369267
0.143934 20.026192 0.361121
-0.020046 20.148283 0.339583
-0.125128 20.014448 0.530837
0.128510 20.078067 0.358787
0.081042 20.125337 0.359974
0.071107 20.132035 0.359678
0.149111 20.060345 0.249863
-0.069019 20.132544 0.359862
0.169871 20.171074 0.125967
-0.096943 20.060701 0.636397
0.051484 20.137320 0.359462
-0.020028 20.153325 0.300482
0.012397 20.147847 0.359032
0.090251 20.028043 0.773963
0.002657 20.150470 0.358925
0.136235 20.050632 0.370022
-0.003826 20.150135 0.358950
-0.020055 20.145756 0.359177
-0.019983 20.166282 0.200000
-0.059193 20.135196 0.359725
0.156603 20.041909 0.230073
-0.088957 20.117214 0.360602
-0.102442 20.103619 0.361252
-0.068704 20.150296 0.222720
0.101184 20.106777 0.350960
-0.081305 20.065125 0.700101
0.080996 20.127120 0.350103
0.051462 20.138590 0.349645
0.041673 20.141226 0.349544
-0.108841 20.109989 0.288696
-0.020051 20.147020 0.349377
-0.029806 20.144389 0.349505
-0.019978 20.167531 0.190316
-0.059174 20.136468 0.349891
0.156331 20.047755 0.220017
-0.082217 20.125749 0.350389
-0.088915 20.118999 0.350692
-0.102393 20.105419 0.351301
-0.164495 20.041121 0.169834
-0.115998 20.091124 0.355245
0.141189 20.090430 0.216480
-0.029930 20.124877 0.500708
0.151651 20.003406 0.348632
0.135760 20.062251 0.349525
0.009140 20.150405 0.345946
0.135524 20.068031 0.339329
0.128367 20.081729 0.338793
-0.075504 20.134598 0.330430
0.121513 20.088631 0.338528
-0.122200 20.103554 0.249373
0.101127 20.108579 0.341041
0.080950 20.128901 0.340241
-0.088707 20.127900 0.301292
0.071048 20.134582 0.340022
-0.096866 20.063774 0.619375
0.054704 20.138981 0.339865
0.048176 20.140738 0.339802
0.041655 20.142494 0.339739
-0.079993 20.075053 0.651138
0.022126 20.147750 0.339550
0.112338 20.251438 0.071072
0.131152 20.094678 0.249384
0.009136 20.151246 0.339425
-0.145519 20.011301 0.379111
-0.000590 20.152824 0.339374
-0.109102 20.100994 0.338329
0.073948 20.149338 0.219454
0.079305 20.063999 0.718360
-0.077230 20.046574 0.828680
-0.010310 20.150908 0.339464
-0.029797 20.145654 0.339703
0.049513 20.251437 0.080434
0.102980 20.049594 0.630311
-0.039567 20.143020 0.339823
-0.139317 20.086398 0.249624
0.009419 20.094397 0.780131
-0.122735 20.087267 0.338892
-0.136882 20.062407 0.339898
0.088783 20.081157 0.567002
-0.144695 20.032665 0.341089
0.009406 20.097002 0.759935
-0.122635 20.090294 0.322250
-0.152722 20.000448 0.345767
0.151384 20.009386 0.338265
-0.010240 20.251436 0.052031
0.107844 20.103561 0.331383
-0.068861 20.141443 0.291114
0.070845 20.143470 0.271455
0.101089 20.109779 0.334434
-0.109330 20.093161 0.381552
0.094323 20.117172 0.330884
-0.076843 20.066303 0.718758
0.080919 20.130088 0.333672
0.071019 20.135855 0.330206
-0.096912 20.061931 0.629584
0.054688 20.139828 0.333327
-0.083342 20.073417 0.641406
0.022115 20.149013 0.329767
0.127941 20.092667 0.279063
-0.000593 20.154083 0.329603
0.049513 20.251437 0.070995
-0.039556 20.144286 0.330020
-0.068951 20.136364 0.330355
0.074179 20.139635 0.294292
-0.158348 20.251435 0.051821
0.151207 20.013359 0.331374
0.128296 20.083557 0.328812
0.088447 20.093316 0.499830
0.121446 20.090452 0.328565
-0.115347 20.112159 0.239399
0.033158 20.129006 0.462108
0.101052 20.110979 0.327832
0.127447 20.105342 0.209847
0.080889 20.131274 0.327107
0.128225 20.085382 0.318841
-0.109050 20.102797 0.328381
-0.000598 20.156598 0.310081
0.009399 20.098303 0.749848
-0.122675 20.089084 0.328903
-0.144473 20.038448 0.330796
-0.136674 20.068094 0.329694
-0.158348 20.251435 0.061279
0.151030 20.017322 0.324498
0.088397 20.095132 0.489795
0.121379 20.092270 0.318614
0.107784 20.105366 0.321466
-0.020115 20.128817 0.490544
0.070874 20.142203 0.281228
0.139934 20.119801 0.131367
0.035320 20.129836 0.451166
0.101014 20.112178 0.321235
-0.036747 20.090771 0.751270
0.094270 20.118964 0.321005
0.061493 20.124465 0.438432
0.080858 20.132459 0.320548
-0.070461 20.051140 0.841188
-0.050115 20.077001 0.809859
0.061186 20.139764 0.320314
-0.000524 20.121897 0.579377
0.031855 20.147653 0.320071
-0.029580 20.179862 0.132452
-0.083303 20.075248 0.631224
0.022104 20.150276 0.319990
0.127870 20.094484 0.269143
-0.000595 20.155341 0.319838
0.120108 20.126553 0.141278
-0.108998 20.104597 0.318445
-0.077170 20.049671 0.811423
-0.010308 20.153427 0.319916
-0.029781 20.148181 0.320121
-0.030086 20.100390 0.690467
-0.150530 20.054661 0.250079
-0.136466 20.073761 0.319526
0.091167 20.074770 0.589745
-0.144324 20.042293 0.323954
-0.029822 20.141856 0.369130
-0.000587 20.151564 0.349152
0.150854 20.021277 0.317638
0.109981 20.105094 0.310528
-0.023376 20.129208 0.480727
0.069810 20.141369 0.289915
0.100958 20.113974 0.311348
0.061519 20.123184 0.448323
0.080812 20.134235 0.310717
0.051374 20.143664 0.310444
-0.029773 20.149443 0.310341
-0.068906 20.138905 0.310720
-0.010240 20.251436 0.111848
-0.168072 20.246090 0.121048
-0.098829 20.115987 0.311488
0.160404 20.465143 0.050008
0.128154 20.087207 0.308881
0.088347 20.096947 0.479769
0.121311 20.094087 0.308673
-0.108945 20.106396 0.308518
-0.063486 20.069822 0.774644
-0.129403 20.085829 0.309180
-0.136277 20.078917 0.309403
0.142517 20.059366 0.303085
0.131516 20.085578 0.299026
-0.221592 20.199983 0.068664
-0.030110 20.096491 0.720675
0.100901 20.115769 0.301470
-0.020124 20.126262 0.510361
0.067664 20.140545 0.300775
0.080414 20.149694 0.203242
0.061135 20.142300 0.300729
0.051352 20.144930 0.300661
0.028576 20.151052 0.300503
0.012352 20.155413 0.300391
-0.000601 20.157855 0.300331
-0.083977 20.043892 0.789035
-0.010306 20.155942 0.300396
-0.068884 20.140175 0.300913
0.210376 20.463546 0.050008
-0.129954 20.251435 0.080228
-0.010311 20.149647 0.349249
-0.062695 20.119823 0.471769
-0.078728 20.136514 0.301030
-0.095414 20.121159 0.301496
-0.049291 20.145449 0.300740
0.051331 20.146195 0.290887
-0.108893 20.108194 0.298602
0.049513 20.251437 0.052116
-0.039532 20.146815 0.310436
-0.063506 20.068598 0.781489
-0.129339 20.087648 0.299204
0.130609 20.024191 0.468717
-0.136233 20.080135 0.302737
0.032425 20.098514 0.700325
-0.010303 20.160961 0.261443
0.149997 20.251438 0.099410
0.076433 20.045215 0.841412
0.158439 20.002427 0.297982
-0.000559 20.138488 0.450620
0.142352 20.063228 0.296328
-0.030119 20.095190 0.730759
0.100845 20.117562 0.291603
0.094112 20.124327 0.291430
-0.129497 20.347474 0.050008
0.087404 20.131067 0.291257
0.061109 20.143567 0.290948
0.071201 20.127911 0.389233
0.022070 20.154057 0.290703
-0.230359 20.212971 0.050009
-0.062385 20.139398 0.320465
0.012344 20.156671 0.290642
-0.000603 20.159110 0.290589
-0.077194 20.048433 0.818322
-0.010306 20.157198 0.290648
-0.058867 20.157111 0.190283
0.077364 20.006195 0.919420
-0.029757 20.151964 0.290803
-0.095369 20.122940 0.291627
-0.049276 20.146713 0.290958
0.051309 20.147459 0.281119
0.030651 20.251437 0.080412
-0.136188 20.081352 0.296075
-0.098105 20.014741 0.739966
0.158253 20.006418 0.291123
0.022724 20.079434 0.868610
0.142187 20.067082 0.289587
0.134874 20.083956 0.289162
0.128012 20.090849 0.288991
0.161412 20.080362 0.137207
-0.102084 20.116775 0.288517
0.009386 20.100903 0.729697
-0.122437 20.096334 0.289055
0.049513 20.251437 0.061555
-0.039544 20.145551 0.320224
-0.129276 20.089465 0.289236
0.030651 20.251437 0.108736
-0.136143 20.082568 0.289418
-0.000634 20.173274 0.180669
0.088649 20.086031 0.540077
-0.151461 20.031629 0.290731
0.021957 20.167020 0.190319
-0.159469 20.001356 0.291511
0.029334 20.079810 0.851950
0.079536 20.054732 0.769702
0.157976 20.012381 0.280865
0.042567 20.079246 0.828810
0.141941 20.072846 0.279504
0.114304 20.106360 0.278762
0.094041 20.126706 0.278315
0.087355 20.132844 0.281437
0.080676 20.139552 0.281284
0.041545 20.150082 0.281064
0.022059 20.155316 0.280955
-0.055991 20.130984 0.399078
-0.018921 20.161707 0.237723
-0.062372 20.140244 0.313925
0.012337 20.157928 0.280901
-0.003838 20.160193 0.280859
0.096027 20.059464 0.649094
-0.063361 20.077757 0.730262
-0.036246 20.151477 0.281090
0.049513 20.251437 0.099313
-0.042749 20.149727 0.281136
-0.142617 20.086591 0.229774
-0.095309 20.125313 0.278483
-0.049261 20.147976 0.281182
0.051287 20.148722 0.271359
-0.108789 20.111782 0.278800
-0.115569 20.104975 0.278960
-0.129213 20.091280 0.279280
-0.136077 20.084390 0.279442
-0.055721 20.150432 0.248678
-0.000631 20.172029 0.190331
0.088699 20.084205 0.550166
-0.151227 20.037414 0.280520
-0.159220 20.007240 0.281211
0.087305 20.134620 0.271628
0.080436 20.148852 0.209728
-0.070123 20.070206 0.734758
0.061058 20.146098 0.271407
0.031782 20.153960 0.271263
-0.059155 20.137739 0.340063
0.013409 20.158755 0.272253
-0.010304 20.159708 0.271171
-0.058905 20.154597 0.209724
-0.029741 20.154482 0.271293
-0.039486 20.151862 0.271354
0.121110 20.099527 0.278912
-0.077537 20.141646 0.270506
-0.029789 20.146918 0.329909
0.141695 20.078593 0.269450
0.100714 20.121739 0.268619
0.093989 20.128488 0.268490
-0.098626 20.123718 0.268706
-0.049245 20.149239 0.271415
0.054511 20.149532 0.258369
-0.000540 20.129574 0.519797
-0.129150 20.093093 0.269334
0.030651 20.251437 0.089854
-0.136010 20.086211 0.269475
0.095555 20.075449 0.560955
-0.150994 20.043182 0.270339
-0.039806 20.117074 0.540729
0.157424 20.024251 0.260447
0.149370 20.054539 0.259936
0.100658 20.123525 0.258787
0.089466 20.134943 0.257512
0.100452 20.130061 0.222818
0.070806 20.145158 0.258435
0.048004 20.151278 0.258343
-0.149763 20.073627 0.216603
-0.016768 20.160894 0.248512
-0.059136 20.139009 0.330243
0.015559 20.159570 0.261453
-0.217601 20.212564 0.050009
-0.000611 20.162871 0.261403
0.096578 20.040808 0.698293
-0.039470 20.153541 0.258352
-0.088874 20.120783 0.340791
0.067888 20.130366 0.379323
0.022001 20.162014 0.229087
-0.010365 20.070945 0.960045
-0.049225 20.150920 0.258402
-0.058998 20.148294 0.258452
-0.010357 20.082346 0.871563
-0.078593 20.143016 0.258552
-0.098579 20.125497 0.258861
-0.070428 20.052995 0.830837
-0.050137 20.075172 0.820125
0.061211 20.138494 0.330118
-0.108685 20.115363 0.259039
-0.135943 20.088029 0.259520
0.095231 20.086430 0.500404
-0.150839 20.047016 0.263571
-0.020006 20.159607 0.251766
-0.030061 20.104279 0.660327
-0.150684 20.050843 0.256818
-0.158642 20.020899 0.257303
0.110390 20.027103 0.619599
-0.039794 20.118359 0.530777
0.029292 20.083748 0.821466
0.157150 20.030157 0.250287
0.100602 20.125310 0.248963
0.080566 20.143796 0.248710
-0.020128 20.124983 0.520280
0.070777 20.146422 0.248677
0.051236 20.151666 0.248612
0.041485 20.154283 0.248579
-0.039459 20.154800 0.248608
-0.062239 20.148682 0.248705
-0.068764 20.146929 0.248733
-0.049054 20.165150 0.148304
-0.010358 20.081471 0.878349
0.094855 20.099154 0.430239
-0.078567 20.144296 0.248775
-0.108633 20.117151 0.249174
-0.115402 20.110366 0.249273
-0.142128 20.099279 0.160447
-0.158477 20.024782 0.250507
0.149997 20.251438 0.115127
0.076343 20.048947 0.820712
0.165037 20.005437 0.240509
0.100546 20.127093 0.239151
0.080534 20.145061 0.238954
0.212318 20.209339 0.050476
-0.049164 20.155956 0.219439
-0.020133 20.123703 0.530207
0.070748 20.147686 0.238928
0.108509 20.083576 0.441151
0.060982 20.149888 0.242148
0.051214 20.152926 0.238875
0.041467 20.155541 0.238849
0.022012 20.160760 0.238797
0.042197 20.104908 0.630370
-0.023238 20.159991 0.242057
-0.039447 20.156057 0.238873
-0.057873 20.151250 0.237852
-0.062225 20.149523 0.242201
-0.068742 20.148192 0.238973
-0.049017 20.168199 0.138665
-0.010359 20.080597 0.885138
-0.078541 20.145561 0.239006
-0.000532 20.125740 0.549554
-0.128961 20.098521 0.239558
-0.135810 20.091660 0.239639
-0.150376 20.058470 0.243355
0.107265 20.120935 0.235950
0.087126 20.141114 0.235746
0.060965 20.150729 0.235655
0.090234 20.146010 0.190265
-0.010333 20.117395 0.599556
0.148595 20.071899 0.229819
0.087093 20.142293 0.229237
0.080501 20.146326 0.229204
0.060948 20.151569 0.229165
0.051193 20.154185 0.229146
-0.039436 20.157313 0.229144
0.071077 20.133309 0.349847
-0.088832 20.122565 0.330902
0.021990 20.163267 0.219385
-0.058942 20.152079 0.229193
0.101240 20.104973 0.360888
-0.068719 20.149455 0.229218
0.121968 20.245978 0.121264
-0.108529 20.120721 0.229474
-0.115291 20.113951 0.229533
-0.242269 20.179309 0.090401
-0.000529 20.124460 0.559488
-0.128899 20.100326 0.229653
-0.135744 20.093473 0.229713
-0.030102 20.097792 0.710598
-0.150068 20.066065 0.229950
0.120641 20.112153 0.209828
0.198791 20.222864 0.111268
0.089166 20.145555 0.198917
0.148339 20.077646 0.219849
0.134353 20.096694 0.219742
0.127518 20.103537 0.219705
0.113924 20.117147 0.219630
-0.039649 20.134132 0.408647
0.093727 20.137368 0.219519
-0.010334 20.116110 0.609532
-0.043659 20.060091 0.942644
0.087045 20.144058 0.219482
0.061084 20.144833 0.281174
0.080469 20.147590 0.219463
0.051171 20.155444 0.219424
0.028464 20.161531 0.219393
-0.137231 20.052891 0.356974
0.012290 20.165867 0.219372
-0.056789 20.073719 0.790560
-0.039424 20.158569 0.219422
0.141527 20.082528 0.259462
-0.058923 20.153338 0.219456
0.061160 20.141032 0.310519
-0.108477 20.122504 0.219640
-0.128836 20.102130 0.219759
-0.135677 20.095284 0.219799
-0.030094 20.099091 0.700529
0.100789 20.119353 0.281746
-0.149915 20.069850 0.223270
0.120686 20.110955 0.216386
-0.157823 20.040230 0.223467
0.100415 20.131246 0.216293
0.029237 20.088985 0.780927
0.164173 20.023281 0.210076
-0.029683 20.163682 0.200000
0.134279 20.098506 0.209866
